<?xml version="1.0" encoding="UTF-8"?>
<svg width="26px" height="26px" viewBox="0 0 26 26" version="1.1" xmlns="http://www.w3.org/2000/svg" xmlns:xlink="http://www.w3.org/1999/xlink">
    <title>4AE59A12-0113-464C-99D0-E7FD72B52B2A</title>
    <g id="Toolkit" stroke="none" stroke-width="1" fill="none" fill-rule="evenodd">
        <g id="Toolkit-1" transform="translate(-2085.000000, -922.000000)">
            <g id="content/checkbox/off-copy" transform="translate(2085.000000, 922.000000)">
                <rect id="Rectangle-Copy" fill="#3460F2" x="0" y="0" width="26" height="26" rx="7"></rect>
                <path d="M5.18461538,13.6 C5.06153846,13.48 5,13.3 5,13.18 C5,13.06 5.06153846,12.88 5.18461538,12.76 L6.04615385,11.92 C6.29230769,11.68 6.66153846,11.68 6.90769231,11.92 L6.96923077,11.98 L10.3538462,15.52 C10.4769231,15.64 10.6615385,15.64 10.7846154,15.52 L19.0307692,7.18 L19.0923077,7.18 L19.0923077,7.18 C19.3384615,6.94 19.7076923,6.94 19.9538462,7.18 L20.8153846,8.02 C21.0615385,8.26 21.0615385,8.62 20.8153846,8.86 L20.8153846,8.86 L10.9692308,18.82 C10.8461538,18.94 10.7230769,19 10.5384615,19 C10.3538462,19 10.2307692,18.94 10.1076923,18.82 L5.30769231,13.78 L5.18461538,13.6 Z" id="Check-Mark" fill="#FFFFFF"></path>
            </g>
        </g>
    </g>
</svg>