<?xml version="1.0" encoding="UTF-8"?>
<svg width="135px" height="77px" viewBox="0 0 135 77" version="1.1" xmlns="http://www.w3.org/2000/svg" xmlns:xlink="http://www.w3.org/1999/xlink">
    <title>B109B312-7E8A-4044-B13A-B9A75BA7FC8B</title>
    <g id="Toolkit" stroke="none" stroke-width="1" fill="none" fill-rule="evenodd">
        <g id="Toolkit-1" transform="translate(-728.000000, -4291.000000)">
            <g id="Group-17" transform="translate(729.000000, 4292.000000)">
                <g id="core-element/draw-ball/illustrated/26" transform="translate(83.000000, 25.000000)">
                    <path d="M50,25 C50,38.806635 38.806635,50 25.0010606,50 C11.193365,50 0,38.806635 0,25 C0,11.1923044 11.193365,0 25.0010606,0 C38.806635,0 50,11.1923044 50,25" id="Fill-1" fill="#FFFFFF"></path>
                    <path d="M17.958574,14.736918 C17.4319857,14.736918 16.869732,14.9236617 16.435454,15.2517821 C16.3934948,15.2834336 16.3462906,15.3435714 16.3462906,15.3921036 C16.3389478,15.8141234 16.3462906,16.2350881 16.5004908,16.6370619 C16.6504951,17.02321 16.9200831,17.2869724 17.3260387,17.365046 C17.5347858,17.4051379 17.7571697,17.4030278 17.9690638,17.3808718 C18.941469,17.2816971 19.5299472,16.104262 19.0358773,15.2528371 C18.7967096,14.8403128 18.3991459,14.736918 17.958574,14.736918 M22.2772277,10.0430032 C22.1859664,10.1569485 22.1072928,10.252958 22.0296683,10.3500225 C21.6960924,10.7678221 21.3572716,11.1814015 21.0299896,11.6044763 C20.9429242,11.7184216 20.8726425,11.7500731 20.7341771,11.6867701 C20.2296173,11.4609896 19.6956861,11.3438791 19.1449712,11.3512644 C18.2071825,11.3618149 17.5358348,11.832367 17.0774302,12.6320944 C16.9484056,12.857875 16.8477034,13.0994813 16.7344135,13.3337023 C16.7501482,13.3463628 16.7658829,13.3579684 16.7826666,13.370629 C16.8372136,13.3379225 16.8907116,13.307326 16.9442097,13.2746195 C17.8054228,12.7544801 18.7327218,12.6057182 19.7124698,12.8019574 C20.8317323,13.0256278 21.6415454,13.8791628 21.8051864,15.0734787 C21.9499457,16.1243079 21.7684721,17.1266049 21.1569163,18.0181216 C20.4719319,19.0151433 19.4963798,19.5373927 18.3299132,19.7325769 C17.6617125,19.8444121 16.9914138,19.8254212 16.3358008,19.6439527 C15.075975,19.2947314 14.3479823,18.4264257 14.0227983,17.1867427 C13.7951695,16.3194921 13.8318838,15.441691 13.987133,14.5691651 C14.1717536,13.5193909 14.531554,12.5350299 15.1672363,11.6698893 C16.3074784,10.1200218 17.8347943,9.3624963 19.759674,9.40786342 C20.5705361,9.42685431 21.335243,9.61043291 22.0716275,9.94066337 C22.1345663,9.9691497 22.1964562,10.0029113 22.2772277,10.0430032" id="Fill-3" fill="#000080"></path>
                    <path d="M6.93069307,20.7920792 C6.95136591,20.4161405 6.97720697,20.0701911 6.98754339,19.7220997 C7.02061994,18.5653651 7.31210703,17.4900304 8.017051,16.5807085 C8.43981065,16.0344727 8.9214879,15.5332211 9.4041988,15.0394668 C9.94376002,14.4857336 10.5225996,13.9705583 11.0693963,13.4232515 C11.2792257,13.2122545 11.4115319,12.9391367 11.4425412,12.6274609 C11.477685,12.268659 11.2657884,12.0415963 10.9174509,12.0630173 C10.5132969,12.0876515 10.1535894,12.2450959 9.85693407,12.5182138 C9.59852353,12.7570581 9.37215589,13.0333891 9.13545183,13.2957965 C9.08273608,13.3536332 9.04345768,13.4221804 8.98143915,13.5089355 C8.58245327,13.2047572 8.19173653,12.9059341 7.78448151,12.5964005 C7.8847448,12.4560929 7.97157074,12.3264957 8.06563218,12.2033249 C8.67548107,11.4021791 9.36905497,10.7027831 10.2941647,10.2957839 C10.9277874,10.0173108 11.5841502,9.85772425 12.2756568,9.91127678 C13.3299718,9.99267662 13.9460225,10.7520515 13.8519611,11.844523 C13.771337,12.7795501 13.3837212,13.5806959 12.7656032,14.238321 C12.168158,14.8723829 11.5055933,15.4368265 10.8812735,16.0430411 C10.478153,16.4361167 10.0833017,16.8409738 9.70395503,17.2586835 C9.57991797,17.3947069 9.5168658,17.587496 9.42590529,17.7545799 C9.44037628,17.7706456 9.45484727,17.7867114 9.46931826,17.8027772 C9.72876244,17.7610062 9.98717299,17.7106668 10.2476508,17.6796063 C11.1510541,17.5692881 12.0544573,17.4675383 12.9578606,17.3593622 C13.0922341,17.3432965 13.1480508,17.3679306 13.1346134,17.5318014 C13.0787967,18.2269132 13.0322828,18.922025 12.9919708,19.6192789 C12.9837017,19.7638707 12.9444233,19.8163522 12.7997134,19.8281337 C10.8761053,19.9770097 8.97317001,20.2565539 7.10331131,20.7620898 C7.0588647,20.7738713 7.0123508,20.7781556 6.93069307,20.7920792" id="Fill-5" fill="#000080"></path>
                    <path d="M46.2431359,28.2178218 C45.8592948,27.9003332 45.4998892,27.5901553 45.1252114,27.2977316 C44.2129525,26.5812936 43.2324778,25.9734702 42.216368,25.4262202 C42.0829909,25.3541586 42.0504102,25.2925408 42.1033538,25.137974 C42.2764386,24.638765 42.4332331,24.1322455 42.5910458,23.6267703 C42.8812174,22.7004139 43.4554518,22.0299282 44.3127308,21.6205351 C44.5866121,21.4889444 44.8727112,21.3876405 45.1527014,21.2696267 C45.3400403,21.1892102 45.5314517,21.1140155 45.7106455,21.0158447 C46.153539,20.7745952 46.3296783,20.3766902 46.2349907,19.8639044 C46.160666,19.4597331 45.9875812,19.1234459 45.6291938,18.9051725 C45.3573488,18.7391176 45.1007759,18.7495613 44.8564209,18.9615685 C44.7383159,19.0649612 44.6405739,19.1913299 44.5255234,19.3176987 C44.487852,19.2727908 44.4685072,19.2529478 44.453235,19.2299716 C44.0632851,18.6002164 43.6763895,17.9694168 43.2833851,17.3417503 C43.2192419,17.2404464 43.2141512,17.1746511 43.2925484,17.0775246 C43.5552301,16.7475036 43.8474381,16.4582131 44.2689506,16.3663085 C44.7464611,16.2618715 45.1628828,16.446725 45.5497784,16.7078176 C46.6076322,17.4221668 47.1319774,18.4905575 47.400768,19.7145594 C47.5463629,20.3840007 47.5677439,21.0607526 47.4435301,21.7406377 C47.3203344,22.4173896 46.961947,22.9082436 46.3551319,23.1996229 C46.0181256,23.3615002 45.6627926,23.4836916 45.3339314,23.6612345 C45.1343748,23.7688046 44.9633262,23.939037 44.794314,24.0977813 C44.6986082,24.1875971 44.7189711,24.2732355 44.8401305,24.3661844 C45.484617,24.8653934 46.118922,25.3792235 46.7583178,25.8846987 C46.8591143,25.9640708 46.8855861,26.0497092 46.8479147,26.1771224 C46.6605758,26.8100107 46.4803639,27.4460322 46.2981158,28.0799649 C46.2838617,28.1248728 46.2634988,28.167692 46.2431359,28.2178218" id="Fill-7" fill="#000080"></path>
                    <path d="M21.9493575,45.3922528 C23.4861753,45.1352768 24.9834005,44.7095241 26.4431169,44.1454835 C26.7806959,44.0159066 26.7004688,44.0093733 26.8973898,44.2892159 C27.0755565,44.545103 27.2599746,44.7977235 27.4287641,45.060144 C27.755924,45.5664738 27.7257086,46.0858703 27.3787524,46.5508227 C27.1182748,46.9003536 26.8036179,47.2085071 26.4910448,47.512305 C26.2649502,47.7322591 26.0044726,47.9119245 25.7627494,48.1133676 C25.6846062,48.1787005 25.6075048,48.2516555 25.5439483,48.3311439 C25.4168352,48.4901206 25.4366315,48.6392973 25.6262592,48.6926525 C25.8627728,48.7601632 26.1211666,48.8233183 26.3597641,48.7928296 C26.7452709,48.7427411 27.1255682,48.6305863 27.5006559,48.5151648 C27.7705107,48.4324099 27.9726413,48.2353223 28.115383,47.9750796 C28.1424727,47.9249911 28.2081131,47.8727248 28.2612505,47.8661915 C29.0353899,47.7779921 29.8095293,47.6974149 30.5857525,47.6157488 C30.6024231,47.613571 30.6201356,47.622282 30.6930693,47.6375264 C30.5388666,47.8411472 30.4169631,48.0382348 30.2596346,48.1993892 C29.9033012,48.5663423 29.4469445,48.7579854 28.9832944,48.9213176 C27.6308947,49.3982477 26.2389025,49.5855353 24.8156529,49.4733805 C24.3238712,49.4341808 23.8320895,49.3579591 23.3809423,49.1282051 C23.268416,49.0726722 23.1579735,49.0062504 23.0652435,48.9213176 C22.8422747,48.7176968 22.8141431,48.4999205 23.0193994,48.274522 C23.2361168,48.0371459 23.4882591,47.8357028 23.7310242,47.6266376 C24.0060885,47.3903503 24.2946977,47.1693074 24.5645525,46.9264868 C24.6697855,46.8317541 24.7520964,46.7010883 24.8229463,46.5747781 C24.8531617,46.5214229 24.8406588,46.4310457 24.8198205,46.3657128 C24.8156529,46.3472018 24.7135457,46.3504685 24.6593663,46.3602684 C23.8935622,46.5083563 23.1308838,46.6749552 22.361954,46.8034432 C21.8930943,46.8818426 21.4158994,46.905798 20.9418301,46.9482644 C20.8866089,46.9537088 20.8053399,46.9493533 20.7772083,46.9134202 C20.4521323,46.5116229 20.1364334,46.1022035 19.8019802,45.6720953 C20.5563233,45.5751849 21.2564871,45.5076742 21.9493575,45.3922528 Z" id="Fill-9" fill="#000080"></path>
                    <path d="M49.4682029,26.9629865 C49.4503243,26.9597934 49.4334974,26.9566003 49.4156188,26.9534072 C49.4156188,26.8799664 49.4198255,26.8075899 49.4156188,26.7352133 C49.4008952,26.4669945 49.3746031,26.2009044 49.2084372,25.9741956 C49.1337677,25.8730814 49.0401679,25.8241208 48.9118626,25.8581803 C48.787764,25.8911755 48.7151978,25.9582302 48.7151978,26.0997901 C48.7162495,26.1838746 48.6878541,26.2668947 48.6762856,26.3509792 C48.5974093,26.9534072 48.5069646,27.5558353 48.5921509,28.1635851 C48.6163396,28.3381402 48.6920608,28.5105666 48.7730404,28.6691563 C48.8361414,28.7936865 48.9539299,28.786236 49.0328061,28.6702207 C49.0990622,28.5722995 49.1705766,28.4637347 49.1947653,28.3498482 C49.2957269,27.8900444 49.3788099,27.4259833 49.4682029,26.9629865 M49.9477704,23.766712 C49.8604807,23.4889139 49.7858112,23.2089871 49.6816946,22.9418327 C49.6396273,22.8353966 49.5323556,22.7555696 49.4534794,22.6640346 C49.3872233,22.7587627 49.2894168,22.8439115 49.2599697,22.9492832 C49.1590081,23.309037 49.0832869,23.6762414 49.0044107,24.0115149 C49.1695249,24.0296091 49.3314841,24.0019357 49.4324457,24.0700547 C49.5397174,24.1424313 49.6270071,24.2935704 49.6606609,24.4255511 C49.7584675,24.8183002 49.879411,25.2153066 49.8972896,25.6155061 C49.9719591,27.1886309 49.8068449,28.736211 49.2662798,30.2231226 C49.1737317,30.4764404 49.0412196,30.7223076 48.8876739,30.944759 C48.664717,31.2683245 48.3944345,31.2651315 48.1525474,30.95966 C47.8864716,30.6233221 47.7634246,30.2231226 47.682445,29.8101507 C47.4679017,28.7053446 47.4952455,27.5909592 47.6277575,26.486153 C47.7949751,25.0939695 48.0063634,23.7060435 48.2314236,22.3213105 C48.3124032,21.8210611 48.4806725,21.3346484 48.6237014,20.8471713 C48.6657687,20.7056113 48.7456966,20.5672445 48.8382448,20.4512292 C49.003359,20.246872 49.1821451,20.2426145 49.3283291,20.456551 C49.474513,20.6683587 49.6017667,20.902518 49.6880047,21.1451922 C49.988786,21.9945518 50.0645072,22.8705205 49.9477704,23.766712" id="Fill-11" fill="#000080"></path>
                    <path d="M18.7466932,47.6887158 C18.7456454,47.6678483 18.7456454,47.648079 18.7456454,47.6283098 C18.1494241,47.1022284 17.4966195,46.6826813 16.7201697,46.5245274 C16.4592574,46.4707111 16.1878667,46.4498436 15.922763,46.4641214 C15.7006208,46.4762026 15.6566115,46.6299633 15.8001657,46.8144762 C15.876658,46.9100275 15.962581,47.0000874 16.0589823,47.0736729 C16.7086434,47.572297 17.4494667,47.7809723 18.2447776,47.7820705 C18.4124321,47.7820705 18.5800866,47.7216645 18.7466932,47.6887158 M17.2189417,48.4597161 C17.5867338,48.5596606 17.9513823,48.6727845 18.3233657,48.7573529 C18.6670573,48.8342333 19.0180839,48.8792632 19.365967,48.9374727 C19.4131198,48.946259 19.4665597,48.9561436 19.5084733,48.9407675 C19.6080181,48.9045239 19.7023238,48.8529043 19.7987251,48.806776 C19.7358547,48.6903572 19.6771756,48.5717418 19.6101138,48.4586178 C19.5996354,48.4421434 19.5545783,48.4399468 19.5273344,48.4454383 C18.9887444,48.5860196 18.4564414,48.5036477 17.9283298,48.3883272 C16.527367,48.0797074 15.2259491,47.5316602 14.096377,46.594818 C13.8564215,46.3971256 13.6468534,46.1401255 13.4760554,45.8743391 C13.2602003,45.5382621 13.3702235,45.2790654 13.7411591,45.1516636 C14.148769,45.0110824 14.5689531,45.0429328 14.9859936,45.0868645 C16.3439949,45.2296423 17.6433172,45.5931766 18.8745298,46.2148093 C19.9726666,46.7694463 20.9618281,47.4888269 21.823153,48.3960152 C21.967755,48.5497759 22.1008307,48.7255025 22.2056148,48.9133103 C22.3512646,49.1758018 22.2726766,49.3701993 21.9887118,49.4339002 C21.7498042,49.4866182 21.5004181,49.516272 21.2573191,49.5008959 C19.9412314,49.4207207 18.6743922,49.074759 17.4253663,48.6486221 C17.3425869,48.6200666 17.2734295,48.5508742 17.1969371,48.5003529 C17.204272,48.4871734 17.2116069,48.4728956 17.2189417,48.4597161" id="Fill-13" fill="#000080"></path>
                    <path d="M22.2733196,23.2614588 C21.9055308,23.2277156 21.5568755,23.195061 21.2082202,23.1645833 C18.6687768,22.9425317 16.1282704,22.8750454 13.5824491,23.0121949 C11.5298475,23.1232208 9.49425347,23.3648652 7.48842269,23.8416231 C7.01008466,23.9559144 6.53812447,24.0995949 6.06297537,24.2280366 C6.03533806,24.2367445 6.00557481,24.2421869 5.94285938,24.2574257 C5.94285938,24.0506129 5.93435559,23.8612159 5.95030019,23.6729074 C5.95242614,23.6315449 6.03640103,23.5782089 6.0895497,23.5640586 C6.97394356,23.3452724 7.85408553,23.0949201 8.74592021,22.9229389 C11.750946,22.34604 14.787861,22.201271 17.8354057,22.3112083 C19.2544751,22.3623673 20.6714187,22.4908089 22.0894252,22.5789765 C22.2222968,22.5876844 22.2892642,22.6257815 22.2754455,22.7770814 C22.2626898,22.9294698 22.2733196,23.0840352 22.2733196,23.2614588" id="Fill-15" fill="#000080"></path>
                    <path d="M26.513964,41.5841584 C26.5868671,41.7258929 26.657657,41.8601113 26.7326733,42.0061408 C26.6787884,42.0340582 26.6386388,42.0587544 26.5963762,42.077008 C24.5107136,42.9853976 22.3479216,43.6156867 20.0921518,43.8959346 C17.3112684,44.2406072 14.5726476,44.054849 11.8910814,43.1990731 C11.5001518,43.0734448 11.1102787,42.9381527 10.7383672,42.7642058 C10.5967873,42.6976335 10.5090922,42.5086541 10.3960396,42.3755096 C10.4108315,42.3572559 10.4256235,42.3400759 10.4404154,42.3218222 C10.5555812,42.3690671 10.6675772,42.4195332 10.782743,42.4635568 C12.2545404,43.0240524 13.7707135,43.385905 15.3354887,43.542672 C18.8760436,43.8991558 22.2729054,43.2796041 25.5672802,41.9739284 C25.8757977,41.852595 26.1811455,41.721598 26.513964,41.5841584" id="Fill-17" fill="#000080"></path>
                    <path d="M47.2936439,34.642001 C47.2677527,34.4981761 47.2470398,34.353309 47.2138991,34.2115685 C46.9653441,33.1568525 46.3657049,32.308494 45.63661,31.5435122 C44.3990128,30.2428348 42.9138962,29.2829599 41.3511061,28.4325169 C40.9461685,28.2126107 40.5329456,28.0072955 40.0990099,27.7821782 C40.1828972,27.6008338 40.2657489,27.4226159 40.3568858,27.2277228 C40.5691933,27.3329859 40.7649304,27.427827 40.9585962,27.5268369 C42.3908949,28.2626368 43.7641617,29.0901511 44.9924381,30.1427827 C45.8820582,30.9046378 46.6722562,31.7509119 47.1786872,32.8295987 C47.3630322,33.2256384 47.5132009,33.6393955 47.524593,34.0760813 C47.5297712,34.2668056 47.407565,34.4606566 47.3443906,34.6534653 C47.3267846,34.6492965 47.3102142,34.6461699 47.2936439,34.642001" id="Fill-19" fill="#000080"></path>
                    <path d="M50,25 C50,38.806635 38.806635,50 25.0010606,50 C11.193365,50 0,38.806635 0,25 C0,11.1923044 11.193365,0 25.0010606,0 C38.806635,0 50,11.1923044 50,25 Z" id="Stroke-21" stroke="#000080" stroke-width="0.5" stroke-linecap="round" stroke-linejoin="round"></path>
                </g>
                <g id="core-element/draw-ball/illustrated/01">
                    <path d="M35.6363636,17.8181818 C35.6363636,27.6586691 27.6588377,35.6363636 17.8185584,35.6363636 C7.97752589,35.6363636 0,27.6586691 0,17.8181818 C0,7.97769451 7.97752589,0 17.8185584,0 C27.6588377,0 35.6363636,7.97769451 35.6363636,17.8181818" id="Fill-23" fill="#FFFFFF"></path>
                    <path d="M36,18 C36,27.9411789 27.9415175,36 18,36 C8.05923872,36 0,27.9411789 0,18 C0,8.05882106 8.05923872,0 18,0 C27.9415175,0 36,8.05882106 36,18" id="Fill-25" fill="#FFFFFF"></path>
                    <path d="M36,18 C36,27.9411789 27.9415175,36 18,36 C8.05923872,36 0,27.9411789 0,18 C0,8.05882106 8.05923872,0 18,0 C27.9415175,0 36,8.05882106 36,18 Z" id="Stroke-27" stroke="#000080" stroke-width="0.5" stroke-linecap="round" stroke-linejoin="round"></path>
                    <path d="M22.0377996,26.8855763 C22.0618381,27.015981 22.0821205,27.2375936 22.1467239,27.446392 C22.2376193,27.7426293 22.4502094,27.9250451 22.7604557,27.9755487 C23.1638511,28.0418817 23.5326911,27.9589654 23.8557079,27.698156 C24.1148725,27.4878501 24.2846441,27.2112112 24.410846,26.9096974 C24.6204313,26.4084306 24.7090731,25.8792739 24.7225947,25.3388104 C24.7301067,25.0380504 24.6880394,24.7410592 24.5528231,24.4666817 C24.4078412,24.1757208 24.172715,24.0136572 23.8504495,23.9797369 C23.2532441,23.9171727 22.8303175,24.18552 22.5508704,24.6920632 C22.1910448,25.3440869 22.0843741,26.0624435 22.0377996,26.8855763 M20.002794,26.8290424 C20.00655,26.0134475 20.166556,25.2287578 20.5008408,24.4840187 C20.8899633,23.6179203 21.4743983,22.9289612 22.3442899,22.5196562 C23.1120181,22.1578396 23.9188088,22.083215 24.7323603,22.3123655 C25.7780332,22.6063414 26.306128,23.3699252 26.4894213,24.4033638 C26.6133696,25.095338 26.5187181,25.7767592 26.3324201,26.4468737 C26.1100644,27.2473928 25.6969034,27.9348443 25.0786644,28.4881222 C24.310185,29.1763275 23.401982,29.4936708 22.3765916,29.450705 C21.7808886,29.4250764 21.2242481,29.265274 20.7682686,28.8537077 C20.2544466,28.3901302 20.0576317,27.7818261 20.0035452,27.1132192 C19.9960332,27.0189961 20.002794,26.9232655 20.002794,26.8290424" id="Fill-29" fill="#000080"></path>
                    <path d="M28.0775697,28.7272727 C28.5717283,27.1759192 28.8874624,25.6101732 29.0891598,23.9876149 C28.6415467,24.2959161 28.2164306,24.5898249 27.7804539,24.8913087 C27.7571812,24.8451014 27.7385629,24.8163165 27.7277023,24.7852591 C27.5818596,24.3875733 27.4391199,23.9891299 27.2893983,23.5922016 C27.2560407,23.5035744 27.2707801,23.4573671 27.3514591,23.3982824 C28.0488666,22.890002 28.7400681,22.3749041 29.4343726,21.8628363 C29.4832454,21.8272339 29.5367728,21.7893591 29.594179,21.7749666 C30.0076587,21.6681596 30.4226899,21.566655 30.8384968,21.4636354 C30.8547878,21.4598479 30.8726302,21.4598479 30.9090909,21.4545455 C30.9021091,21.5795324 30.895903,21.694672 30.8881454,21.810569 C30.8128968,22.9331793 30.6817935,24.0497297 30.4831991,25.1579476 C30.2985684,26.1843558 30.0557558,27.1971291 29.7369187,28.19248 C29.7051126,28.291712 29.6546882,28.3454943 29.5515123,28.3712492 C29.1023477,28.4818437 28.6539588,28.5984983 28.2047942,28.7113653 C28.1714366,28.7196978 28.1357517,28.7204553 28.0775697,28.7272727" id="Fill-31" fill="#000080"></path>
                    <path d="M3.87252003,18.9714479 L2.94556767,18.9714479 C2.93703505,18.782757 2.9222969,18.5887829 2.91919413,18.3940539 C2.91298859,18.0295033 2.91376428,17.6649526 2.90909091,17.3004019 C2.90833444,17.2256804 2.93082951,17.1924708 3.01460429,17.1871874 C3.53974801,17.1569969 4.06489174,17.1200135 4.59081115,17.0913325 C4.6474367,17.0875587 4.71414624,17.1094468 4.76146347,17.1396373 C5.08647857,17.3464425 5.40683951,17.5607953 5.73185461,17.7660909 C5.81252661,17.81666 5.83812446,17.858172 5.80244261,17.9532722 C5.29126135,19.308827 4.95538656,20.7043844 4.8196404,22.1429632 C4.74284686,22.953579 4.73741701,23.7649495 4.80179947,24.5763201 C4.80490224,24.617832 4.80645363,24.6600988 4.81033209,24.7272727 C4.74594962,24.6895346 4.70018378,24.6646274 4.65829639,24.6367011 C4.29915083,24.3936674 3.93922958,24.1521431 3.58473817,23.9030712 C3.53586955,23.8683521 3.49475786,23.7943853 3.48932801,23.734759 C3.42261847,23.0154696 3.42261847,22.2954254 3.47381416,21.5753812 C3.53431817,20.7330654 3.6630831,19.9013162 3.85855757,19.079379 C3.86709019,19.0423956 3.86864157,19.0039027 3.87252003,18.9714479" id="Fill-33" fill="#000080"></path>
                    <path d="M21.7169315,0.817619193 C21.5965086,0.822647484 21.5131973,0.825520793 21.4306432,0.829830756 C21.4094367,0.831267411 21.3867154,0.83414072 21.3662663,0.839169011 C21.2011583,0.877958683 21.1526862,0.972777881 21.2276664,1.11644333 C21.2541746,1.16744457 21.285227,1.21988246 21.325368,1.26226377 C21.4722989,1.41454915 21.6169578,1.56898951 21.7744921,1.71121831 C22.2061965,2.09983335 22.6871304,2.41517902 23.2763691,2.55381618 C23.5444803,2.61702898 23.8163783,2.65581866 24.0913059,2.60266244 C24.3207909,2.55740782 24.3988007,2.4223623 24.3064008,2.21835735 C24.2571713,2.10988994 24.1897648,2.0035775 24.1087256,1.91378659 C23.4725295,1.20407926 22.6447173,0.875803701 21.7169315,0.817619193 M20.5816245,0.363636364 C22.1584818,0.45127229 23.674749,0.806125957 25.0402983,1.63220231 C25.4174717,1.85991205 25.7552615,2.13718637 25.9930776,2.50281495 C26.0756316,2.62995887 26.134707,2.77793429 26.1687889,2.92447305 C26.2202905,3.14643618 26.1157726,3.31955305 25.9143105,3.43735872 C25.6651337,3.58317915 25.3849045,3.62556046 25.100131,3.63346206 C24.2950401,3.65644853 23.5103984,3.5422345 22.7431762,3.3130881 C21.8055445,3.03222214 20.9497093,2.60625407 20.2014216,1.99926754 C19.9613334,1.80460085 19.7424517,1.5819194 19.5303863,1.35780129 C19.4341995,1.25579882 19.3645209,1.12434493 19.3092325,0.996482681 C19.2274358,0.806125957 19.2827243,0.639474032 19.4788847,0.557584724 C19.6705009,0.477132071 19.8810515,0.432595781 20.0885726,0.394524436 C20.2415626,0.366509673 20.401369,0.372974618 20.5816245,0.363636364" id="Fill-35" fill="#000080"></path>
                    <path d="M17.982039,2.61052231 C18.255829,2.4424236 18.5258684,2.2851467 18.783906,2.11344073 C18.9354281,2.01243722 19.065197,1.99800814 19.2317213,2.0874684 C19.5625195,2.26638891 19.9045694,2.42510872 20.2428688,2.59320742 C20.2796241,2.61124376 20.3126289,2.63577319 20.3636364,2.66751715 C20.2578709,2.73100507 20.1648574,2.78150683 20.0778447,2.83994458 C19.5985248,3.16604164 19.1222053,3.49430306 18.6428854,3.82040012 C18.5941283,3.85358699 18.5416207,3.88388804 18.4861126,3.90192438 C18.0105432,4.05198675 17.5327235,4.19483457 17.0594045,4.34850421 C16.9543892,4.38241253 16.9078824,4.36004747 16.8538745,4.27419448 C16.376805,3.51378231 15.828475,2.80675771 15.1548768,2.19424354 C14.786573,1.85948904 14.3890151,1.56152867 13.9374492,1.33571367 C13.9044444,1.31912024 13.87444,1.29819808 13.8181818,1.2635683 C14.1429792,1.15751461 14.4422728,1.05506819 14.745317,0.962722122 C15.0213573,0.87975495 15.2988978,0.802559407 15.5786886,0.735464215 C15.6491988,0.718149327 15.7429625,0.728971132 15.8067218,0.761436547 C16.6198404,1.17987968 17.2739358,1.77652186 17.8522701,2.45757413 C17.8957765,2.50807589 17.9385327,2.5592991 17.982039,2.61052231" id="Fill-37" fill="#000080"></path>
                    <path d="M0.669426007,18.4883369 C0.689334187,18.6932874 0.701279095,18.9965226 0.753040362,19.2936627 C0.788078759,19.4932799 0.874878423,19.68604 0.951325834,19.8765144 C0.970437687,19.9229901 1.04529244,19.9816562 1.08988677,19.9786086 C1.13527742,19.975561 1.19261297,19.909276 1.21411381,19.8589907 C1.26268977,19.7416585 1.30569144,19.618993 1.3279886,19.4948037 C1.40363968,19.0673791 1.48566138,18.6399546 1.53583,18.2094824 C1.6003325,17.6525353 1.64811213,17.0933025 1.67837256,16.5340696 C1.69191013,16.285691 1.64970478,16.0335029 1.5095512,15.8117907 C1.41558459,15.6632207 1.30887675,15.6502684 1.2109285,15.78741 C1.12970313,15.9009327 1.06520062,16.0312172 1.01901365,16.1630255 C0.768170579,16.8853044 0.697297459,17.6350116 0.669426007,18.4883369 M0.363636364,18.0700552 C0.377970253,16.9614942 0.475122171,15.9146469 0.812764902,14.9028469 C0.903546202,14.6308494 1.0556447,14.3763756 1.18942767,14.1180924 C1.22685504,14.0457121 1.29454286,13.9847603 1.35824903,13.9291418 C1.52388509,13.7820955 1.72137423,13.7767622 1.86789844,13.9398083 C1.98814384,14.0746642 2.09564801,14.2285675 2.16970644,14.3908517 C2.47947772,15.0719881 2.53283164,15.7973147 2.54398023,16.5279744 C2.55911044,17.4826321 2.45638423,18.4289089 2.3003041,19.3690906 C2.20793015,19.931371 2.09564801,20.4906038 1.96982832,21.0467891 C1.92603032,21.240311 1.83445269,21.4300235 1.73093016,21.6029743 C1.5652941,21.8833526 1.34471147,21.8871621 1.1376664,21.6296407 C0.910713147,21.3454529 0.792060395,21.0125037 0.695704804,20.6734592 C0.447250719,19.8041341 0.380359235,18.9134758 0.363636364,18.0700552" id="Fill-39" fill="#000080"></path>
                    <path d="M29.0909091,29.8181818 C29.0533462,30.0408236 28.9639466,30.1648911 28.7626096,30.2328733 C27.6747891,30.5982777 26.5674358,30.8506617 25.4435548,31.0163683 C23.7802711,31.2611043 22.1102261,31.3120909 20.4356736,31.246658 C20.1073741,31.2339114 19.779826,31.2075683 19.4522778,31.1863238 C19.3966847,31.1829247 19.3410917,31.1727274 19.2727273,31.1642296 C19.3087876,31.059707 19.3343304,30.9662314 19.374147,30.8812537 C19.3899234,30.8506617 19.4425114,30.8251683 19.4770693,30.8277177 C20.603204,30.9160945 21.7308412,30.944987 22.8592297,30.9024981 C24.9357049,30.8251683 26.9843836,30.5464413 28.9782205,29.8496236 C29.0127783,29.8368769 29.0503412,29.8292289 29.0909091,29.8181818" id="Fill-41" fill="#000080"></path>
                    <path d="M0.727538571,22.1825873 C0.868393994,22.4524104 1.00452801,22.7452298 1.16741668,23.0234848 C1.56165449,23.6965095 2.08258348,24.2714167 2.6570218,24.8003313 C3.32824904,25.4173984 4.05928082,25.9593442 4.84460883,26.4284685 C5.03976047,26.544983 5.06494133,26.7036574 5.09090909,26.9090909 C4.92959422,26.8086738 4.78323048,26.7212879 4.64158816,26.6293027 C3.69022387,26.008403 2.79866413,25.3177478 2.046386,24.4699513 C1.45463584,23.8022924 0.972265033,23.0733101 0.732259981,22.2109493 C0.727538571,22.1948519 0.726751669,22.177988 0.727538571,22.1825873" id="Fill-43" fill="#000080"></path>
                    <path d="M20.3636364,0.0510768341 C20.0139562,0.0510768341 19.5053305,0.0433393593 18.9967048,0.0524836477 C17.7026556,0.0771028859 16.4287653,0.239589858 15.1804613,0.549792259 C14.5539833,0.705948569 13.9391355,0.901495661 13.3173096,1.07594055 C13.2467532,1.09563594 13.1692188,1.09493253 13.0909091,1.07945758 C15.4859469,0.243106892 17.9546424,-0.147987292 20.3636364,0.0510768341" id="Fill-45" fill="#000080"></path>
                </g>
            </g>
        </g>
    </g>
</svg>