<?xml version="1.0" encoding="UTF-8"?>
<svg width="462px" height="211px" viewBox="0 0 462 211" version="1.1" xmlns="http://www.w3.org/2000/svg" xmlns:xlink="http://www.w3.org/1999/xlink">
    <title>20F2F890-D223-4951-9863-09F9A90737C7</title>
    <defs>
        <rect id="path-1" x="0" y="0" width="462" height="211"></rect>
    </defs>
    <g id="Toolkit" stroke="none" stroke-width="1" fill="none" fill-rule="evenodd">
        <g id="Toolkit-1" transform="translate(-1299.000000, -4264.000000)">
            <g id="core-element/draw-ball/illustrated/26-+-core-element/draw-ball/illustrated/01-Mask" transform="translate(1299.000000, 4264.000000)">
                <mask id="mask-2" fill="white">
                    <use xlink:href="#path-1"></use>
                </mask>
                <g id="Mask"></g>
                <g id="core-element/draw-ball/illustrated/26" mask="url(#mask-2)">
                    <g transform="translate(360.500000, 91.000000)">
                        <path d="M75,37.5 C75,58.2099525 58.2099525,75 37.5015909,75 C16.7900475,75 0,58.2099525 0,37.5 C0,16.7884566 16.7900475,0 37.5015909,0 C58.2099525,0 75,16.7884566 75,37.5" id="Fill-1" stroke="none" fill="#FFFFFF" fill-rule="evenodd"></path>
                        <path d="M26.9378611,22.1053769 C26.1479786,22.1053769 25.3045981,22.3854926 24.653181,22.8776731 C24.5902422,22.9251503 24.519436,23.0153571 24.519436,23.0881555 C24.5084217,23.7211851 24.519436,24.3526322 24.7507362,24.9555929 C24.9757426,25.534815 25.3801247,25.9304586 25.989058,26.047569 C26.3021787,26.1077069 26.6357546,26.1045417 26.9535958,26.0713077 C28.4122035,25.9225457 29.2949208,24.156393 28.5538159,22.8792557 C28.1950645,22.2604692 27.5987189,22.1053769 26.9378611,22.1053769 M33.4158416,15.0645047 C33.2789496,15.2354227 33.1609393,15.379437 33.0445024,15.5250338 C32.5441386,16.1517332 32.0359074,16.7721022 31.5449844,17.4067144 C31.4143863,17.5776324 31.3089638,17.6251096 31.1012656,17.5301552 C30.344426,17.1914843 29.5435292,17.0158186 28.7174569,17.0268966 C27.3107737,17.0427224 26.3037522,17.7485504 25.6161453,18.9481416 C25.4226084,19.2868125 25.2715552,19.6492219 25.1016203,20.0005534 C25.1252223,20.0195443 25.1488244,20.0369526 25.1739999,20.0559435 C25.2558204,20.0068837 25.3360675,19.960989 25.4163145,19.9119292 C26.7081343,19.1317202 28.0990827,18.9085772 29.5687047,19.202936 C31.2475984,19.5384417 32.4623181,20.8187442 32.7077796,22.6102181 C32.9249186,24.1864619 32.6527081,25.6899073 31.7353744,27.0271824 C30.7078978,28.5227149 29.2445697,29.3060891 27.4948698,29.5988653 C26.4925687,29.7666182 25.4871207,29.7381319 24.5037013,29.4659291 C22.6139625,28.9420971 21.5219735,27.6396386 21.0341975,25.780114 C20.6927542,24.4792381 20.7478257,23.1625364 20.9806995,21.8537477 C21.2576304,20.2790864 21.797331,18.8025448 22.7508545,17.504834 C24.4612175,15.1800327 26.7521915,14.0437444 29.6395109,14.1117951 C30.8558041,14.1402815 32.0028645,14.4156494 33.1074412,14.9109951 C33.2018495,14.9537246 33.2946843,15.0043669 33.4158416,15.0645047" id="Fill-3" stroke="none" fill="#000080" fill-rule="evenodd"></path>
                        <path d="M10.3960396,31.1881188 C10.4270489,30.6242107 10.4658105,30.1052867 10.4813151,29.5831496 C10.5309299,27.8480477 10.9681605,26.2350456 12.0255765,24.8710627 C12.659716,24.0517091 13.3822319,23.2998316 14.1062982,22.5592001 C14.91564,21.7286005 15.7838995,20.9558375 16.6040945,20.1348772 C16.9188386,19.8183818 17.1172979,19.408705 17.1638118,18.9411914 C17.2165275,18.4029885 16.8986825,18.0623945 16.3761764,18.094526 C15.7699453,18.1314772 15.2303841,18.3676439 14.7854011,18.7773207 C14.3977853,19.1355871 14.0582338,19.5500837 13.7031778,19.9436947 C13.6241041,20.0304498 13.5651865,20.1332707 13.4721587,20.2634033 C12.8736799,19.8071358 12.2876048,19.3589011 11.6767223,18.8946007 C11.8271172,18.6841393 11.9573561,18.4897436 12.0984483,18.3049874 C13.0132216,17.1032687 14.0535824,16.0541747 15.4412471,15.4436759 C16.3916811,15.0259662 17.3762252,14.7865864 18.4134852,14.8669152 C19.9949577,14.9890149 20.9190338,16.1280772 20.7779416,17.7667845 C20.6570055,19.1693252 20.0755818,20.3710439 19.1484047,21.3574814 C18.252237,22.3085743 17.25839,23.1552398 16.3219102,24.0645617 C15.7172295,24.654175 15.1249526,25.2614607 14.5559325,25.8880252 C14.369877,26.0920603 14.2752987,26.381244 14.1388579,26.6318698 C14.1605644,26.6559685 14.1822709,26.6800671 14.2039774,26.7041657 C14.5931437,26.6415093 14.9807595,26.5660002 15.3714762,26.5194095 C16.7265811,26.3539322 18.081686,26.2013075 19.4367909,26.0390433 C19.6383511,26.0149447 19.7220762,26.051896 19.7019201,26.2977021 C19.6181951,27.3403697 19.5484243,28.3830374 19.4879562,29.4289183 C19.4755525,29.645806 19.4166349,29.7245283 19.19957,29.7422006 C16.3141579,29.9655146 13.459755,30.3848309 10.654967,31.1431347 C10.588297,31.160807 10.5185262,31.1672333 10.3960396,31.1881188" id="Fill-5" stroke="none" fill="#000080" fill-rule="evenodd"></path>
                        <path d="M69.3647038,42.3267327 C68.7889422,41.8504999 68.2498338,41.3852329 67.6878172,40.9465974 C66.3194288,39.8719405 64.8487167,38.9602053 63.324552,38.1393303 C63.1244863,38.0312379 63.0756153,37.9388112 63.1550307,37.706961 C63.4146579,36.9581475 63.6498497,36.1983682 63.8865687,35.4401554 C64.3218261,34.0506208 65.1831777,33.0448923 66.4690963,32.4308026 C66.8799182,32.2334167 67.3090668,32.0814608 67.7290521,31.90444 C68.0100604,31.7838153 68.2971776,31.6710233 68.5659682,31.5237671 C69.2303085,31.1618928 69.4945174,30.5650352 69.352486,29.7958566 C69.240999,29.1895996 68.9813718,28.6851688 68.4437906,28.3577588 C68.0360231,28.1086765 67.6511639,28.124342 67.2846313,28.4423528 C67.1074739,28.5974417 66.9608608,28.7869949 66.7882851,28.9765481 C66.731778,28.9091862 66.7027608,28.8794217 66.6798525,28.8449575 C66.0949276,27.9003246 65.5145843,26.9541252 64.9250777,26.0126254 C64.8288629,25.8606696 64.8212268,25.7619766 64.9388227,25.6162869 C65.3328452,25.1212554 65.7711571,24.6873196 66.4034258,24.5494627 C67.1196916,24.3928072 67.7443243,24.6700875 68.3246675,25.0617263 C69.9114483,26.1332502 70.6979661,27.7358363 71.101152,29.5718391 C71.3195443,30.5760011 71.3516159,31.591129 71.1652952,32.6109565 C70.9805017,33.6260844 70.4429205,34.3623654 69.5326979,34.7994343 C69.0271884,35.0422504 68.4941889,35.2255373 68.0008971,35.4918518 C67.7015621,35.653207 67.4449893,35.9085555 67.1914709,36.1466719 C67.0479123,36.2813956 67.0784567,36.4098532 67.2601958,36.5492766 C68.2269255,37.2980901 69.1783831,38.0688353 70.1374767,38.8270481 C70.2886714,38.9461063 70.3283791,39.0745638 70.271872,39.2656836 C69.9908637,40.2150161 69.7205459,41.1690483 69.4471736,42.1199474 C69.4257926,42.1873092 69.3952482,42.251538 69.3647038,42.3267327" id="Fill-7" stroke="none" fill="#000080" fill-rule="evenodd"></path>
                        <path d="M32.9240362,68.0883792 C35.2292629,67.7029152 37.4751007,67.0642862 39.6646754,66.2182253 C40.1710438,66.02386 40.0507031,66.01406 40.3460847,66.4338238 C40.6133347,66.8176545 40.889962,67.1965853 41.1431462,67.5902159 C41.633886,68.3497108 41.5885629,69.1288054 41.0681286,69.826234 C40.6774122,70.3505304 40.2054268,70.8127606 39.7365672,71.2684575 C39.3974253,71.5983886 39.006709,71.8678868 38.6441241,72.1700514 C38.5269092,72.2680507 38.4112572,72.3774833 38.3159224,72.4967158 C38.1252528,72.7351809 38.1549472,72.958946 38.4393888,73.0389788 C38.7941592,73.1402448 39.1817499,73.2349774 39.5396461,73.1892444 C40.1179064,73.1141116 40.6883523,72.9458794 41.2509839,72.7727473 C41.6557661,72.6486148 41.958962,72.3529835 42.1730746,71.9626195 C42.2137091,71.8874866 42.3121696,71.8090872 42.3918758,71.7992872 C43.5530849,71.6669881 44.714294,71.5461223 45.8786288,71.4236231 C45.9036347,71.4203565 45.9302034,71.4334231 46.039604,71.4562896 C45.8082999,71.7617208 45.6254446,72.0573521 45.3894519,72.2990838 C44.8549519,72.8495134 44.1704168,73.1369781 43.4749416,73.3819764 C41.4463421,74.0973716 39.3583537,74.378303 37.2234794,74.2100708 C36.4858068,74.1512712 35.7481343,74.0369386 35.0714135,73.6923077 C34.902624,73.6090082 34.7369603,73.5093756 34.5978652,73.3819764 C34.263412,73.0765452 34.2212146,72.7498808 34.5290991,72.4117831 C34.8541752,72.0557188 35.2323886,71.7535542 35.5965363,71.4399564 C36.0091328,71.0855254 36.4420466,70.753961 36.8468288,70.3897302 C37.0046782,70.2476312 37.1281446,70.0516325 37.2344194,69.8621671 C37.2797425,69.7821343 37.2609881,69.6465686 37.2297308,69.5485693 C37.2234794,69.5208028 37.0703185,69.5257027 36.9890495,69.5404026 C35.8403433,69.7625345 34.6963258,70.0124328 33.542931,70.2051648 C32.8396415,70.322764 32.123849,70.3586971 31.4127452,70.4223966 C31.3299133,70.4305632 31.2080098,70.4240299 31.1658125,70.3701303 C30.6781984,69.7674344 30.2046501,69.1533053 29.7029703,68.508143 C30.834485,68.3627773 31.8847306,68.2615114 32.9240362,68.0883792 Z" id="Fill-9" stroke="none" fill="#000080" fill-rule="evenodd"></path>
                        <path d="M74.2023044,40.4444797 C74.1754865,40.4396901 74.1502461,40.4349005 74.1234282,40.4301109 C74.1234282,40.3199495 74.1297382,40.2113848 74.1234282,40.10282 C74.1013428,39.7004918 74.0619047,39.3013566 73.8126558,38.9612934 C73.7006516,38.8096221 73.5602519,38.7361812 73.3677939,38.7872705 C73.1816459,38.8367632 73.0727968,38.9373453 73.0727968,39.1496852 C73.0743743,39.2758119 73.0317811,39.4003421 73.0144283,39.5264688 C72.896114,40.4301109 72.7604469,41.3337529 72.8882264,42.2453776 C72.9245094,42.5072103 73.0380912,42.7658499 73.1595606,43.0037345 C73.2542121,43.1905297 73.4308948,43.1793539 73.5492092,43.005331 C73.6485932,42.8584493 73.7558649,42.6956021 73.792148,42.5247722 C73.9435903,41.8350667 74.0682148,41.1389749 74.2023044,40.4444797 M74.9216556,35.650068 C74.7907211,35.2333709 74.6787168,34.8134807 74.5225419,34.412749 C74.4594409,34.2530949 74.2985334,34.1333544 74.180219,33.9960519 C74.080835,34.138144 73.9341252,34.2658672 73.8899545,34.4239248 C73.7385121,34.9635555 73.6249304,35.5143621 73.506616,36.0172724 C73.7542874,36.0444136 73.9972262,36.0029035 74.1486685,36.1050821 C74.3095761,36.2136469 74.4405106,36.4403557 74.4909914,36.6383267 C74.6377012,37.2274502 74.8191165,37.8229599 74.8459344,38.4232592 C74.9579387,40.7829464 74.7102673,43.1043165 73.8994197,45.3346839 C73.7605975,45.7146605 73.5618294,46.0834614 73.3315108,46.4171385 C72.9970756,46.9024868 72.5916517,46.8976972 72.2288211,46.43949 C71.8297073,45.9349832 71.645137,45.3346839 71.5236676,44.7152261 C71.2018525,43.0580168 71.2428682,41.3864387 71.4416363,39.7292295 C71.6924627,37.6409543 72.0095452,35.5590652 72.3471354,33.4819658 C72.4686048,32.7315916 72.7210088,32.0019725 72.9355521,31.2707569 C72.9986531,31.058417 73.118545,30.8508667 73.2573671,30.6768438 C73.5050385,30.370308 73.7732177,30.3639218 73.9924936,30.6848265 C74.2117695,31.0025381 74.40265,31.353777 74.532007,31.7177883 C74.9831791,32.9918278 75.0967608,34.3057808 74.9216556,35.650068" id="Fill-11" stroke="none" fill="#000080" fill-rule="evenodd"></path>
                        <path d="M28.1200398,71.5330737 C28.1184681,71.5017724 28.1184681,71.4721186 28.1184681,71.4424647 C27.2241362,70.6533426 26.2449292,70.0240219 25.0802545,69.786791 C24.6888861,69.7060667 24.2818,69.6747654 23.8841445,69.696182 C23.5509312,69.7143038 23.4849173,69.944945 23.7002485,70.2217143 C23.8149871,70.3650413 23.9438714,70.500131 24.0884734,70.6105093 C25.0629651,71.3584455 26.1742,71.6714584 27.3671664,71.6731058 C27.6186482,71.6731058 27.8701299,71.5824968 28.1200398,71.5330737 M25.8284126,72.6895741 C26.3801007,72.8394909 26.9270734,73.0091768 27.4850485,73.1360294 C28.000586,73.25135 28.5271259,73.3188949 29.0489505,73.406209 C29.1196797,73.4193885 29.1998395,73.4342154 29.2627099,73.4111513 C29.4120272,73.3567859 29.5534857,73.2793564 29.6980877,73.2101641 C29.603782,73.0355358 29.5157634,72.8576127 29.4151707,72.6879267 C29.3994531,72.6632151 29.3318674,72.6599203 29.2910016,72.6681575 C28.4831166,72.8790293 27.6846621,72.7554716 26.8924947,72.5824908 C24.7910505,72.1195611 22.8389236,71.2974903 21.1445655,69.892227 C20.7846323,69.5956884 20.4702801,69.2101883 20.2140831,68.8115087 C19.8903004,68.3073931 20.0553353,67.9185981 20.6117386,67.7274954 C21.2231535,67.5166236 21.8534296,67.5643992 22.4789904,67.6302967 C24.5159924,67.8444634 26.4649757,68.3897649 28.3117947,69.322214 C29.959,70.1541694 31.4427421,71.2332403 32.7347295,72.5940228 C32.9516325,72.8246639 33.1512461,73.0882538 33.3084222,73.3699654 C33.5268969,73.7637027 33.4090149,74.055299 32.9830677,74.1508503 C32.6247062,74.2299272 32.2506272,74.274408 31.8859787,74.2513439 C29.9118471,74.1310811 28.0115883,73.6121386 26.1380495,72.9729332 C26.0138804,72.9300999 25.9101442,72.8263114 25.7954056,72.7505293 C25.806408,72.73076 25.8174103,72.7093434 25.8284126,72.6895741" id="Fill-13" stroke="none" fill="#000080" fill-rule="evenodd"></path>
                        <path d="M33.4099793,34.8921882 C32.8582962,34.8415735 32.3353133,34.7925915 31.8123303,34.746875 C28.0031652,34.4137975 24.1924056,34.3125681 20.3736737,34.5182924 C17.2947713,34.6848311 14.2413802,35.0472978 11.232634,35.7624347 C10.515127,35.9338717 9.80718671,36.1493924 9.09446305,36.3420548 C9.05300709,36.3551167 9.00836221,36.3632804 8.91428906,36.3861386 C8.91428906,36.0759194 8.90153338,35.7918239 8.92545028,35.5093611 C8.92863921,35.4473173 9.05460155,35.3673134 9.13432456,35.3460879 C10.4609153,35.0179086 11.7811283,34.6423801 13.1188803,34.3844083 C17.626419,33.51906 22.1817914,33.3019065 26.7531085,33.4668125 C28.8817127,33.543551 31.007128,33.7362134 33.1341378,33.8684648 C33.3334453,33.8815266 33.4338963,33.9386723 33.4131683,34.1656221 C33.3940347,34.3942047 33.4099793,34.6260528 33.4099793,34.8921882" id="Fill-15" stroke="none" fill="#000080" fill-rule="evenodd"></path>
                        <path d="M39.770946,62.3762376 C39.8803006,62.5888394 39.9864856,62.7901669 40.0990099,63.0092112 C40.0181826,63.0510873 39.9579583,63.0881315 39.8945643,63.1155121 C36.7660704,64.4780963 33.5218825,65.4235301 30.1382277,65.8439018 C25.9669026,66.3609108 21.8589714,66.0822736 17.8366221,64.7986097 C17.2502276,64.6101671 16.665418,64.4072291 16.1075508,64.1463087 C15.8951809,64.0464503 15.7636384,63.7629812 15.5940594,63.5632643 C15.6162473,63.5358838 15.6384352,63.5101139 15.6606231,63.4827334 C15.8333718,63.5536006 16.0013659,63.6292998 16.1741145,63.6953352 C18.3818105,64.5360786 20.6560703,65.0788575 23.0032331,65.314008 C28.3140654,65.8487337 33.4093581,64.9194061 38.3509204,62.9608926 C38.8136966,62.7788925 39.2717182,62.5823969 39.770946,62.3762376" id="Fill-17" stroke="none" fill="#000080" fill-rule="evenodd"></path>
                        <path d="M70.9404659,51.9630016 C70.9016291,51.7472642 70.8705597,51.5299635 70.8208487,51.3173528 C70.4480161,49.7352788 69.5485574,48.462741 68.454915,47.3152684 C66.5985193,45.3642522 64.3708443,43.9244398 62.0266592,42.6487754 C61.4192527,42.3189161 60.7994185,42.0109432 60.1485149,41.6732673 C60.2743459,41.4012507 60.3986234,41.1339239 60.5353287,40.8415842 C60.8537899,40.9994789 61.1473956,41.1417405 61.4378943,41.2902553 C63.5863423,42.3939552 65.6462426,43.6352267 67.4886571,45.214174 C68.8230872,46.3569567 70.0083843,47.6263679 70.7680308,49.2443981 C71.0445483,49.8384575 71.2698013,50.4590933 71.2868895,51.1141219 C71.2946568,51.4002084 71.1113475,51.6909849 71.0165858,51.980198 C70.9901769,51.9739448 70.9653214,51.9692548 70.9404659,51.9630016" id="Fill-19" stroke="none" fill="#000080" fill-rule="evenodd"></path>
                        <path d="M75,37.5 C75,58.2099525 58.2099525,75 37.5015909,75 C16.7900475,75 0,58.2099525 0,37.5 C0,16.7884566 16.7900475,0 37.5015909,0 C58.2099525,0 75,16.7884566 75,37.5 Z" id="Stroke-21" stroke="#000080" stroke-width="0.735148515" fill="none" stroke-linecap="round" stroke-linejoin="round"></path>
                    </g>
                </g>
                <g id="core-element-/draw-ball/illustrated/47" mask="url(#mask-2)">
                    <g transform="translate(28.000000, 29.000000)">
                        <path d="M98.019802,49.990099 C98.019802,77.05775 76.077552,99 49.009901,99 C21.9435802,99 -3.26849658e-13,77.05775 -3.26849658e-13,49.990099 C-3.26849658e-13,22.922448 21.9435802,0.98019802 49.009901,0.98019802 C76.077552,0.98019802 98.019802,22.922448 98.019802,49.990099" id="Fill-115" stroke="none" fill="#FFFFFF" fill-rule="evenodd"></path>
                        <path d="M99,49.4993367 C99,76.8366723 76.837999,99 49.4993367,99 C22.162001,99 0,76.8366723 0,49.4993367 C0,22.162001 22.162001,-0.00132666872 49.4993367,0 C76.837999,0 99,22.162001 99,49.4993367" id="Fill-117" stroke="none" fill="#FFFFFF" fill-rule="evenodd"></path>
                        <path d="M99,49.4993367 C99,76.8366723 76.837999,99 49.4993367,99 C22.162001,99 0,76.8366723 0,49.4993367 C0,22.162001 22.162001,-0.00132666872 49.4993367,0 C76.837999,0 99,22.162001 99,49.4993367 Z" id="Stroke-119" stroke="#000080" stroke-width="0.98019802" fill="none" stroke-linecap="round" stroke-linejoin="round"></path>
                        <path d="M17.060993,32.8792191 C17.0909911,32.9103471 17.1222934,32.9414752 17.1522915,32.9726033 C18.230918,32.7936169 19.3082402,32.6068485 20.388171,32.4408321 C20.6425025,32.401922 20.7324967,32.3007558 20.7729289,32.0491372 C21.0116093,30.5108917 21.2711578,28.9752402 21.5254894,27.4395888 C21.5685301,27.1814852 21.6233092,26.9259756 21.671567,26.669169 C21.6285262,26.64712 21.5854855,26.6237739 21.5411405,26.6017249 C20.047758,28.6937906 18.5556798,30.7871533 17.060993,32.8792191 M27.255122,20.5875223 C26.1882339,24.3125147 25.4330649,28.0504772 24.9413573,31.8947938 C25.7904333,31.8377257 26.59386,31.7845486 27.4455446,31.7274805 C27.3672887,32.425268 27.2929456,33.0607995 27.2264282,33.6976279 C27.1573022,34.3500204 27.0764378,35.0024129 27.0412227,35.6573993 C27.0255715,35.9816501 26.9055792,36.0672523 26.5977728,36.0750343 C25.9978113,36.0918953 25.399154,36.1658245 24.7991925,36.1917646 C24.5396439,36.2034376 24.4548667,36.3059008 24.4418241,36.5510344 C24.3909578,37.5108165 24.3218318,38.4705987 24.2696612,39.4303809 C24.2592271,39.6301193 24.229229,39.7494436 23.9853316,39.7740867 C22.7410636,39.9011929 21.5007083,40.0464573 20.2590488,40.1852366 C20.2016612,40.1917216 20.1442736,40.1852366 20.0268898,40.1852366 C20.0999286,39.02831 20.1716631,37.8895414 20.2447019,36.7092687 C17.702691,37.0529745 15.2311103,37.5575086 12.7425743,38.2345442 C12.8025704,37.5562116 12.8534367,36.9284622 12.9160414,36.3020098 C12.9695162,35.7663476 13.0242953,35.2293884 13.1051597,34.6963202 C13.1351578,34.4952847 13.2134136,34.2877643 13.3177548,34.1113719 C15.791944,29.8727663 18.640457,25.8974523 21.8228616,22.1530048 C22.4684724,21.3942581 23.1375599,20.9403071 24.1496689,20.9001 C25.0652624,20.8637839 25.9743345,20.6964705 26.8873195,20.5901163 C26.9903563,20.5784433 27.0946975,20.5875223 27.255122,20.5875223" id="Fill-121" stroke="none" fill="#000080" fill-rule="evenodd"></path>
                        <path d="M29.5253029,24.7822888 C29.8756053,23.4275492 30.1947697,22.1560765 30.5450721,20.8938557 C30.5749127,20.7881199 30.8123399,20.6810624 30.9550557,20.6797407 C33.4045777,20.634803 35.8566945,20.5568229 38.3075139,20.5938304 C40.3924619,20.6242294 42.4748151,20.7907633 44.5610605,20.8991425 C44.7232375,20.9070726 44.8841171,20.9308632 45.0891089,20.953332 C45.0657554,21.0881452 45.0527813,21.2004894 45.0255355,21.3088686 C44.7764316,22.3041066 44.5325173,23.3006663 44.2652496,24.2906175 C44.2094607,24.4981239 44.095288,24.7135606 43.9473826,24.8642341 C41.7262058,27.1335882 39.7761891,29.6197006 38.1868542,32.3860129 C36.8453257,34.7188084 35.7567934,37.1771652 34.8810374,39.7293625 C34.7577829,40.0848991 34.6020929,40.1906349 34.2349241,40.1853481 C32.7441928,40.1642009 31.2547588,40.1840264 29.7666223,40.1881188 C29.6732084,40.1893132 29.5823892,40.1800613 29.4059406,40.1734528 C31.3624444,34.4002794 34.2517905,29.246982 38.3620054,24.7095955 C35.4025988,24.6104682 32.5106578,24.6435106 29.5253029,24.7822888" id="Fill-123" stroke="none" fill="#000080" fill-rule="evenodd"></path>
                        <path d="M90.5560976,46.3367921 C90.9031206,44.3677404 91.1703683,42.4383606 91.2474845,40.4574073 C90.113344,41.8472484 89.0097841,43.2013847 87.8982466,44.5647778 C88.773117,45.1479557 89.6453282,45.7311335 90.5560976,46.3367921 M90.9815665,34.3069307 C91.5027659,34.7115847 91.9920551,35.0924356 92.4813443,35.4732864 C92.5012882,35.4878328 92.5199024,35.5037016 92.5371871,35.5195703 C93.6726572,36.4928558 93.6660092,36.4928558 93.7285,37.9779096 C93.8707661,41.3473816 93.6460654,44.6904057 93.0583865,48.010949 C93.01451,48.2555927 93.0504089,48.4407285 93.2551658,48.5676788 C94.1247179,49.0992831 94.2523585,49.8173456 93.9532007,50.753604 C93.6553725,51.6819279 93.4931625,52.6512462 93.2564954,53.6681708 C92.8323561,53.2780632 92.46273,52.9355619 92.0625234,52.567935 C91.7128411,53.6893292 91.3804436,54.7551826 91.0307613,55.8712871 C90.4497304,55.4071252 89.9272014,54.9905696 89.4046724,54.5753364 C89.133436,54.3611078 88.7159446,54.1958079 88.6255325,53.9233938 C88.5351204,53.6549468 88.7744466,53.2780632 88.8728363,52.9487859 C89.0603085,52.3312257 89.2198594,51.7030863 89.4512081,51.1013948 C89.6067701,50.6914512 89.4817886,50.5010258 89.1440727,50.269606 C87.3703993,49.0516768 85.5262576,47.9554082 83.6143068,46.9688987 C83.3457295,46.8300469 83.2646245,46.7057414 83.3483887,46.3923329 C83.6236139,45.3661514 83.8483147,44.326746 84.1102439,43.2965974 C84.15545,43.1233632 84.2578285,42.9421945 84.3854691,42.8178891 C86.3532627,40.9096677 88.1841085,38.88772 89.6692609,36.5774893 C90.0707971,35.9546395 90.4178202,35.2974074 90.7887759,34.656044 C90.8472779,34.5542193 90.9017911,34.4523946 90.9815665,34.3069307" id="Fill-125" stroke="none" fill="#000080" fill-rule="evenodd"></path>
                        <path d="M52.3323781,92.8368862 C50.8726492,93.1752322 49.5203688,93.4889477 48.1693988,93.8026631 C48.1523643,93.8350717 48.1353297,93.866184 48.1169848,93.8985926 C49.0289879,94.6258421 49.9383702,95.3530916 50.9185114,96.1373802 C51.412513,94.9836333 51.8580317,93.9452611 52.3323781,92.8368862 M39.2773693,92.4985402 C40.053096,92.4544644 40.8301331,92.4090924 41.6792393,92.3611276 C41.1773756,91.7064735 40.7239948,91.1166365 40.2299931,90.4710568 C40.9100644,90.3906834 41.516756,90.3297552 42.1195167,90.2454928 C42.8808295,90.1391925 43.6408321,90.0225215 44.3982139,89.892887 C44.6393181,89.8514039 44.7834565,89.9058504 44.9302156,90.1106729 C45.2682857,90.5903205 45.6495973,91.0388558 45.9981502,91.5133181 C46.1304955,91.69351 46.2680822,91.731104 46.4803587,91.689621 C49.3303682,91.1231183 52.1148602,90.340126 54.8168002,89.2745305 C55.161422,89.1384143 55.3501123,89.1721192 55.578113,89.4715749 C55.9332177,89.938259 56.3590812,90.3517931 56.7351514,90.8029211 C56.816393,90.8975543 56.8779794,91.0829316 56.8399793,91.1892319 C56.1337011,93.1791212 55.3972849,95.1560472 54.3660401,97.0111167 C54.2101085,97.2924235 54.0240389,97.4453922 53.6912102,97.4868753 C52.3887232,97.6515111 51.0927878,97.8628153 49.7889904,98.0093022 C49.4548513,98.0481926 49.0748501,97.9755973 48.7590559,97.8485555 C46.9311188,97.1057499 45.3364239,95.9999677 43.9055226,94.6608434 C43.689315,94.4573173 43.4914522,94.3756476 43.1874512,94.4080562 C42.5755182,94.4741698 41.9583437,94.4897259 41.3437899,94.5156528 C41.2324103,94.5195418 41.0804098,94.5104674 41.013582,94.4417611 C40.4029592,93.82859 39.8080607,93.2011591 39.2079208,92.5776172 C39.2315071,92.5516903 39.2550934,92.5244671 39.2773693,92.4985402" id="Fill-127" stroke="none" fill="#000080" fill-rule="evenodd"></path>
                        <path d="M11.7697234,49.009901 C11.7697234,48.6048919 11.7457714,48.2488101 11.7843607,47.8995238 C11.7963367,47.7962329 11.9640007,47.6562465 12.0837607,47.6263465 C13.8362485,47.1914375 15.5767602,46.6967284 17.3465466,46.361033 C23.995887,45.0997967 30.7077688,44.9000103 37.4449332,45.2302694 C39.5580315,45.3335603 41.6671379,45.5333466 43.7789056,45.6910012 C43.8840283,45.6991557 43.9878202,45.7249784 44.1089109,45.7467239 L44.1089109,47.0283466 C43.6684603,46.9916511 43.242647,46.960392 42.8181644,46.9182602 C37.8401411,46.4385011 32.8528031,46.2740511 27.8574812,46.4915057 C22.9672818,46.7048829 18.1223252,47.2716238 13.3771685,48.5491692 C12.8568779,48.6891556 12.34191,48.845451 11.7697234,49.009901" id="Fill-129" stroke="none" fill="#000080" fill-rule="evenodd"></path>
                        <path d="M94.8990024,38.2277228 C95.3587357,38.9017366 95.8415164,39.5596386 96.2745633,40.2551349 C97.0472549,41.4984353 97.6525503,42.8491483 97.8223726,44.3502389 C98.0395026,46.2514413 98.1256268,48.1647276 97.8284377,50.0806992 C97.3323139,53.272195 96.3497704,56.2878027 95.1840613,59.2389629 C94.9875526,59.7384313 94.7704226,60.2285011 94.5593577,60.7225989 C94.5460146,60.7507947 94.5108371,60.7669066 94.504772,60.7722772 C94.0462517,60.0875221 93.5853054,59.410823 93.1413412,58.7220399 C93.0976726,58.6535644 93.124359,58.4937882 93.1631755,58.3998022 C93.9661926,56.4865159 94.8056001,54.5906842 95.5782918,52.661286 C96.3073148,50.8406431 96.8022256,48.9273568 97.2376986,46.992588 C97.340805,46.5401125 97.2862192,46.15477 97.054533,45.7935952 C96.4043561,44.7758612 95.739623,43.7675257 95.085807,42.752477 C95.013026,42.6410365 94.9196237,42.5094561 94.9159846,42.384589 C94.8795941,41.0164215 94.8601859,39.6482539 94.8359255,38.2814291 C94.8577598,38.2626319 94.8771681,38.2451773 94.8990024,38.2277228" id="Fill-131" stroke="none" fill="#000080" fill-rule="evenodd"></path>
                        <path d="M30.3861386,90.1782178 C31.0244927,90.2580689 31.6053012,90.3480598 32.1928011,90.4000263 C33.1309273,90.4849473 34.07173,90.5483212 35.013871,90.6078926 C35.2092582,90.6205674 35.3310406,90.6585917 35.3658356,90.861388 C35.6107388,92.3177193 35.8743777,93.7740505 36.1032216,95.2341842 C36.1594288,95.5890778 36.1125894,95.9591812 36.1125894,96.3964608 C36.5876748,96.4750444 37.1510858,96.5751751 37.7171733,96.662631 C39.7633859,96.9744304 41.822981,97.1201903 43.8959589,97.1138529 C44.025771,97.1138529 44.1716422,97.1189228 44.2840568,97.1696219 C44.8916307,97.4433969 45.4898367,97.7336492 46.0693069,98.0074243 C45.3399506,98.0074243 44.5851672,98.0391112 43.8357368,98.0010869 C41.3773376,97.8806766 38.9523952,97.523248 36.5742921,96.9275337 C34.9496341,96.5206736 33.3343441,96.0795915 31.808718,95.3900839 C31.574521,95.2836158 31.499578,95.1682754 31.4915484,94.9033727 C31.4768274,94.4027192 31.4005461,93.8982633 31.280102,93.4102846 C31.0432284,92.4634792 30.7581773,91.5268135 30.4945384,90.5863455 C30.4624199,90.4684701 30.4316397,90.3505947 30.3861386,90.1782178" id="Fill-133" stroke="none" fill="#000080" fill-rule="evenodd"></path>
                        <path d="M52.4898928,83.3168317 C52.6368262,83.6003316 52.7744936,83.8650212 52.9306931,84.165988 C52.7890545,84.2318245 52.6738905,84.2882557 52.5574027,84.3393126 C48.2804485,86.1827342 43.8512659,87.4430326 39.2248484,87.9576321 C33.7538946,88.5635964 28.3769252,88.1390183 23.1283571,86.3896488 C22.5962198,86.2109498 22.0826147,85.9596963 21.5412113,85.8186181 C20.9998079,85.6775399 20.7813934,85.2919262 20.5841584,84.7880756 C21.1864531,85.0084263 21.7516835,85.2207153 22.3208851,85.4235992 C25.5044428,86.5575991 28.791251,87.1568454 32.1548353,87.3409189 C37.4285541,87.627106 42.5619582,86.8303502 47.5696084,85.1844381 C49.1263085,84.6725258 50.6406495,84.0262534 52.1735226,83.440443 C52.2714782,83.4028222 52.3694338,83.3638577 52.4898928,83.3168317" id="Fill-135" stroke="none" fill="#000080" fill-rule="evenodd"></path>
                        <path d="M79.3960396,56.002914 C79.574803,55.6296958 79.7393172,55.2851867 79.9284437,54.8910891 C80.9777073,55.4470015 82.0023585,55.9624602 83.001102,56.5222876 C85.5245161,57.9381678 87.9274592,59.5354373 90.0376448,61.539854 C91.400392,62.835678 92.5999205,64.260693 93.4043559,65.9871534 C93.7709505,66.7701287 94.0727757,67.5883378 94.0986834,68.4535255 C94.1090465,68.8410982 93.8706953,69.2351957 93.672501,69.5940594 C93.5364854,69.0498916 93.4354452,68.4939792 93.2579772,67.9641659 C92.6815299,66.2259609 91.6270848,64.7878963 90.3861039,63.4816326 C88.003887,60.9735019 85.1540353,59.102191 82.1539188,57.4461984 C81.2613971,56.9542289 80.3481491,56.5001033 79.3960396,56.002914" id="Fill-137" stroke="none" fill="#000080" fill-rule="evenodd"></path>
                    </g>
                </g>
                <g id="core-element/draw-ball/illustrated/01" mask="url(#mask-2)">
                    <g transform="translate(236.000000, 56.500000)">
                        <path d="M53.4545455,26.7272727 C53.4545455,41.4880037 41.4882566,53.4545455 26.7278377,53.4545455 C11.9662888,53.4545455 0,41.4880037 0,26.7272727 C0,11.9665418 11.9662888,0 26.7278377,0 C41.4882566,0 53.4545455,11.9665418 53.4545455,26.7272727" id="Fill-23" stroke="none" fill="#FFFFFF" fill-rule="evenodd"></path>
                        <path d="M54,27 C54,41.9117684 41.9122763,54 27,54 C12.0888581,54 0,41.9117684 0,27 C0,12.0882316 12.0888581,0 27,0 C41.9122763,0 54,12.0882316 54,27" id="Fill-25" stroke="none" fill="#FFFFFF" fill-rule="evenodd"></path>
                        <path d="M54,27 C54,41.9117684 41.9122763,54 27,54 C12.0888581,54 0,41.9117684 0,27 C0,12.0882316 12.0888581,0 27,0 C41.9122763,0 54,12.0882316 54,27 Z" id="Stroke-27" stroke="#000080" stroke-width="0.54" fill="none" stroke-linecap="round" stroke-linejoin="round"></path>
                        <path d="M33.0566994,40.3283644 C33.0927571,40.5239715 33.1231808,40.8563905 33.2200858,41.1695879 C33.3564289,41.6139439 33.6753141,41.8875677 34.1406836,41.963323 C34.7457766,42.0628226 35.2990367,41.9384482 35.7835618,41.547234 C36.1723087,41.2317752 36.4269661,40.8168168 36.616269,40.364546 C36.9306469,39.612646 37.0636096,38.8189108 37.0838921,38.0082156 C37.0951601,37.5570755 37.0320592,37.1115889 36.8292347,36.7000225 C36.6117618,36.2635813 36.2590725,36.0204857 35.7756742,35.9696053 C34.8798661,35.8757591 34.2454762,36.2782801 33.8263056,37.0380949 C33.2865671,38.0161303 33.1265612,39.0936653 33.0566994,40.3283644 M30.004191,40.2435636 C30.009825,39.0201713 30.249834,37.8431368 30.7512612,36.7260281 C31.3349449,35.4268804 32.2115974,34.3934418 33.5164349,33.7794843 C34.6680272,33.2367594 35.8782132,33.1248224 37.0985405,33.4685482 C38.6670498,33.9095121 39.4591921,35.0548877 39.7341319,36.6050457 C39.9200544,37.643007 39.7780772,38.6651388 39.4986302,39.6703105 C39.1650966,40.8710893 38.5453551,41.9022665 37.6179965,42.7321833 C36.4652774,43.7644912 35.102973,44.2405061 33.5648874,44.1760576 C32.6713329,44.1376146 31.8363721,43.8979111 31.1524029,43.2805615 C30.3816699,42.5851953 30.0864476,41.6727391 30.0053178,40.6698288 C29.9940498,40.5284942 30.004191,40.3848982 30.004191,40.2435636" id="Fill-29" stroke="none" fill="#000080" fill-rule="evenodd"></path>
                        <path d="M42.1163546,43.0909091 C42.8575925,40.7638788 43.3311935,38.4152598 43.6337396,35.9814224 C42.96232,36.4438742 42.3246459,36.8847374 41.6706809,37.336963 C41.6357717,37.267652 41.6078444,37.2244747 41.5915534,37.1778887 C41.3727893,36.5813599 41.1586798,35.9836949 40.9340975,35.3883024 C40.884061,35.2553617 40.9061702,35.1860507 41.0271886,35.0974236 C42.0732999,34.335003 43.1101021,33.5623562 44.1515589,32.7942544 C44.2248682,32.7408509 44.3051592,32.6840386 44.3912685,32.6624499 C45.011488,32.5022394 45.6340348,32.3499825 46.2577452,32.1954531 C46.2821816,32.1897719 46.3089453,32.1897719 46.3636364,32.1818182 C46.3531636,32.3692987 46.3438545,32.5420079 46.3322181,32.7158535 C46.2193451,34.399769 46.0226902,36.0745945 45.7247986,37.7369213 C45.4478526,39.2765337 45.0836336,40.7956936 44.6053781,42.2887199 C44.5576689,42.4375681 44.4820323,42.5182415 44.3272684,42.5568738 C43.6535215,42.7227656 42.9809382,42.8977474 42.3071913,43.0670479 C42.2571549,43.0795466 42.2036275,43.0806829 42.1163546,43.0909091" id="Fill-31" stroke="none" fill="#000080" fill-rule="evenodd"></path>
                        <path d="M5.80878005,28.4571718 L4.4183515,28.4571718 C4.40555258,28.1741355 4.38344535,27.8831743 4.37879119,27.5910809 C4.36948289,27.0442549 4.37064642,26.4974289 4.36363636,25.9506029 C4.36250165,25.8385205 4.39624427,25.7887062 4.52190643,25.7807811 C5.30962202,25.7354953 6.09733761,25.6800202 6.88621673,25.6369987 C6.97115504,25.631338 7.07121936,25.6641702 7.14219521,25.709456 C7.62971785,26.0196637 8.11025927,26.3411929 8.59778191,26.6491363 C8.71878992,26.72499 8.75718669,26.787258 8.70366392,26.9299083 C7.93689203,28.9632406 7.43307984,31.0565766 7.2294606,33.2144448 C7.11427028,34.4303685 7.10612551,35.6474243 7.20269921,36.8644801 C7.20735337,36.9267481 7.20968044,36.9901482 7.21549814,37.0909091 C7.11892444,37.0343018 7.05027566,36.9969411 6.98744458,36.9550517 C6.44872624,36.590501 5.90884436,36.2282146 5.37710725,35.8546068 C5.30380433,35.8025281 5.24213679,35.6915779 5.23399202,35.6021385 C5.1339277,34.5232044 5.1339277,33.4431381 5.21072124,32.3630718 C5.30147725,31.0995981 5.49462465,29.8519743 5.78783636,28.6190685 C5.80063528,28.5635934 5.80296236,28.505854 5.80878005,28.4571718" id="Fill-33" stroke="none" fill="#000080" fill-rule="evenodd"></path>
                        <path d="M32.5753972,1.22642879 C32.394763,1.23397123 32.2697959,1.23828119 32.1459649,1.24474613 C32.1141551,1.24690112 32.0800731,1.25121108 32.0493994,1.25875352 C31.8017374,1.31693802 31.7290293,1.45916682 31.8414996,1.674665 C31.8812619,1.75116685 31.9278405,1.82982369 31.9880519,1.89339565 C32.2084484,2.12182372 32.4254367,2.35348426 32.6617381,2.56682746 C33.3092948,3.14975003 34.0306956,3.62276853 34.9145537,3.83072428 C35.3167204,3.92554347 35.7245675,3.98372798 36.1369589,3.90399366 C36.4811864,3.83611173 36.598201,3.63354344 36.4596011,3.32753603 C36.385757,3.1648349 36.2846472,3.00536625 36.1630884,2.87067989 C35.2087943,1.80611889 33.967076,1.31370555 32.5753972,1.22642879 M30.8724368,0.545454545 C33.2377227,0.676908434 35.5121235,1.20918894 37.5604475,2.44830346 C38.1262075,2.78986807 38.6328922,3.20577956 38.9896164,3.75422242 C39.1134474,3.94493831 39.2020604,4.16690143 39.2531833,4.38670958 C39.3304357,4.71965426 39.1736588,4.97932957 38.8714657,5.15603807 C38.4977006,5.37476873 38.0773568,5.43834069 37.6501966,5.45019309 C36.4425602,5.4846728 35.2655975,5.31335174 34.1147644,4.96963215 C32.7083167,4.54833321 31.424564,3.90938111 30.3021325,2.99890131 C29.9420001,2.70690128 29.6136775,2.3728791 29.2955795,2.03670194 C29.1512993,1.88369823 29.0467814,1.6865174 28.9638487,1.49472402 C28.8411537,1.20918894 28.9240864,0.959211048 29.2183271,0.836377086 C29.5057514,0.715698106 29.8215772,0.648893671 30.1328589,0.591786654 C30.3623439,0.549764509 30.6020534,0.559461927 30.8724368,0.545454545" id="Fill-35" stroke="none" fill="#000080" fill-rule="evenodd"></path>
                        <path d="M26.9730586,3.91578346 C27.3837435,3.66363541 27.7888025,3.42772006 28.175859,3.17016109 C28.4031421,3.01865582 28.5977955,2.99701221 28.8475819,3.1312026 C29.3437793,3.39958336 29.8568541,3.63766307 30.3643031,3.88981113 C30.4194362,3.91686564 30.4689434,3.95365978 30.5454545,4.00127572 C30.3868064,4.09650761 30.2472861,4.17226024 30.116767,4.25991687 C29.3977872,4.74906246 28.683308,5.24145459 27.9643281,5.73060018 C27.8911925,5.78038048 27.812431,5.82583206 27.7291688,5.85288657 C27.0158148,6.07798012 26.2990853,6.29225186 25.5891067,6.52275631 C25.4315838,6.57361879 25.3618236,6.5400712 25.2808118,6.41129172 C24.5652074,5.27067346 23.7427125,4.21013656 22.7323151,3.29136531 C22.1798596,2.78923356 21.5835226,2.342293 20.9061738,2.00357051 C20.8566666,1.97868035 20.81166,1.94729712 20.7272727,1.89535245 C21.2144688,1.73627192 21.6634092,1.58260229 22.1179755,1.44408318 C22.5320359,1.31963242 22.9483466,1.20383911 23.3680328,1.10319632 C23.4737983,1.07722399 23.6144438,1.0934567 23.7100827,1.14215482 C24.9297606,1.76981952 25.9109037,2.6647828 26.7784052,3.6863612 C26.8436647,3.76211383 26.9077991,3.83894865 26.9730586,3.91578346" id="Fill-37" stroke="none" fill="#000080" fill-rule="evenodd"></path>
                        <path d="M1.00413901,27.7325054 C1.03400128,28.0399311 1.05191864,28.494784 1.12956054,28.9404941 C1.18211814,29.2399198 1.31231763,29.5290599 1.42698875,29.8147715 C1.45565653,29.8844852 1.56793866,29.9724843 1.63483015,29.967913 C1.70291612,29.9633416 1.78891946,29.8639139 1.82117071,29.7884861 C1.89403465,29.6124877 1.95853715,29.4284895 1.9919829,29.2422055 C2.10545952,28.6010687 2.22849207,27.9599319 2.30374499,27.3142236 C2.40049875,26.4788029 2.4721682,25.6399537 2.51755885,24.8011044 C2.53786519,24.4285365 2.47455718,24.0502544 2.2643268,23.7176861 C2.12337688,23.494831 1.96331512,23.4754026 1.81639275,23.681115 C1.69455469,23.8513991 1.59780093,24.0468258 1.52852047,24.2445382 C1.15225587,25.3279566 1.04594619,26.4525175 1.00413901,27.7325054 M0.545454545,27.1050828 C0.56695538,25.4422413 0.712683257,23.8719703 1.21914735,22.3542703 C1.3553193,21.9462742 1.58346705,21.5645635 1.7841415,21.1771385 C1.84028257,21.0685681 1.94181428,20.9771404 2.03737355,20.8937126 C2.28582763,20.6731433 2.58206135,20.6651434 2.80184765,20.9097125 C2.98221576,21.1119963 3.14347202,21.3428513 3.25455967,21.5862775 C3.71921658,22.6079822 3.79924747,23.695972 3.81597034,24.7919617 C3.83866566,26.2239482 3.68457635,27.6433634 3.45045616,29.0536358 C3.31189522,29.8970565 3.14347202,30.7359057 2.95474248,31.5701836 C2.88904548,31.8604666 2.75167904,32.1450353 2.59639524,32.4044615 C2.34794115,32.8250289 2.0170672,32.8307432 1.7064996,32.4444611 C1.36606972,32.0181794 1.18809059,31.5187555 1.04355721,31.0101889 C0.670876079,29.7062011 0.570538852,28.3702137 0.545454545,27.1050828" id="Fill-39" stroke="none" fill="#000080" fill-rule="evenodd"></path>
                        <path d="M43.6363636,44.7272727 C43.5800193,45.0612353 43.4459199,45.2473366 43.1439145,45.34931 C41.5121836,45.8974166 39.8511537,46.2759925 38.1653323,46.5245525 C35.6704067,46.8916564 33.1653392,46.9681364 30.6535104,46.8699871 C30.1610612,46.8508671 29.6697389,46.8113524 29.1784167,46.7794858 C29.0950271,46.7743871 29.0116375,46.7590911 28.9090909,46.7463444 C28.9631814,46.5895604 29.0014956,46.4493471 29.0612205,46.3218805 C29.0848851,46.2759925 29.1637671,46.2377525 29.2156039,46.2415765 C30.904806,46.3741418 32.5962618,46.4174805 34.2888445,46.3537472 C37.4035573,46.2377525 40.4765754,45.8196619 43.4673307,44.7744354 C43.5191675,44.7553154 43.5755118,44.7438434 43.6363636,44.7272727" id="Fill-41" stroke="none" fill="#000080" fill-rule="evenodd"></path>
                        <path d="M1.09130786,33.2738809 C1.30259099,33.6786155 1.50679201,34.1178446 1.75112502,34.5352273 C2.34248173,35.5447643 3.12387522,36.4071251 3.9855327,37.200497 C4.99237356,38.1260976 6.08892123,38.9390163 7.26691324,39.6427027 C7.55964071,39.8174745 7.597412,40.0554861 7.63636364,40.3636364 C7.39439133,40.2130107 7.17484573,40.0819318 6.96238224,39.9439541 C5.53533581,39.0126045 4.19799619,37.9766217 3.069579,36.704927 C2.18195376,35.7034387 1.45839755,34.6099652 1.09838997,33.316424 C1.09130786,33.2922779 1.0901275,33.266982 1.09130786,33.2738809" id="Fill-43" stroke="none" fill="#000080" fill-rule="evenodd"></path>
                        <path d="M30.5454545,0.0766152512 C30.0209343,0.0766152512 29.2579957,0.0650090389 28.4950572,0.0787254716 C26.5539833,0.115654329 24.6431479,0.359384787 22.770692,0.824688388 C21.830975,1.05892285 20.9087032,1.35224349 19.9759643,1.61391082 C19.8701299,1.64345391 19.7538283,1.6423988 19.6363636,1.61918637 C23.2289203,0.364660338 26.9319636,-0.221980938 30.5454545,0.0766152512" id="Fill-45" stroke="none" fill="#000080" fill-rule="evenodd"></path>
                    </g>
                </g>
            </g>
        </g>
    </g>
</svg>