<?xml version="1.0" encoding="UTF-8"?>
<svg width="472px" height="381px" viewBox="0 0 472 381" version="1.1" xmlns="http://www.w3.org/2000/svg" xmlns:xlink="http://www.w3.org/1999/xlink">
    <title>9916F1A0-F955-42C7-A491-C48D1C817922</title>
    <g id="Toolkit" stroke="none" stroke-width="1" fill="none" fill-rule="evenodd">
        <g id="Toolkit-1" transform="translate(-1984.000000, -4173.000000)">
            <g id="Group-24" transform="translate(1985.000000, 4174.000000)">
                <g id="core-element-/draw-ball/illustrated/47" transform="translate(0.000000, 157.000000)">
                    <path d="M98.019802,49.990099 C98.019802,77.05775 76.077552,99 49.009901,99 C21.9435802,99 -3.26849658e-13,77.05775 -3.26849658e-13,49.990099 C-3.26849658e-13,22.922448 21.9435802,0.98019802 49.009901,0.98019802 C76.077552,0.98019802 98.019802,22.922448 98.019802,49.990099" id="Fill-115" fill="#FFFFFF"></path>
                    <path d="M99,49.4993367 C99,76.8366723 76.837999,99 49.4993367,99 C22.162001,99 0,76.8366723 0,49.4993367 C0,22.162001 22.162001,-0.00132666872 49.4993367,0 C76.837999,0 99,22.162001 99,49.4993367" id="Fill-117" fill="#FFFFFF"></path>
                    <path d="M99,49.4993367 C99,76.8366723 76.837999,99 49.4993367,99 C22.162001,99 0,76.8366723 0,49.4993367 C0,22.162001 22.162001,-0.00132666872 49.4993367,0 C76.837999,0 99,22.162001 99,49.4993367 Z" id="Stroke-119" stroke="#000080" stroke-width="0.98019802" stroke-linecap="round" stroke-linejoin="round"></path>
                    <path d="M17.060993,32.8792191 C17.0909911,32.9103471 17.1222934,32.9414752 17.1522915,32.9726033 C18.230918,32.7936169 19.3082402,32.6068485 20.388171,32.4408321 C20.6425025,32.401922 20.7324967,32.3007558 20.7729289,32.0491372 C21.0116093,30.5108917 21.2711578,28.9752402 21.5254894,27.4395888 C21.5685301,27.1814852 21.6233092,26.9259756 21.671567,26.669169 C21.6285262,26.64712 21.5854855,26.6237739 21.5411405,26.6017249 C20.047758,28.6937906 18.5556798,30.7871533 17.060993,32.8792191 M27.255122,20.5875223 C26.1882339,24.3125147 25.4330649,28.0504772 24.9413573,31.8947938 C25.7904333,31.8377257 26.59386,31.7845486 27.4455446,31.7274805 C27.3672887,32.425268 27.2929456,33.0607995 27.2264282,33.6976279 C27.1573022,34.3500204 27.0764378,35.0024129 27.0412227,35.6573993 C27.0255715,35.9816501 26.9055792,36.0672523 26.5977728,36.0750343 C25.9978113,36.0918953 25.399154,36.1658245 24.7991925,36.1917646 C24.5396439,36.2034376 24.4548667,36.3059008 24.4418241,36.5510344 C24.3909578,37.5108165 24.3218318,38.4705987 24.2696612,39.4303809 C24.2592271,39.6301193 24.229229,39.7494436 23.9853316,39.7740867 C22.7410636,39.9011929 21.5007083,40.0464573 20.2590488,40.1852366 C20.2016612,40.1917216 20.1442736,40.1852366 20.0268898,40.1852366 C20.0999286,39.02831 20.1716631,37.8895414 20.2447019,36.7092687 C17.702691,37.0529745 15.2311103,37.5575086 12.7425743,38.2345442 C12.8025704,37.5562116 12.8534367,36.9284622 12.9160414,36.3020098 C12.9695162,35.7663476 13.0242953,35.2293884 13.1051597,34.6963202 C13.1351578,34.4952847 13.2134136,34.2877643 13.3177548,34.1113719 C15.791944,29.8727663 18.640457,25.8974523 21.8228616,22.1530048 C22.4684724,21.3942581 23.1375599,20.9403071 24.1496689,20.9001 C25.0652624,20.8637839 25.9743345,20.6964705 26.8873195,20.5901163 C26.9903563,20.5784433 27.0946975,20.5875223 27.255122,20.5875223" id="Fill-121" fill="#000080"></path>
                    <path d="M29.5253029,24.7822888 C29.8756053,23.4275492 30.1947697,22.1560765 30.5450721,20.8938557 C30.5749127,20.7881199 30.8123399,20.6810624 30.9550557,20.6797407 C33.4045777,20.634803 35.8566945,20.5568229 38.3075139,20.5938304 C40.3924619,20.6242294 42.4748151,20.7907633 44.5610605,20.8991425 C44.7232375,20.9070726 44.8841171,20.9308632 45.0891089,20.953332 C45.0657554,21.0881452 45.0527813,21.2004894 45.0255355,21.3088686 C44.7764316,22.3041066 44.5325173,23.3006663 44.2652496,24.2906175 C44.2094607,24.4981239 44.095288,24.7135606 43.9473826,24.8642341 C41.7262058,27.1335882 39.7761891,29.6197006 38.1868542,32.3860129 C36.8453257,34.7188084 35.7567934,37.1771652 34.8810374,39.7293625 C34.7577829,40.0848991 34.6020929,40.1906349 34.2349241,40.1853481 C32.7441928,40.1642009 31.2547588,40.1840264 29.7666223,40.1881188 C29.6732084,40.1893132 29.5823892,40.1800613 29.4059406,40.1734528 C31.3624444,34.4002794 34.2517905,29.246982 38.3620054,24.7095955 C35.4025988,24.6104682 32.5106578,24.6435106 29.5253029,24.7822888" id="Fill-123" fill="#000080"></path>
                    <path d="M90.5560976,46.3367921 C90.9031206,44.3677404 91.1703683,42.4383606 91.2474845,40.4574073 C90.113344,41.8472484 89.0097841,43.2013847 87.8982466,44.5647778 C88.773117,45.1479557 89.6453282,45.7311335 90.5560976,46.3367921 M90.9815665,34.3069307 C91.5027659,34.7115847 91.9920551,35.0924356 92.4813443,35.4732864 C92.5012882,35.4878328 92.5199024,35.5037016 92.5371871,35.5195703 C93.6726572,36.4928558 93.6660092,36.4928558 93.7285,37.9779096 C93.8707661,41.3473816 93.6460654,44.6904057 93.0583865,48.010949 C93.01451,48.2555927 93.0504089,48.4407285 93.2551658,48.5676788 C94.1247179,49.0992831 94.2523585,49.8173456 93.9532007,50.753604 C93.6553725,51.6819279 93.4931625,52.6512462 93.2564954,53.6681708 C92.8323561,53.2780632 92.46273,52.9355619 92.0625234,52.567935 C91.7128411,53.6893292 91.3804436,54.7551826 91.0307613,55.8712871 C90.4497304,55.4071252 89.9272014,54.9905696 89.4046724,54.5753364 C89.133436,54.3611078 88.7159446,54.1958079 88.6255325,53.9233938 C88.5351204,53.6549468 88.7744466,53.2780632 88.8728363,52.9487859 C89.0603085,52.3312257 89.2198594,51.7030863 89.4512081,51.1013948 C89.6067701,50.6914512 89.4817886,50.5010258 89.1440727,50.269606 C87.3703993,49.0516768 85.5262576,47.9554082 83.6143068,46.9688987 C83.3457295,46.8300469 83.2646245,46.7057414 83.3483887,46.3923329 C83.6236139,45.3661514 83.8483147,44.326746 84.1102439,43.2965974 C84.15545,43.1233632 84.2578285,42.9421945 84.3854691,42.8178891 C86.3532627,40.9096677 88.1841085,38.88772 89.6692609,36.5774893 C90.0707971,35.9546395 90.4178202,35.2974074 90.7887759,34.656044 C90.8472779,34.5542193 90.9017911,34.4523946 90.9815665,34.3069307" id="Fill-125" fill="#000080"></path>
                    <path d="M52.3323781,92.8368862 C50.8726492,93.1752322 49.5203688,93.4889477 48.1693988,93.8026631 C48.1523643,93.8350717 48.1353297,93.866184 48.1169848,93.8985926 C49.0289879,94.6258421 49.9383702,95.3530916 50.9185114,96.1373802 C51.412513,94.9836333 51.8580317,93.9452611 52.3323781,92.8368862 M39.2773693,92.4985402 C40.053096,92.4544644 40.8301331,92.4090924 41.6792393,92.3611276 C41.1773756,91.7064735 40.7239948,91.1166365 40.2299931,90.4710568 C40.9100644,90.3906834 41.516756,90.3297552 42.1195167,90.2454928 C42.8808295,90.1391925 43.6408321,90.0225215 44.3982139,89.892887 C44.6393181,89.8514039 44.7834565,89.9058504 44.9302156,90.1106729 C45.2682857,90.5903205 45.6495973,91.0388558 45.9981502,91.5133181 C46.1304955,91.69351 46.2680822,91.731104 46.4803587,91.689621 C49.3303682,91.1231183 52.1148602,90.340126 54.8168002,89.2745305 C55.161422,89.1384143 55.3501123,89.1721192 55.578113,89.4715749 C55.9332177,89.938259 56.3590812,90.3517931 56.7351514,90.8029211 C56.816393,90.8975543 56.8779794,91.0829316 56.8399793,91.1892319 C56.1337011,93.1791212 55.3972849,95.1560472 54.3660401,97.0111167 C54.2101085,97.2924235 54.0240389,97.4453922 53.6912102,97.4868753 C52.3887232,97.6515111 51.0927878,97.8628153 49.7889904,98.0093022 C49.4548513,98.0481926 49.0748501,97.9755973 48.7590559,97.8485555 C46.9311188,97.1057499 45.3364239,95.9999677 43.9055226,94.6608434 C43.689315,94.4573173 43.4914522,94.3756476 43.1874512,94.4080562 C42.5755182,94.4741698 41.9583437,94.4897259 41.3437899,94.5156528 C41.2324103,94.5195418 41.0804098,94.5104674 41.013582,94.4417611 C40.4029592,93.82859 39.8080607,93.2011591 39.2079208,92.5776172 C39.2315071,92.5516903 39.2550934,92.5244671 39.2773693,92.4985402" id="Fill-127" fill="#000080"></path>
                    <path d="M11.7697234,49.009901 C11.7697234,48.6048919 11.7457714,48.2488101 11.7843607,47.8995238 C11.7963367,47.7962329 11.9640007,47.6562465 12.0837607,47.6263465 C13.8362485,47.1914375 15.5767602,46.6967284 17.3465466,46.361033 C23.995887,45.0997967 30.7077688,44.9000103 37.4449332,45.2302694 C39.5580315,45.3335603 41.6671379,45.5333466 43.7789056,45.6910012 C43.8840283,45.6991557 43.9878202,45.7249784 44.1089109,45.7467239 L44.1089109,47.0283466 C43.6684603,46.9916511 43.242647,46.960392 42.8181644,46.9182602 C37.8401411,46.4385011 32.8528031,46.2740511 27.8574812,46.4915057 C22.9672818,46.7048829 18.1223252,47.2716238 13.3771685,48.5491692 C12.8568779,48.6891556 12.34191,48.845451 11.7697234,49.009901" id="Fill-129" fill="#000080"></path>
                    <path d="M94.8990024,38.2277228 C95.3587357,38.9017366 95.8415164,39.5596386 96.2745633,40.2551349 C97.0472549,41.4984353 97.6525503,42.8491483 97.8223726,44.3502389 C98.0395026,46.2514413 98.1256268,48.1647276 97.8284377,50.0806992 C97.3323139,53.272195 96.3497704,56.2878027 95.1840613,59.2389629 C94.9875526,59.7384313 94.7704226,60.2285011 94.5593577,60.7225989 C94.5460146,60.7507947 94.5108371,60.7669066 94.504772,60.7722772 C94.0462517,60.0875221 93.5853054,59.410823 93.1413412,58.7220399 C93.0976726,58.6535644 93.124359,58.4937882 93.1631755,58.3998022 C93.9661926,56.4865159 94.8056001,54.5906842 95.5782918,52.661286 C96.3073148,50.8406431 96.8022256,48.9273568 97.2376986,46.992588 C97.340805,46.5401125 97.2862192,46.15477 97.054533,45.7935952 C96.4043561,44.7758612 95.739623,43.7675257 95.085807,42.752477 C95.013026,42.6410365 94.9196237,42.5094561 94.9159846,42.384589 C94.8795941,41.0164215 94.8601859,39.6482539 94.8359255,38.2814291 C94.8577598,38.2626319 94.8771681,38.2451773 94.8990024,38.2277228" id="Fill-131" fill="#000080"></path>
                    <path d="M30.3861386,90.1782178 C31.0244927,90.2580689 31.6053012,90.3480598 32.1928011,90.4000263 C33.1309273,90.4849473 34.07173,90.5483212 35.013871,90.6078926 C35.2092582,90.6205674 35.3310406,90.6585917 35.3658356,90.861388 C35.6107388,92.3177193 35.8743777,93.7740505 36.1032216,95.2341842 C36.1594288,95.5890778 36.1125894,95.9591812 36.1125894,96.3964608 C36.5876748,96.4750444 37.1510858,96.5751751 37.7171733,96.662631 C39.7633859,96.9744304 41.822981,97.1201903 43.8959589,97.1138529 C44.025771,97.1138529 44.1716422,97.1189228 44.2840568,97.1696219 C44.8916307,97.4433969 45.4898367,97.7336492 46.0693069,98.0074243 C45.3399506,98.0074243 44.5851672,98.0391112 43.8357368,98.0010869 C41.3773376,97.8806766 38.9523952,97.523248 36.5742921,96.9275337 C34.9496341,96.5206736 33.3343441,96.0795915 31.808718,95.3900839 C31.574521,95.2836158 31.499578,95.1682754 31.4915484,94.9033727 C31.4768274,94.4027192 31.4005461,93.8982633 31.280102,93.4102846 C31.0432284,92.4634792 30.7581773,91.5268135 30.4945384,90.5863455 C30.4624199,90.4684701 30.4316397,90.3505947 30.3861386,90.1782178" id="Fill-133" fill="#000080"></path>
                    <path d="M52.4898928,83.3168317 C52.6368262,83.6003316 52.7744936,83.8650212 52.9306931,84.165988 C52.7890545,84.2318245 52.6738905,84.2882557 52.5574027,84.3393126 C48.2804485,86.1827342 43.8512659,87.4430326 39.2248484,87.9576321 C33.7538946,88.5635964 28.3769252,88.1390183 23.1283571,86.3896488 C22.5962198,86.2109498 22.0826147,85.9596963 21.5412113,85.8186181 C20.9998079,85.6775399 20.7813934,85.2919262 20.5841584,84.7880756 C21.1864531,85.0084263 21.7516835,85.2207153 22.3208851,85.4235992 C25.5044428,86.5575991 28.791251,87.1568454 32.1548353,87.3409189 C37.4285541,87.627106 42.5619582,86.8303502 47.5696084,85.1844381 C49.1263085,84.6725258 50.6406495,84.0262534 52.1735226,83.440443 C52.2714782,83.4028222 52.3694338,83.3638577 52.4898928,83.3168317" id="Fill-135" fill="#000080"></path>
                    <path d="M79.3960396,56.002914 C79.574803,55.6296958 79.7393172,55.2851867 79.9284437,54.8910891 C80.9777073,55.4470015 82.0023585,55.9624602 83.001102,56.5222876 C85.5245161,57.9381678 87.9274592,59.5354373 90.0376448,61.539854 C91.400392,62.835678 92.5999205,64.260693 93.4043559,65.9871534 C93.7709505,66.7701287 94.0727757,67.5883378 94.0986834,68.4535255 C94.1090465,68.8410982 93.8706953,69.2351957 93.672501,69.5940594 C93.5364854,69.0498916 93.4354452,68.4939792 93.2579772,67.9641659 C92.6815299,66.2259609 91.6270848,64.7878963 90.3861039,63.4816326 C88.003887,60.9735019 85.1540353,59.102191 82.1539188,57.4461984 C81.2613971,56.9542289 80.3481491,56.5001033 79.3960396,56.002914" id="Fill-137" fill="#000080"></path>
                </g>
                <g id="core-element-/draw-ball/illustrated/19" transform="translate(196.000000, 240.000000)">
                    <path d="M112.105637,16.7475551 C141.626866,40.6659435 146.170101,83.9861878 122.251779,113.50928 C98.3352376,143.030591 55.0133325,147.573838 25.4903225,123.65723 C-4.03090663,99.7388419 -8.57414116,56.4168167 15.3441809,26.8955057 C39.262503,-2.62580528 82.5826271,-7.17083338 112.105637,16.7475551" id="Fill-69" fill="#000080"></path>
                    <path d="M113.248636,15.5004072 C143.071574,39.6621201 147.662326,83.4251164 123.498877,113.249898 C99.337212,143.071111 55.5743025,147.661872 25.751364,123.50016 C-4.07157438,99.3384466 -8.66232643,55.5736661 15.5011229,25.7506687 C39.662788,-4.07232883 83.4256975,-8.66130577 113.248636,15.5004072" id="Fill-71" fill="#FFFFFF"></path>
                    <path d="M113.248636,15.5004072 C143.071574,39.6621201 147.662326,83.4251164 123.498877,113.249898 C99.337212,143.071111 55.5743025,147.661872 25.751364,123.50016 C-4.07157438,99.3384466 -8.66232643,55.5736661 15.5011229,25.7506687 C39.662788,-4.07232883 83.4256975,-8.66130577 113.248636,15.5004072 Z" id="Stroke-73" stroke="#000080" stroke-width="1.77906772" stroke-linecap="round" stroke-linejoin="round"></path>
                    <path d="M115.548467,52.6852472 C115.140594,52.4794792 114.580634,52.1176114 113.975738,51.9100695 C113.006177,51.5765835 112.226725,51.9012002 111.618373,52.7366892 C109.938492,55.0427099 111.17075,58.2640433 113.35356,59.4844604 C114.40435,60.0716087 115.347987,59.7948862 116.016829,58.7766894 C116.905161,57.4285543 117.062434,55.9225454 116.977748,54.359773 C116.969107,54.2089947 116.880965,54.0369301 116.777269,53.9251768 C116.431614,53.549118 116.060035,53.1978934 115.548467,52.6852472 M120.092097,75.8181818 C119.84841,74.9188338 119.62892,74.0833448 119.397331,73.2496296 C119.115622,72.2527192 118.833914,71.2558087 118.529738,70.2677676 C118.42777,69.9431508 118.486531,69.7817294 118.764783,69.5741875 C120.631318,68.1817058 121.956904,66.4167131 122.169481,63.9705574 C122.325026,62.175409 121.664826,60.5913503 120.817972,59.0746982 C120.691808,58.84587 120.546633,58.6294589 120.306403,58.4272386 C120.302946,58.5620521 120.294305,58.6968656 120.297761,58.8299053 C120.363436,61.2476792 119.616822,63.3851829 118.089028,65.2033915 C116.286439,67.3426691 113.910063,67.7151801 111.542329,66.225136 C109.146942,64.7173533 107.472246,62.5461462 106.373064,59.9101872 C104.992174,56.5895175 104.914401,53.228049 106.335042,49.9180225 C106.80686,48.818228 107.480887,47.7610063 108.251697,46.8545628 C109.931578,44.8784805 112.074637,44.5112911 114.445828,45.3538755 C116.236319,45.990692 117.741645,47.1117728 119.110438,48.4173352 C121.358921,50.567256 123.265207,53.0045424 124.564868,55.8799727 C126.586948,60.3589743 127.057038,64.9426338 125.185318,69.606117 C124.219213,72.0185694 122.779562,74.079797 120.598481,75.5183991 C120.453306,75.6159615 120.297761,75.6975592 120.092097,75.8181818" id="Fill-75" fill="#000080"></path>
                    <path d="M99.6249855,60.3737374 C99.8004744,60.5154804 99.9686512,60.628148 100.111236,60.7680738 C103.023255,63.6665373 105.997427,66.5086671 108.830841,69.4834537 C112.106634,72.9234484 115.044246,76.6523808 117.747872,80.5557661 C117.992825,80.9083065 118.016589,81.1481793 117.738732,81.4916336 C116.32568,83.2434323 114.934565,85.0152203 113.532482,86.7779223 C113.459361,86.8687832 113.364305,86.9378375 113.243656,87.0505051 C109.615057,81.7769369 105.505692,76.9413185 100.953948,72.3237663 C100.328769,74.4717185 99.729182,76.5306271 99.1131428,78.6495039 C98.4952756,78.4714165 97.9377327,78.309684 97.3783618,78.1497688 C95.9543424,77.7408946 94.532151,77.3174827 93.1026476,76.9304152 C92.7059695,76.8213821 92.5926329,76.7050801 92.7114535,76.2653132 C93.6291143,72.8362219 94.5102149,69.3980445 95.4077675,65.9653187 C95.4699199,65.7381664 95.5393842,65.4928419 95.680141,65.3129373 C96.9067353,63.7428605 98.1479538,62.1818698 99.3891722,60.6208791 C99.4494965,60.5427387 99.5262729,60.4773188 99.6249855,60.3737374" id="Fill-77" fill="#000080"></path>
                    <path d="M37.7028949,116.335839 C37.6781906,116.360612 37.655251,116.385386 37.6287822,116.410159 C37.3835045,116.210201 37.1505789,115.994317 36.8911846,115.813824 C35.9577177,115.167942 34.9730778,114.67601 33.7837457,114.789261 C32.3773694,114.925516 31.8391701,115.854524 32.5344177,117.093202 C32.8820414,117.709001 33.3408342,118.280563 33.8313896,118.793729 C34.715448,119.720968 35.772436,120.368619 37.0958767,120.439401 C38.3363818,120.506643 39.2822008,120.004094 39.6915851,119.046773 C39.7586395,118.883976 39.7533457,118.592002 39.6509996,118.473442 C39.0228064,117.742623 38.3575569,117.045424 37.7028949,116.335839 M39.5345368,126.919455 C40.8368025,126.961924 42.0631909,127.034475 43.2878148,127.025627 C43.7024929,127.022088 44.1365814,126.859291 44.5247907,126.684106 C44.9959356,126.471761 45.2147445,126.047072 45.0982817,125.525058 C44.8424165,124.351853 44.0395291,123.523708 43.2789918,122.601778 C42.5113962,124.456256 40.9338548,124.55712 39.3616073,124.578354 C37.364094,124.604897 35.5765668,123.847534 33.910796,122.833588 C30.9815805,121.053431 28.6717353,118.676939 27.2106567,115.536007 C27.0147875,115.116626 26.863033,114.663624 26.7748036,114.208852 C26.3177754,111.867751 27.4806387,110.255701 29.8046006,109.75846 C33.0426189,109.063031 35.9488948,109.917718 38.6787118,111.566929 C41.1491345,113.056882 43.2878148,114.971524 45.2288612,117.10028 C46.7305253,118.749491 48.246306,120.398702 49.6191552,122.154085 C50.4308655,123.191035 51.1314068,124.373087 51.6166684,125.597609 C52.5183727,127.882085 51.5496141,129.556069 49.1744791,130.201951 C46.8328713,130.838985 44.5177323,130.577093 42.2061225,130.048001 C42.0984827,130.021458 41.973197,129.968372 41.9079072,129.885203 C41.1032553,128.892492 40.3074262,127.889163 39.5345368,126.919455" id="Fill-79" fill="#000080"></path>
                    <path d="M21.9525086,33.5396209 C23.9571243,33.5432757 25.5521389,32.7291779 26.7739999,31.1303191 C27.4248491,30.2777167 27.9698269,29.3426043 28.1416511,28.2333044 C28.3117397,27.1515078 27.7684975,26.4639251 26.7427591,26.5996081 C26.0988522,26.6857851 25.421969,26.9241471 24.87352,27.2835236 C23.6325675,28.0957879 22.9053519,29.381109 22.3603741,30.7819439 C22.0219325,31.6528819 21.8639931,32.5586574 21.9525086,33.5396209 M20.8295767,25.1015948 C20.685522,25.2904508 20.5779149,25.4389687 20.4651011,25.5783187 C19.2883656,27.006657 18.2574204,28.5431749 17.4659877,30.2465463 C17.2577159,30.6920998 17.0772137,31.1651566 16.9574575,31.6455477 C16.6190159,32.9950431 17.3149907,33.7981396 18.6184248,33.6349534 C18.9360392,29.947677 20.8313122,27.1515078 23.1795764,24.6395393 C24.7207874,22.9930081 26.527545,21.7516923 28.7109273,21.243798 C29.6967469,21.0127702 30.6912446,20.9632643 31.6683863,21.313473 C32.839915,21.7333568 33.4890286,22.6189632 33.646968,23.9042843 C33.8378838,25.4481364 33.4595234,26.8948102 32.8954541,28.2938117 C31.4254026,31.931582 29.4259936,35.1586364 26.3626631,37.5349219 C24.2469692,39.1741188 21.8691999,40.1587371 19.2727452,40.5034452 C18.1255149,40.6556302 16.9609287,40.668465 15.8032848,40.7161374 C15.5134399,40.7271388 15.2166527,40.648296 14.930279,40.5786209 C13.4550207,40.2265786 12.6826795,39.2437939 12.6392896,37.6449351 C12.5906928,35.9360631 13.1547622,34.3793761 13.7865199,32.8538595 C15.081276,29.7313177 16.9539863,27.0084906 19.0714159,24.4616846 C19.1651381,24.3498378 19.4306846,24.2746621 19.5487053,24.3333358 C19.9739268,24.5441945 20.3696432,24.8192275 20.8295767,25.1015948" id="Fill-81" fill="#000080"></path>
                    <path d="M44.9292929,8.43281222 C44.5922985,8.98871496 44.2465281,9.48246708 43.981496,10.0142001 C43.4040419,11.1674394 42.877488,12.3448483 42.3088098,13.5032667 C42.1701507,13.7881237 41.9788361,14.0626223 41.7611938,14.2956871 C40.6887791,15.4471999 39.5847712,16.574543 38.5193772,17.7346879 C38.2596106,18.0178185 38.0314372,18.1283085 37.6347667,18.0834219 C33.796189,17.641462 29.9541009,17.5620473 26.1488716,18.292317 C24.5639445,18.5978909 23.0316727,19.1606993 21.4783388,19.6078384 C21.3607418,19.6406401 21.2466551,19.6838003 21.0606061,19.6337345 C21.9013371,18.7446354 22.7368025,17.8520835 23.5827991,16.9664372 C23.865383,16.6712218 24.1988671,16.4174401 24.4621441,16.1049606 C25.2783025,15.1278148 26.3910864,14.6582323 27.5653015,14.2749702 C30.5052273,13.3168149 33.5381776,12.9421848 36.6202729,12.9197415 C36.9695536,12.9162887 37.1450716,12.8057987 37.3100584,12.5123097 C37.7506085,11.7285213 38.2209966,10.9602706 38.7019158,10.2023784 C38.8072266,10.0383698 39.0002964,9.87263484 39.1863454,9.82429547 C41.009977,9.3443546 42.8406293,8.89030981 44.6695264,8.43108581 C44.7274473,8.41554816 44.7941441,8.43108581 44.9292929,8.43281222" id="Fill-83" fill="#000080"></path>
                    <path d="M39.3131313,129.171717 C37.6140893,128.993819 35.9185184,128.9445 34.4381478,127.824269 C31.3836903,125.50983 28.5045171,123.005162 25.9169057,120.167596 C24.7610712,118.901171 23.695482,117.5502 22.5882412,116.23798 C22.4962604,116.127014 22.4008086,116.017809 22.2723825,115.868092 C21.9721433,116.243264 21.6996718,116.58497 21.3855486,116.979517 C20.856225,116.442299 20.3477272,115.956161 19.8774102,115.436557 C18.9124793,114.374451 17.9735808,113.287686 17.0103854,112.222057 C16.8055979,111.996602 16.7969204,111.823988 16.9739401,111.575635 C17.3956635,110.982053 17.800032,110.376142 18.1922521,109.761424 C18.3380331,109.534207 18.4924914,109.484889 18.7597565,109.530685 C19.630971,109.683924 20.5056566,109.817788 21.3838131,109.91114 C21.7048782,109.944606 21.8766915,110.071425 22.0346208,110.335631 C24.308109,114.122575 26.9339011,117.64003 29.9102617,120.88095 C32.6540669,123.868233 35.6668727,126.552561 38.9712403,128.891659 C39.090989,128.976205 39.2003246,129.078365 39.3131313,129.171717" id="Fill-85" fill="#000080"></path>
                    <path d="M111.423788,98.2828283 C111.23821,97.952642 111.036875,97.6789581 110.93008,97.3734916 C110.88456,97.2428296 110.989605,97.0026941 111.099901,96.8826264 C114.186455,93.5154321 117.118944,90.0175758 119.843094,86.3466808 C123.631694,81.2402697 127.019375,75.883129 129.720766,70.105751 C130.282753,68.9015421 130.776462,67.6637848 131.301684,66.4436845 C131.36471,66.2953655 131.43474,66.1505779 131.510022,65.989899 C132.010733,66.5761122 132.112276,67.1146514 131.809398,67.8597777 C130.06041,72.1363087 127.922757,76.2044868 125.49098,80.1190488 C122.20134,85.4108585 118.440752,90.3459965 114.373784,95.0480617 C113.591204,95.9521013 112.780611,96.831421 111.980523,97.7195693 C111.817705,97.9014366 111.635628,98.0691783 111.423788,98.2828283" id="Fill-87" fill="#000080"></path>
                    <path d="M63.1818182,130.999547 C62.5457289,131.174285 62.019732,131.327539 61.4884926,131.463606 C57.3643972,132.524926 53.1704019,133.289764 48.8278693,133.375701 C45.6334428,133.438721 42.5036739,133.147968 39.5434122,132.072325 C39.4682698,132.045112 39.3966223,132.012169 39.3249749,131.980659 C39.3127424,131.97493 39.3092474,131.956311 39.3179849,131.970633 C40.2686239,132.158262 41.2314953,132.387427 42.2153367,132.53352 C46.1367223,133.11789 50.0493704,132.908777 53.9148361,132.237038 C56.3648283,131.81165 58.7798706,131.248764 61.1756904,130.647206 C61.981287,130.445254 62.479324,130.705929 63.1818182,130.999547" id="Fill-89" fill="#000080"></path>
                    <path d="M5.61616162,43.4069529 C8.61647159,34.5049069 13.0942598,26.4727111 19.6565657,19.6565657 C19.0024283,20.4620469 18.3622459,21.2762266 17.6941536,22.0677901 C12.5186189,28.2037128 8.8380061,35.1607739 6.24587784,42.7197713 C6.14819333,43.0068219 5.9528243,43.2590784 5.80455317,43.5252525 C5.74175599,43.4852394 5.6789588,43.446966 5.61616162,43.4069529" id="Fill-91" fill="#000080"></path>
                </g>
                <g id="core-element-/draw-ball/illustrated/01" transform="translate(391.000000, 0.000000)">
                    <path d="M78.2020202,39.1010101 C78.2020202,60.6954128 60.6957828,78.2020202 39.1018366,78.2020202 C17.5062374,78.2020202 0,60.6954128 0,39.1010101 C0,17.5066074 17.5062374,0 39.1018366,0 C60.6957828,0 78.2020202,17.5066074 78.2020202,39.1010101" id="Fill-23" fill="#FFFFFF"></path>
                    <path d="M79,39.5 C79,61.3153649 61.3161079,79 39.5,79 C17.6855516,79 0,61.3153649 0,39.5 C0,17.6846351 17.6855516,0 39.5,0 C61.3161079,0 79,17.6846351 79,39.5" id="Fill-25" fill="#FFFFFF"></path>
                    <path d="M79,39.5 C79,61.3153649 61.3161079,79 39.5,79 C17.6855516,79 0,61.3153649 0,39.5 C0,17.6846351 17.6855516,0 39.5,0 C61.3161079,0 79,17.6846351 79,39.5 Z" id="Stroke-27" stroke="#000080" stroke-width="0.8" stroke-linecap="round" stroke-linejoin="round"></path>
                    <path d="M48.3607269,58.9989035 C48.413478,59.2850694 48.4579867,59.771386 48.5997551,60.2295823 C48.7992201,60.8796587 49.2657372,61.2799602 49.9465556,61.3907874 C50.8317843,61.5363516 51.6411833,61.3543964 52.3500256,60.7820645 C52.918748,60.3205599 53.2913023,59.7134912 53.5682454,59.0518359 C54.0281686,57.9518339 54.2226882,56.7906288 54.2523606,55.6046117 C54.2688453,54.9446105 54.176531,54.29288 53.8798063,53.6907737 C53.5616515,53.0522763 53.0456802,52.6966366 52.3384863,52.6222003 C51.0279522,52.4849068 50.0998633,53.0737801 49.4866323,54.185361 C48.6970149,55.6161906 48.4629321,57.1925844 48.3607269,58.9989035 M43.8950202,58.8748431 C43.9032625,57.0850654 44.2543868,55.3631075 44.9879562,53.7288188 C45.8418639,51.8282139 47.124374,50.3163315 49.0333029,49.4181345 C50.7180398,48.6241481 52.4884972,48.4603884 54.2737908,48.9632464 C56.5684618,49.6083604 57.7273366,51.2840024 58.1295634,53.551826 C58.401561,55.070325 58.1938537,56.565666 57.785033,58.036195 C57.2970857,59.7928898 56.3904269,61.301464 55.0337357,62.5156015 C53.3473503,64.0258297 51.3543494,64.7222219 49.1041871,64.6279361 C47.79695,64.5716954 46.5754333,64.221018 45.5748117,63.3178585 C44.4472578,62.3005635 44.0153585,60.9656739 43.8966687,59.4984532 C43.880184,59.2916859 43.8950202,59.0816104 43.8950202,58.8748431" id="Fill-29" fill="#000080"></path>
                    <path d="M61.6146669,63.040404 C62.6990705,59.6360449 63.3919313,56.2001023 63.834545,52.6394883 C62.852283,53.3160382 61.9193894,53.9610047 60.9626628,54.622594 C60.911592,54.5211947 60.8707353,54.4580278 60.8469023,54.3898742 C60.5268585,53.5171747 60.2136241,52.6428129 59.8850686,51.7717757 C59.8118671,51.5772884 59.8442119,51.475889 60.0212574,51.3462308 C61.5516795,50.2308377 63.0684828,49.1004841 64.5920954,47.9767796 C64.6993442,47.8986522 64.816807,47.8155379 64.9427817,47.7839545 C65.8501399,47.5495724 66.7609028,47.3268262 67.673368,47.1007555 C67.7091176,47.0924441 67.7482719,47.0924441 67.8282828,47.0808081 C67.8129616,47.3550851 67.7993427,47.6077523 67.7823191,47.8620819 C67.6171901,50.3255879 67.3294912,52.7757957 66.8936869,55.2077183 C66.4885251,57.4601141 65.9556862,59.6825888 65.2560161,61.866831 C65.1862193,62.0845903 65.0755658,62.2026125 64.8491519,62.2591302 C63.8634851,62.5018238 62.8795207,62.7578156 61.893854,63.0054961 C61.8206525,63.0237812 61.7423439,63.0254435 61.6146669,63.040404" id="Fill-31" fill="#000080"></path>
                    <path d="M8.49803007,41.6317883 L6.46388461,41.6317883 C6.44516026,41.2177168 6.41281819,40.7920513 6.40600934,40.3647295 C6.39239163,39.5647433 6.39409384,38.7647571 6.38383838,37.9647709 C6.38217835,37.8007986 6.43154255,37.727922 6.61538163,37.716328 C7.76778036,37.6500765 8.92017909,37.5689185 10.07428,37.5059796 C10.1985416,37.4976982 10.344932,37.5457305 10.4487671,37.6119819 C11.1619946,38.0658043 11.8650089,38.5361896 12.5782365,38.9866994 C12.7552667,39.0976706 12.8114398,39.1887663 12.733138,39.3974584 C11.6113791,42.3721482 10.8743205,45.4346213 10.5764331,48.5915026 C10.4079139,50.3703539 10.3959984,52.1508615 10.5372822,53.931369 C10.544091,54.0224648 10.5474955,54.1152168 10.5560065,54.2626263 C10.4147228,54.179812 10.3142922,54.1251545 10.2223726,54.0638719 C9.43424765,53.5305478 8.64442046,53.0005362 7.86650876,52.4539618 C7.75926929,52.3777727 7.66905196,52.2154566 7.65713647,52.08461 C7.51074608,50.5061694 7.51074608,48.9260724 7.62309219,47.3459754 C7.75586487,45.4975601 8.03843235,43.6723328 8.46739023,41.8686373 C8.48611458,41.7874792 8.489519,41.7030087 8.49803007,41.6317883" id="Fill-33" fill="#000080"></path>
                    <path d="M47.6565996,1.7942199 C47.3923384,1.8052542 47.2095162,1.81155952 47.028356,1.82101749 C46.9818195,1.82417015 46.9319589,1.83047547 46.8870843,1.84150977 C46.5247639,1.92663155 46.4183947,2.13470702 46.5829346,2.44997287 C46.6411053,2.56189225 46.7092482,2.67696429 46.7973352,2.76996771 C47.1197671,3.10414952 47.4372129,3.44306031 47.7829131,3.75517351 C48.7302645,4.60796764 49.7856473,5.29997619 51.0786989,5.60420774 C51.667054,5.74292471 52.2637192,5.82804649 52.8670324,5.71139813 C53.3706245,5.61208938 53.5418126,5.31573948 53.3390461,4.86806197 C53.2310148,4.63003625 53.083095,4.39673952 52.9052589,4.19969836 C51.5091621,2.64228504 49.6925741,1.92190257 47.6565996,1.7942199 M45.1652316,0.797979798 C48.6255573,0.990291969 51.9529214,1.76899863 54.9495435,3.58177729 C55.7772295,4.08147366 56.5184905,4.68993676 57.0403648,5.49228836 C57.2215249,5.77129864 57.3511625,6.09602247 57.4259534,6.41759364 C57.5389708,6.90467938 57.309612,7.28457474 56.8675147,7.54309274 C56.3207101,7.86308758 55.7057627,7.95609101 55.0808431,7.97343063 C53.3141158,8.02387316 51.5922631,7.77323681 49.9086368,7.27038777 C47.8510559,6.65404303 45.9729733,5.71927977 44.3308975,4.38728154 C43.8040371,3.96009631 43.3237133,3.47143424 42.8583477,2.97961951 C42.6472712,2.75578075 42.4943653,2.46731249 42.3730379,2.18672588 C42.1935397,1.76899863 42.3148672,1.40329024 42.7453304,1.2235887 C43.1658214,1.04703982 43.627863,0.949307408 44.0832565,0.865761957 C44.4189846,0.804285115 44.7696708,0.818472078 45.1652316,0.797979798" id="Fill-35" fill="#000080"></path>
                    <path d="M39.4605857,5.72864618 C40.0614025,5.35976291 40.6539889,5.01462749 41.2202381,4.63782827 C41.552745,4.41618167 41.8375157,4.38451787 42.2029439,4.58083343 C42.9288623,4.97346455 43.6794718,5.32176635 44.4218509,5.69064962 C44.5025085,5.73022937 44.5749357,5.78405783 44.6868687,5.85371819 C44.4547723,5.99303891 44.2506592,6.10386221 44.0597147,6.2321006 C43.0078738,6.94770248 41.9626172,7.66805393 40.9107763,8.38365581 C40.8037816,8.45648255 40.6885564,8.52297654 40.566747,8.56255629 C39.5231365,8.89185981 38.4745877,9.20533143 37.4359154,9.5425509 C37.2054651,9.61696083 37.1034086,9.56788194 36.9848913,9.37948233 C35.9379886,7.71080006 34.734709,6.15927386 33.2565351,4.81514555 C32.4483131,4.08054539 31.5758942,3.42668791 30.584958,2.93114944 C30.5125308,2.89473607 30.4466878,2.84882356 30.3232323,2.77283044 C31.0359821,2.54010151 31.6927654,2.31528853 32.357779,2.11264021 C32.963534,1.93057336 33.5725812,1.76117203 34.1865666,1.61393536 C34.3412975,1.5759388 34.5470566,1.59968665 34.6869729,1.6709302 C36.4713164,2.5891804 37.9066924,3.89847854 39.175815,5.3930099 C39.2712872,5.5038332 39.3651134,5.61623969 39.4605857,5.72864618" id="Fill-37" fill="#000080"></path>
                    <path d="M1.46901818,40.5716283 C1.51270558,41.0213807 1.53891801,41.6868136 1.65250524,42.3388709 C1.72939505,42.7769197 1.9198721,43.199921 2.08763169,43.6179065 C2.12957159,43.719895 2.29383619,43.8486345 2.39169596,43.8419467 C2.49130322,43.835259 2.61712292,43.6898 2.6643053,43.5794518 C2.77090255,43.3219728 2.86526732,43.0527901 2.9141972,42.7802636 C3.0802093,41.8423042 3.26020137,40.9043447 3.3702936,39.9596976 C3.51184076,38.737508 3.61669051,37.5103026 3.68309535,36.2830972 C3.71280278,35.7380442 3.6201855,35.1846314 3.31262624,34.6980963 C3.10642174,34.3720676 2.8722573,34.3436446 2.65731532,34.6445941 C2.47907075,34.8937135 2.33752359,35.1796156 2.23616883,35.4688615 C1.68570766,37.0538625 1.53018053,38.6990533 1.46901818,40.5716283 M0.797979798,39.6537322 C0.829434722,37.2210567 1.04262921,34.9238084 1.78356742,32.7034695 C1.98278194,32.1065863 2.31655364,31.5481577 2.61013293,30.9813693 C2.69226524,30.8225349 2.84080238,30.6887795 2.98060204,30.5667277 C3.34408117,30.2440429 3.77746012,30.2323394 4.09899935,30.5901349 C4.36287121,30.8860687 4.59878314,31.2238009 4.76130025,31.5799246 C5.44107611,33.0746407 5.55815833,34.6663294 5.58262327,36.2697217 C5.61582569,38.3646649 5.39039874,40.4412168 5.04788956,42.5043932 C4.84518005,43.7382863 4.59878314,44.9654917 4.32267881,46.1860093 C4.22656654,46.6106826 4.02560452,47.0269961 3.79843007,47.4065269 C3.43495095,48.0218016 2.95089461,48.0301613 2.49654571,47.4650449 C1.99850941,46.8414106 1.73813253,46.1107719 1.52668554,45.3667578 C0.981466856,43.459072 0.83467721,41.5045719 0.797979798,39.6537322" id="Fill-39" fill="#000080"></path>
                    <path d="M63.8383838,65.4343434 C63.7559542,65.9229184 63.5597717,66.1951777 63.1179489,66.3443609 C60.7307871,67.1462205 58.3007618,67.7000631 55.8344676,68.0636971 C52.1844839,68.6007566 48.5196629,68.712644 44.8449504,68.5690552 C44.1245155,68.5410833 43.4057292,68.4832748 42.6869429,68.4366551 C42.564947,68.4291959 42.4429512,68.4068184 42.2929293,68.3881705 C42.3720617,68.1588014 42.4281139,67.9536745 42.5154893,67.7671955 C42.5501097,67.7000631 42.6655112,67.6441194 42.7413464,67.6497138 C45.2125865,67.8436519 47.6871237,67.9070548 50.1633096,67.8138153 C54.7200191,67.6441194 59.2157306,67.0324683 63.591095,65.5033407 C63.6669302,65.4753688 63.7493598,65.4585857 63.8383838,65.4343434" id="Fill-41" fill="#000080"></path>
                    <path d="M1.59654297,48.6784554 C1.90564238,49.2705672 2.2043809,49.9131431 2.56183105,50.5237584 C3.42696401,52.0006737 4.57011375,53.2622756 5.83068673,54.4229493 C7.30365762,55.7770687 8.90786625,56.9663387 10.6312249,57.9958059 C11.0594744,58.2514905 11.1147324,58.5996926 11.1717172,59.0505051 C10.8177207,58.8301453 10.4965336,58.6383818 10.1857073,58.4365255 C8.09799128,57.0739954 6.14151294,55.558391 4.49068039,53.6979488 C3.19211754,52.2328084 2.1335816,50.6330972 1.60690385,48.7406944 C1.59654297,48.7053695 1.59481616,48.6683626 1.59654297,48.6784554" id="Fill-43" fill="#000080"></path>
                    <path d="M44.6868687,0.112085275 C43.919515,0.112085275 42.8033641,0.0951058162 41.6872133,0.115172449 C38.8474941,0.169198 36.0520127,0.525766632 33.312679,1.20648857 C31.9379079,1.54916492 30.5886584,1.97828215 29.224096,2.36109176 C29.0692641,2.4043122 28.8991191,2.40276861 28.7272727,2.3688097 C33.9830501,0.533484568 39.4004652,-0.32474989 44.6868687,0.112085275" id="Fill-45" fill="#000080"></path>
                </g>
                <g id="core-element-/draw-ball/illustrated/05" transform="translate(371.000000, 157.000000)">
                    <path d="M37.8703957,31.3817411 C31.8608133,40.975118 19.2116357,43.8799781 9.61825889,37.8703957 C0.0248820474,31.860515 -2.87997814,19.2116357 3.12960426,9.61825889 C9.13978326,0.0248820474 21.7886626,-2.87997814 31.3817411,3.12960426 C40.975118,9.13948496 43.8799781,21.7883643 37.8703957,31.3817411" id="Fill-93" fill="#FFFFFF"></path>
                    <path d="M37.8702305,31.381884 C31.8603809,40.9750907 19.2115359,43.88008 9.61832921,37.8702305 C0.0251225144,31.8603809 -2.88016513,19.2118342 3.12968443,9.61832921 C9.13953399,0.0251225144 21.788379,-2.88016513 31.381884,3.12968443 C40.9750907,9.13953399 43.88008,21.788379 37.8702305,31.381884 Z" id="Stroke-95" stroke="#000080" stroke-width="0.5" stroke-linecap="round" stroke-linejoin="round"></path>
                    <path d="M18.1233237,31.6237493 C18.0639341,31.7163617 17.9966257,31.8048184 17.9463729,31.9018833 C17.5626241,32.6383298 17.8117563,33.265838 18.594482,33.5795922 C19.1478721,33.8013276 19.6647147,33.7051532 20.1614562,33.4335496 C20.7830683,33.0939708 21.2557494,32.5994445 21.6519852,32.029819 C21.8478189,31.7475293 21.9997957,31.4453517 22.0619264,31.107554 C22.1277119,30.7489778 22.0506576,30.4283965 21.7875156,30.1573866 C21.3136163,29.6687969 20.6207365,29.5551093 19.9640997,29.8810336 C19.1685824,30.2758236 18.6252428,30.9321248 18.1233237,31.6237493 M15.9953453,30.3147089 C16.5310708,29.5402675 17.1773525,28.879217 17.9777429,28.3704425 C18.9831038,27.7313578 20.0758741,27.4514428 21.270673,27.6862389 C22.1444629,27.8578093 22.8988642,28.2686283 23.5095121,28.8964334 C24.3948754,29.8071218 24.5562935,30.8769135 24.1323425,32.0375366 C23.8533632,32.801292 23.3566217,33.4249414 22.7551107,33.9797251 C22.0390842,34.6404789 21.2070194,35.0738573 20.2379014,35.2445372 C19.2529462,35.4178886 18.3127616,35.2792668 17.4182615,34.8310467 C16.9029417,34.5728006 16.4433568,34.2492509 16.0769681,33.8134978 C15.3719058,32.9758307 15.2561721,32.0416923 15.6484486,31.0416567 C15.7459086,30.7926125 15.8786979,30.5566291 15.9953453,30.3147089" id="Fill-97" fill="#000080"></path>
                    <path d="M21.5148515,36.2173375 C22.192864,36.0336247 22.8442641,35.8570695 23.5062487,35.677532 C23.598485,35.9981347 23.7551355,36.2647568 24.0152117,36.4687496 C24.6608659,36.975451 25.6648809,36.939961 26.2125529,36.3825597 C26.2890637,36.3047203 26.3555948,36.2119692 26.4054931,36.1159376 C26.5642605,35.8114396 26.4103317,35.4735393 26.0480396,35.3130888 C25.6561109,35.1398142 25.2433155,35.0470631 24.8169116,35.0142573 C24.7292115,35.0076961 24.6808252,34.9820479 24.6490717,34.8991385 C24.5704441,34.6933564 24.4851633,34.4899601 24.3971607,34.2883532 C24.3632904,34.2108121 24.3811328,34.1627962 24.4422205,34.106728 C25.1571275,33.4524003 25.873849,32.799862 26.5805909,32.1365873 C26.8585095,31.8753334 27.1155615,31.5920101 27.3738232,31.3116691 C27.4479147,31.2314439 27.5068855,31.2558992 27.5870252,31.2857227 C28.4764252,31.6188512 29.364918,31.9540674 30.257947,32.2773542 C30.5283052,32.3751753 30.8113649,32.4375065 31.0889811,32.5159423 C31.1361577,32.5293628 31.1836367,32.5436781 31.2574257,32.5651511 C31.09261,32.7927044 30.9435199,33.0047495 30.7874742,33.2123211 C30.5824374,33.4852062 30.3695378,33.7524248 30.1657107,34.0262046 C30.1000868,34.1147804 30.0362774,34.146095 29.9237793,34.1094121 C29.1505064,33.8571053 28.3754189,33.6101667 27.600029,33.3638245 C27.5567838,33.3501057 27.4863213,33.3375798 27.4621282,33.3599475 C27.1890482,33.6098684 26.9226213,33.8666488 26.6425858,34.1326745 C26.8842147,34.2063385 27.1080012,34.2633014 27.3227152,34.3435267 C27.5156555,34.4156995 27.7082933,34.4980124 27.8842983,34.6029911 C28.5571698,35.0038191 28.7286386,35.6715673 28.3303592,36.3428944 C28.0400416,36.8325964 27.6230125,37.2053902 27.1318919,37.488117 C25.8641718,38.2175999 24.5332471,38.3777522 23.1521217,37.8394379 C22.4856009,37.5793769 21.9252275,37.179742 21.6282568,36.5000643 C21.6001323,36.4359438 21.5798705,36.3688409 21.5544677,36.3035274 C21.5435808,36.2754933 21.5293674,36.2489504 21.5148515,36.2173375" id="Fill-99" fill="#000080"></path>
                    <path d="M3.10614558,14.6059107 C3.07371705,14.9637538 3.03107952,15.2922015 3.01726737,15.6218491 C3.00435601,15.9305 3.05329908,16.2364513 3.20463225,16.5109076 C3.37908578,16.8273573 3.64692148,16.8714502 3.88893446,16.6044927 C4.35194191,16.0945739 4.54230944,15.4931696 4.38977521,14.8095783 C4.32521839,14.5183247 4.19520398,14.2516671 3.9826169,14.0312022 C3.95439206,14.0018069 3.94388281,13.9427163 3.94718572,13.8992232 C3.95289074,13.8194359 3.97571082,13.7411484 3.99072403,13.6622609 C4.14085615,12.8871842 4.13785351,12.8835848 4.72366904,12.3688667 C5.45631378,11.7251692 6.22919393,11.1336633 7.05612165,10.613846 C7.08915071,10.5934492 7.12488216,10.5775518 7.16872074,10.5544554 C7.25189393,10.8076152 7.32906184,11.0505765 7.41043345,11.2920381 C7.70199003,12.1559006 8.075819,12.9840688 8.49198524,13.79364 C8.5460328,13.8995232 8.53582382,13.9526147 8.44184111,14.0291025 C8.03228069,14.3617496 7.63172819,14.7051949 7.22817306,15.0447409 C7.17892972,15.0858344 7.13088744,15.1278277 7.06272746,15.1863184 C6.87326073,14.7807829 6.68619611,14.3980438 6.51474523,14.0087058 C6.34509593,13.6232671 6.19136064,13.2312295 6.02051029,12.8175953 C5.74516798,13.0386601 5.47703202,13.2540259 5.20349129,13.4738909 C5.41157441,13.8551302 5.56621049,14.2393691 5.63286916,14.6554029 C5.80251845,15.7181338 5.60374352,16.7169748 5.07768058,17.6462269 C4.90142547,17.9578774 4.6744257,18.2458315 4.43991933,18.5184881 C4.29969593,18.6822621 4.11503343,18.8223398 3.92526643,18.9264232 C3.3847908,19.2224761 2.88785348,19.0811986 2.54555225,18.5640809 C2.27531443,18.1561458 2.1522061,17.6966189 2.08134374,17.2223944 C1.98225654,16.5594999 2.03510304,15.9002048 2.1606135,15.2448091 C2.18223252,15.1326269 2.22877348,15.0519398 2.33416623,14.9997481 C2.58939083,14.8731682 2.84221332,14.7408893 3.10614558,14.6059107" id="Fill-101" fill="#000080"></path>
                    <path d="M31.3493743,8.52475248 C31.1201609,8.43735884 30.8882613,8.34816945 30.6560632,8.26017723 C29.441948,7.80016348 28.1953013,7.46136351 26.918809,7.22851335 C26.8498658,7.21594303 26.7800274,7.21594303 26.7797289,7.11178898 C26.7788335,6.67631728 26.7719691,6.24084558 26.7668953,5.78202901 C27.8380506,5.9732774 28.8862247,6.2489265 29.9460386,6.608677 C29.9693181,6.37881977 29.9952837,6.16841661 30.0069235,5.95711556 C30.0084158,5.9286827 29.9418603,5.88229225 29.8991812,5.86792617 C29.402552,5.70151912 28.8933876,5.56593927 28.4083982,5.37020147 C27.6861369,5.07839054 27.0170007,4.68811213 26.4773939,4.10778249 C26.2460913,3.85936908 26.0634368,3.58192422 25.9965828,3.24043061 C25.9312212,2.9031271 26.061646,2.65740733 26.383679,2.53948578 C26.7412282,2.40869463 27.1107156,2.42006777 27.479606,2.47244409 C28.2027626,2.57540098 28.8865232,2.81034619 29.5502872,3.10844228 C30.2507613,3.4229995 30.9091531,3.80908781 31.5087493,4.29214714 C31.5311335,4.31010473 31.5520253,4.32985809 31.5887353,4.36278035 C31.3825028,4.4717231 31.1920885,4.57707432 30.996302,4.671651 C30.9703364,4.68422131 30.9124361,4.65309481 30.8810983,4.62765489 C30.3734263,4.21971817 29.8221798,3.88810123 29.1981103,3.69715213 C28.9766566,3.62921256 28.7405787,3.58162493 28.5101713,3.57713553 C28.2170885,3.57174825 28.1296411,3.75461644 28.2809579,4.00781854 C28.5098729,4.39091391 28.8671236,4.62974994 29.2676503,4.77909728 C29.724585,4.94939515 30.2021131,5.06192941 30.6682999,5.20858311 C30.764104,5.23881173 30.8563266,5.29837109 30.9357156,5.36212056 C31.1580646,5.54020005 31.3759368,5.7245647 31.5884368,5.91401733 C31.6302205,5.95142899 31.6642444,6.02355867 31.6633663,6.07922722 C31.6505155,6.89270631 31.5350134,7.69451296 31.3735492,8.49063304 C31.3717585,8.49901325 31.3628048,8.50619629 31.3493743,8.52475248" id="Fill-103" fill="#000080"></path>
                    <path d="M35.0894913,6.85693863 C35.0812317,6.85168207 35.0729721,6.84613348 35.0644175,6.84146098 C34.9484882,6.7789663 34.8269542,6.67587929 34.6962757,6.75355959 C34.5617624,6.83328411 34.5956857,6.99127298 34.6175146,7.1168464 C34.6673671,7.40011666 34.7234144,7.68397098 34.7992256,7.96169264 C34.9853614,8.64533767 35.2717922,9.28079755 35.8054208,9.77316215 C35.983297,9.93728368 36.1874269,10.0815471 36.4001114,10.1977755 C36.5859522,10.2994024 36.7422945,10.2074125 36.7874272,9.99977835 C36.8107311,9.89172681 36.8198756,9.7754984 36.8074862,9.66569467 C36.6729729,8.46807474 36.0372794,7.56861866 35.0894913,6.85693863 M36.6461292,11.8276016 C35.4835918,11.0268521 34.5596975,10.0123357 33.8653018,8.79047718 C33.4405228,8.04375341 33.1198737,7.2581895 32.9493721,6.41684762 C32.9051243,6.19782423 32.8765108,5.97062396 32.8818205,5.74809619 C32.8906701,5.34684532 33.1169239,5.19907754 33.5063046,5.31618205 C33.9263638,5.44233952 34.2779864,5.68939792 34.6130898,5.95660646 C35.882412,6.96761846 36.9248904,8.16845073 37.6658938,9.61196093 C37.924891,10.1162988 38.1181064,10.6460434 38.1546846,11.2166723 C38.165894,11.3942273 38.1523247,11.5811273 38.1074869,11.7528416 C38.0213512,12.0845891 37.7859528,12.2373214 37.4470146,12.1573048 C37.1682534,12.0915978 36.9036515,11.9654403 36.6328549,11.8658577 C36.6372797,11.8530083 36.6417044,11.8401589 36.6461292,11.8276016" id="Fill-105" fill="#000080"></path>
                    <path d="M3.09217372,10.5837433 C2.99058664,10.7741984 2.84407811,11.0054652 2.74102301,11.2551729 C2.63444466,11.5127407 2.56662207,11.7878424 2.49145937,12.0578049 C2.48000881,12.0992213 2.50848842,12.1714733 2.54195931,12.1998904 C2.56280521,12.2177267 2.6376743,12.1938442 2.67114519,12.1666364 C2.77889796,12.0792689 2.89046759,11.992506 2.97913608,11.8863954 C3.4747401,11.2914501 3.97709701,10.7019464 4.45068071,10.0885602 C4.74604661,9.70644088 5.00206954,9.29076518 5.2601477,8.87992645 C5.33765923,8.75628182 5.3770022,8.60089469 5.40812426,8.45457685 C5.42515331,8.3744648 5.38786556,8.28226038 5.37524058,8.19549752 C5.28804011,8.21121762 5.19408674,8.21212455 5.11451998,8.24719246 C5.03054916,8.28407423 4.95626728,8.34846618 4.88433423,8.40953272 C4.1752799,9.01173343 3.62682711,9.7545081 3.09217372,10.5837433 M3.03756333,10.2249018 C3.84468148,8.95580615 4.56929684,7.97995078 5.47506603,7.16401719 C5.7202256,6.94333118 6.01118744,6.77585167 6.28453302,6.58902434 C6.33620738,6.55335181 6.40138753,6.53642247 6.46275082,6.5185862 C6.73257315,6.43998571 6.8940555,6.55970031 6.9005148,6.85596371 C6.90873572,7.25198928 6.80949747,7.62806241 6.66621858,7.99113624 C6.29128592,8.9415976 5.76338543,9.80076147 5.15356935,10.6052073 C4.59718925,11.3383081 4.02759695,12.0614326 3.44537967,12.7730694 C3.07573188,13.2250222 2.69698237,13.6736497 2.22662832,14.0231196 C2.1361982,14.0902323 2.0334367,14.1458573 1.92861998,14.1851575 C1.76948646,14.2447125 1.6491087,14.1869714 1.63472209,14.0170734 C1.61681223,13.8039451 1.61798665,13.5808406 1.65997206,13.3725493 C1.79062597,12.7186537 2.04518087,12.1082906 2.34553805,11.5202984 C2.61066271,11.0009306 2.89457805,10.4915389 3.03756333,10.2249018" id="Fill-107" fill="#000080"></path>
                    <path d="M12.5841584,33.4771378 C12.6700018,33.4101382 12.7428207,33.3379139 12.8289601,33.2936573 C12.8656656,33.2749098 12.9408525,33.2994967 12.9805181,33.3299232 C13.5118591,33.7346865 14.0334318,34.1535874 14.569805,34.5506673 C15.8826169,35.5230829 17.2510791,36.4026825 18.6781515,37.1845489 C19.7881954,37.7930769 20.9269525,38.3342981 22.1056711,38.7820887 C22.9250315,39.0931142 23.7580085,39.358039 24.6128903,39.5449001 C24.65522,39.5541203 24.6966616,39.5685651 24.7623762,39.5873127 C24.6066741,39.7206971 24.4894534,39.8193525 24.2701088,39.7686418 C22.6411563,39.3924608 21.091535,38.7879281 19.5854274,38.0533917 C17.9218416,37.2417136 16.340843,36.2791329 14.8282232,35.1985346 C14.0855298,34.6680702 13.3724376,34.0933493 12.6463209,33.5386053 C12.6273761,33.5241604 12.6122795,33.5051055 12.5841584,33.4771378" id="Fill-109" fill="#000080"></path>
                    <path d="M2.71663043,21.9207921 C2.45281137,21.3886689 2.1951134,20.8955954 1.96098163,20.3929051 C1.4758851,19.3496407 1.10280454,18.2719894 0.919783896,17.1404263 C0.764614215,16.1813807 0.751759922,15.2267064 1.04893894,14.2854371 C1.05475397,14.2667865 1.06056901,14.248136 1.06852643,14.2303597 C1.07250514,14.2222001 1.08199283,14.2163718 1.05506003,14.2079208 C1.02476062,14.6776812 0.969058686,15.1474416 0.96936474,15.617202 C0.96997685,16.5721678 1.18605139,17.4959522 1.48292435,18.4037088 C1.80979066,19.403261 2.23887921,20.3637637 2.76284468,21.2831768 C2.89108155,21.5078575 2.85343684,21.6821235 2.71663043,21.9207921" id="Fill-111" fill="#000080"></path>
                    <path d="M33.2871287,4.46534653 C33.0129312,4.30133873 32.5959967,4.04596326 32.173424,3.79938405 C30.4846167,2.81420223 28.6693937,2.12071595 26.7470438,1.68487515 C26.1677867,1.5537824 25.5793304,1.45929348 24.9968092,1.34267201 C24.9110483,1.32564698 24.8327061,1.27740939 24.7623762,1.21782178 C27.9322654,1.66813386 30.8511036,2.70807954 33.2871287,4.46534653" id="Fill-113" fill="#000080"></path>
                </g>
            </g>
        </g>
    </g>
</svg>