<?xml version="1.0" encoding="UTF-8"?>
<svg width="32px" height="32px" viewBox="0 0 32 32" version="1.1" xmlns="http://www.w3.org/2000/svg" xmlns:xlink="http://www.w3.org/1999/xlink">
    <title>content/phone</title>
    <defs>
        <filter id="filter-1">
            <feColorMatrix in="SourceGraphic" type="matrix" values="0 0 0 0 0.000000 0 0 0 0 0.000000 0 0 0 0 0.501961 0 0 0 1.000000 0"></feColorMatrix>
        </filter>
        <polygon id="path-2" points="0.238235294 0 15.9617647 0 15.9617647 16.2 0.238235294 16.2"></polygon>
    </defs>
    <g id="Toolkit" stroke="none" stroke-width="1" fill="none" fill-rule="evenodd">
        <g transform="translate(-2149.000000, -820.000000)" id="Group">
            <g transform="translate(2149.000000, 820.000000)">
                <circle id="Oval" stroke="#000080" stroke-width="2" stroke-linecap="round" stroke-linejoin="round" cx="16" cy="16" r="15"></circle>
                <g filter="url(#filter-1)" id="Group-3">
                    <g transform="translate(15.700000, 15.700000) scale(-1, 1) translate(-15.700000, -15.700000) translate(7.600000, 7.600000)">
                        <mask id="mask-3" fill="white">
                            <use xlink:href="#path-2"></use>
                        </mask>
                        <g id="Clip-2"></g>
                        <path d="M15.8192154,12.2995104 C15.6677419,12.1111855 12.3362262,10.087648 12.0771477,10.0630839 C11.680318,10.024873 11.3226943,10.5445406 11.0874575,10.8098331 C10.7568543,11.1826618 10.449086,11.5767795 10.1120721,11.9441495 C10.0098712,12.0555069 9.89908739,12.1685018 9.75656775,12.2127172 C9.60138559,12.2612996 9.43232233,12.2198135 9.28503438,12.1504881 C7.01791252,11.0819489 5.20680052,9.22037086 4.16863238,6.87902824 C4.10134616,6.72727657 4.06108039,6.55314426 4.10823373,6.39320455 C4.15114856,6.24636571 4.26081981,6.13227903 4.36890161,6.02692625 C4.72546561,5.67975337 5.10799044,5.36260331 5.46985257,5.02198086 C5.72734158,4.77961489 6.23172334,4.41115311 6.19463645,4.002297 C6.17079487,3.73536691 4.2067789,0.302940719 4.02399349,0.146822098 C3.93339551,0.0693086564 3.84067827,-0.00711304632 3.74054366,0.00052912395 C2.63853308,0.0867764741 1.78765376,0.433949352 1.20009139,1.16268487 C0.637960029,1.85975998 0.323251238,2.74898107 0.252786139,3.64802782 C0.134637889,5.16772796 0.756108278,6.74474439 1.3871153,8.08649114 C2.51863645,10.4924101 4.28794622,12.6073807 6.48105323,14.0633233 C7.00652155,14.4121338 7.55048033,14.735343 8.11308852,15.0163566 C9.41536832,15.6664323 10.9460504,16.306737 12.4209962,16.1850081 C13.2935979,16.1124075 14.1566629,15.7881612 14.8332868,15.2089938 C15.5405339,14.6036248 15.8775478,13.7269587 15.9612582,12.5915505 C15.9686226,12.4883812 15.8944488,12.3928541 15.8192154,12.2995104" id="Fill-1" fill="#1D1D1B" mask="url(#mask-3)"></path>
                    </g>
                </g>
            </g>
        </g>
    </g>
</svg>