<?xml version="1.0" encoding="UTF-8"?>
<svg width="146px" height="24px" class="cls-history-status__svg" viewBox="0 0 145 24" preserveAspectRatio="none" version="1.1" xmlns="http://www.w3.org/2000/svg" xmlns:xlink="http://www.w3.org/1999/xlink">
    <g stroke="none" stroke-width="1" fill="none" fill-rule="evenodd">
        <g fill="#09A553" transform="translate(-337.000000, -1453.000000)">
            <path d="M467.742922,1453.30704 L467.766798,1453.41538 C468.278851,1453.41748 468.786585,1453.44922 469.2775,1453.54306 L469.27834,1453.5621 C469.766664,1453.53616 470.287961,1453.66931 470.813217,1453.82015 L471.207714,1453.93445 C471.550507,1454.03286 471.891895,1454.12373 472.223822,1454.16779 L472.311871,1454.22874 L472.148679,1454.11551 C472.09021,1454.07421 472.032082,1454.03228 471.974637,1453.99034 C472.216712,1453.89552 472.465348,1453.85057 472.717887,1453.83216 L472.907981,1453.82297 C472.908514,1453.82423 472.907967,1453.82359 472.90742,1453.82294 C473.012647,1453.78923 473.779679,1453.69739 474.313087,1453.67346 C474.318091,1453.63361 474.322143,1453.59215 474.324375,1453.55069 C474.855049,1453.66505 475.3994,1453.86073 475.954693,1453.74129 C476.012137,1453.77941 476.109245,1453.84676 476.215927,1453.92204 L476.43314,1454.0769 L476.534605,1454.15045 C475.888676,1454.24918 475.288324,1454.26931 474.707396,1454.29374 C474.394133,1454.58156 473.855413,1454.86868 473.91406,1455.30457 C473.615897,1455.29949 473.208318,1455.52313 472.923833,1455.50534 C472.952702,1455.54677 472.996996,1455.58273 473.054483,1455.61381 C473.400592,1455.6788 473.745357,1455.73512 474.048686,1455.78482 C475.049618,1455.81806 476.417442,1455.65852 476.917565,1455.62732 C476.91381,1455.71542 476.939697,1455.81638 476.97488,1455.92138 C477.22726,1455.89987 477.471642,1455.87182 477.702635,1455.84047 C477.465874,1455.88697 477.227081,1455.92434 476.988759,1455.96299 C477.001232,1455.9972 477.014107,1456.03209 477.026983,1456.06698 L477.054,1456.143 L477.02644,1456.15401 C476.953321,1456.18705 476.914534,1456.22464 476.869029,1456.31734 L476.833,1456.398 C476.879006,1456.50428 476.93473,1456.59821 477.013042,1456.66044 L477.063905,1456.64974 C477.037777,1456.59705 477.029147,1456.51579 477.049,1456.37259 C477.037,1456.31612 477.039222,1456.27141 477.049815,1456.23549 L477.07,1456.189 L477.082096,1456.22163 C477.098914,1456.2725 477.113402,1456.32237 477.123229,1456.37021 L477.1364,1456.50664 C477.262457,1456.52045 477.389379,1456.53583 477.516993,1456.55209 L477.626322,1456.52623 L478,1456.41515 C477.939719,1456.47363 477.87225,1456.5314 477.798316,1456.58841 C479.205241,1456.7773 480.683312,1457.01471 482,1456.41515 C481.253227,1457.41391 478.985553,1458.20428 477.812052,1458.62107 C477.943353,1458.66427 478.069183,1458.71256 478.192277,1458.76847 C478.025416,1459.29199 477.710841,1459.76469 477.1364,1459.91209 C477.268043,1459.57377 477.10584,1459.28062 476.806732,1459.06878 L476.722,1459.013 L476.807,1458.99628 C476.8806,1458.96409 476.92988,1458.99154 476.9958,1458.96368 L477.049,1458.93063 C477.101,1458.8311 477.191,1458.80146 477.331,1458.77816 C477.329,1458.66804 477.343,1458.57063 477.499,1458.57063 C477.523,1458.50287 477.569,1458.48593 477.731,1458.38428 C477.4625,1458.30328 477.395375,1458.28065 477.257938,1458.17701 L477.087,1458.04122 C476.847,1458.15981 476.749,1458.40546 476.439,1458.38851 C476.4398,1458.40715 476.44188,1458.42578 476.44524,1458.45093 L476.451,1458.492 L476.432074,1458.47856 C476.397951,1458.45028 476.358033,1458.41146 476.310719,1458.35966 L476.234,1458.2719 L476.208653,1458.25865 C476.217691,1458.28295 476.225279,1458.30938 476.230971,1458.33865 C476.069581,1458.44284 475.869894,1458.37677 475.724916,1458.47588 C475.724916,1458.49875 475.817921,1458.72748 475.815186,1458.73002 C475.521464,1458.78177 475.219538,1458.81502 474.915647,1458.84613 C474.768409,1458.91544 474.646783,1459.01397 474.564519,1459.14462 L474.515855,1459.23608 C474.446725,1459.18893 474.307284,1459.14701 474.12048,1459.10999 C474.262184,1459.19712 474.409007,1459.29677 474.556886,1459.3552 C473.92708,1459.55507 473.158678,1459.28611 472.468385,1459.2351 C472.280281,1459.47303 472.025743,1459.674 471.685736,1459.80355 C473.179913,1459.78479 474.721483,1459.30115 476.187205,1459.8101 C475.629176,1460.06678 474.882403,1459.7974 474.316168,1459.98546 C473.933208,1460.11253 473.50648,1460.54202 473.156345,1460.81649 C473.648723,1460.94801 474.167258,1460.93514 474.681947,1460.90012 L475.194242,1460.86224 L475.194242,1460.86224 C475.142269,1460.97914 474.920699,1461.17228 474.841371,1461.25107 C474.983614,1461.28156 475.128592,1461.3146 475.27357,1461.35018 C474.88295,1461.52808 474.439051,1461.55312 473.988668,1461.55551 L473.602128,1461.55505 C472.894564,1461.55517 472.204004,1461.59123 471.712036,1462.16851 C471.810511,1461.66023 471.545174,1461.74918 472.171589,1461.40355 C472.110497,1461.40355 472.047183,1461.40304 471.982649,1461.40266 L471.786386,1461.40256 C471.126653,1461.40786 470.445074,1461.4908 470.743693,1462.29557 C470.470149,1462.3464 469.961359,1462.4201 469.698757,1462.39977 C469.436156,1462.0084 469.458039,1462.02619 469.003957,1462.27778 C468.593642,1462.36927 468.186063,1462.57513 467.789425,1462.68949 C468.514315,1462.63358 469.378711,1462.45568 469.994184,1462.89026 C469.332209,1463.21555 468.418574,1462.74286 467.742922,1463.30704 C467.759098,1463.41918 467.800746,1463.54709 467.859109,1463.66973 C467.997224,1463.67416 468.088055,1463.68545 468.111967,1463.70604 C468.213357,1463.79241 468.252372,1463.87292 468.245996,1463.94983 C468.985719,1463.34609 469.893397,1463.55601 470.813217,1463.82015 L471.207714,1463.93445 C471.864935,1464.12312 472.516993,1464.28409 473.107107,1464.14062 C473.055134,1464.02371 472.989483,1463.91952 472.90742,1463.82294 C473.066075,1463.77212 474.729219,1463.58914 474.827694,1463.70604 C475.314601,1464.27785 473.818319,1464.59298 473.91406,1465.30457 C473.615897,1465.29949 473.208318,1465.52313 472.923833,1465.50534 C473.290381,1466.0314 476.143438,1465.67561 476.917565,1465.62732 C476.912094,1465.75566 476.969538,1465.91132 477.026983,1466.06698 L477.054,1466.143 L477.02644,1466.15401 C476.953321,1466.18705 476.914534,1466.22464 476.869029,1466.31734 L476.833,1466.398 C476.879006,1466.50428 476.93473,1466.59821 477.013042,1466.66044 L477.063905,1466.64974 C477.037777,1466.59705 477.029147,1466.51579 477.049,1466.37259 C477.037,1466.31612 477.039222,1466.27141 477.049815,1466.23549 L477.07,1466.189 L477.082096,1466.22163 C477.098914,1466.2725 477.113402,1466.32237 477.123229,1466.37021 L477.1364,1466.50664 C477.262457,1466.52045 477.389379,1466.53583 477.516993,1466.55209 L477.626322,1466.52623 L478,1466.41515 C477.939719,1466.47363 477.87225,1466.5314 477.798316,1466.58841 C479.205241,1466.7773 480.683312,1467.01471 482,1466.41515 C481.253227,1467.41391 478.985553,1468.20428 477.812052,1468.62107 C477.943353,1468.66427 478.069183,1468.71256 478.192277,1468.76847 C478.025416,1469.29199 477.710841,1469.76469 477.1364,1469.91209 C477.268043,1469.57377 477.10584,1469.28062 476.806732,1469.06878 L476.722,1469.013 L476.807,1468.99628 C476.8806,1468.96409 476.92988,1468.99154 476.9958,1468.96368 L477.049,1468.93063 C477.101,1468.8311 477.191,1468.80146 477.331,1468.77816 C477.329,1468.66804 477.343,1468.57063 477.499,1468.57063 C477.523,1468.50287 477.569,1468.48593 477.731,1468.38428 C477.4625,1468.30328 477.395375,1468.28065 477.257938,1468.17701 L477.087,1468.04122 C476.847,1468.15981 476.749,1468.40546 476.439,1468.38851 C476.4398,1468.40715 476.44188,1468.42578 476.44524,1468.45093 L476.451,1468.492 L476.432074,1468.47856 C476.397951,1468.45028 476.358033,1468.41146 476.310719,1468.35966 L476.234,1468.2719 C476.09,1468.17872 475.976,1468.35872 475.836,1468.32272 C475.694,1468.39472 475.642,1468.6086 475.448,1468.60013 C475.455,1468.64037 475.4385,1468.67266 475.41925,1468.70443 L475.41,1468.719 C475.048188,1468.75167 474.728322,1468.88448 474.564519,1469.14462 L474.515855,1469.23608 C474.312259,1469.0972 473.498793,1469.00375 472.661712,1468.94714 C472.415312,1469.39703 471.995151,1469.78175 471.294843,1469.91209 C471.48843,1469.55121 471.221095,1469.24173 470.755424,1469.0275 L470.722,1469.013 L470.705544,1469.01646 C470.56532,1469.02567 470.4082,1468.97553 470.269,1469.00263 L470.305688,1468.93943 L470.319916,1468.9128 C469.252496,1469.05042 467.470813,1469.52321 466.807792,1469.07003 C466.741446,1469.06163 466.671638,1469.0545 466.599576,1469.0476 C466.258055,1469.23083 465.888635,1469.35968 465.543634,1469.53597 C465.526127,1469.35299 465.389575,1469.17001 465.323049,1469.00394 L465.308871,1468.95374 L465.310392,1468.95652 L465.301399,1468.95605 L465.301206,1469.03309 C465.296761,1469.08233 465.283768,1469.13062 465.261885,1469.17763 C465.03291,1469.04169 464.725603,1468.95914 464.369295,1468.91363 C463.846607,1468.89619 463.356885,1468.8848 462.977316,1468.88001 C462.17401,1468.91353 461.316445,1469.01116 460.598203,1469.06515 C459.239717,1469.23533 457.695004,1469.41003 457.030743,1469.05738 L456.949,1469.006 L456.907033,1469.00791 C456.89268,1469.00855 456.878335,1469.00924 456.864,1469.00996 C456.368032,1469.21325 455.821069,1469.3475 455.312583,1469.53597 C455.304084,1469.47153 455.275234,1469.4071 455.237414,1469.3434 C455.058816,1469.4155 454.886717,1469.5029 454.719525,1469.60713 C454.761377,1469.37383 454.614895,1469.44107 454.748699,1469.20119 L454.794,1469.126 L454.64842,1469.07969 C454.546242,1469.04976 454.436676,1469.02355 454.32057,1469.00073 C453.944757,1469.00353 453.608383,1469.21062 453.379163,1469.56138 C453.131103,1469.21179 452.698378,1468.99486 452.155679,1468.86902 C450.433449,1468.89921 448.456374,1469.11671 447.264886,1469.10139 C446.947741,1469.09788 446.625617,1469.08746 446.300591,1469.07454 C446.007614,1469.0996 445.750964,1469.11433 445.542147,1469.11156 C443.980019,1468.81893 442.476857,1469.34586 440.953815,1469.44908 L440.756,1469.457 L440.572252,1469.52875 C440.511061,1469.55375 440.450311,1469.57986 440.390025,1469.60713 C440.406974,1469.5386 440.401519,1469.496 440.390035,1469.46393 C439.969976,1469.45942 439.395428,1469.42016 438.739657,1469.3773 L438.642772,1469.45914 L438.542147,1469.56138 C438.465955,1469.48349 438.377126,1469.41219 438.276799,1469.34702 L438.277333,1469.34766 L437.800668,1469.31938 C435.464811,1469.18893 432.612666,1469.16577 431.766506,1470.29584 C431.897806,1470.12557 431.941573,1469.80535 432.064668,1469.61221 C431.506639,1469.3479 430.858342,1469.4216 430.502735,1469.92734 C429.564482,1468.96924 427.069767,1469.6732 426.060392,1470.26026 C426.156132,1470.31109 426.254608,1470.35937 426.358554,1470.39749 C425.669225,1470.59572 425.803261,1470.19927 425.365592,1470.0417 C425.257542,1470.00231 425.173086,1469.95895 425.094955,1469.91547 L424.942011,1469.82949 C424.761479,1469.73165 424.552712,1469.64715 424.096351,1469.62491 C422.947469,1469.56646 421.653609,1470.10015 420.627822,1470.50677 C420.704414,1470.35937 420.723562,1470.17385 420.783741,1470.02391 C419.788044,1469.63 418.444946,1469.70878 417.473867,1470.15606 C418.354677,1470.21451 419.648537,1469.86126 420.283157,1470.52202 C419.186248,1470.36446 417.468396,1470.16115 416.710681,1471.07604 C416.899426,1471.12941 417.088171,1471.19803 417.279652,1471.24377 C416.988832,1471.43573 416.64181,1471.53989 416.273296,1471.57835 C417.991611,1471.65508 419.792499,1471.67187 421.565703,1471.64851 L421.66,1471.646 L421.638725,1471.636 C421.788725,1471.56612 421.940725,1471.51953 422.062725,1471.41365 C422.140725,1471.48353 422.240725,1471.48776 422.342725,1471.49412 L422.368322,1471.60489 L422.374,1471.634 L422.493,1471.632 L422.442327,1471.67094 L422.418327,1471.7442 L422.407,1471.777 L423.226483,1471.78509 C423.354447,1471.78748 423.48246,1471.78854 423.610517,1471.78841 C423.620421,1471.73302 423.620888,1471.6828 423.60491,1471.63527 L423.589,1471.604 L424.374463,1471.57948 C424.985982,1471.55783 425.586616,1471.53242 426.171463,1471.50418 L427.036278,1471.45979 C426.994232,1471.49987 426.952187,1471.5533 426.915905,1471.61526 C427.592581,1471.56544 428.268575,1471.51716 428.943539,1471.49283 C430.27843,1471.442 431.856775,1471.79271 433.098661,1471.50299 C433.079513,1471.37084 433.142428,1471.12433 433.120545,1470.98201 C433.385882,1470.91339 433.736017,1470.93881 434.009561,1471.043 C434.009561,1471.13958 433.971265,1471.29968 433.982206,1471.39626 C434.140487,1471.48506 434.309195,1471.53225 434.480495,1471.54226 C434.482038,1471.45874 434.484041,1471.39187 434.469273,1471.35305 C434.536306,1471.36811 434.694867,1471.44485 434.756656,1471.52526 C434.949911,1471.49505 435.141491,1471.41881 435.319833,1471.30477 C435.336246,1471.19549 435.26786,1470.97947 435.251447,1470.89815 C435.199474,1470.86765 435.724677,1470.90323 435.656291,1470.93373 C435.637143,1471.1167 435.623466,1471.25394 435.659027,1471.44454 C437.02506,1471.59703 438.512877,1471.65802 440.002531,1471.65825 L440.675,1471.653 L440.709711,1471.67036 C440.886517,1471.77644 440.500823,1471.80359 440.622073,1471.9185 L440.674725,1471.95576 C440.842725,1471.86259 441.010725,1471.744 441.378725,1471.99812 C441.385392,1471.97341 441.393614,1471.94965 441.398281,1471.91545 L441.399,1471.897 L441.526205,1471.91535 C441.768041,1471.93637 442.024164,1471.90368 442.355797,1471.92686 L442.564327,1471.94835 C442.60147,1471.84096 442.637593,1471.73248 442.60491,1471.63527 L442.587,1471.601 L442.948751,1471.58682 C443.428349,1471.56445 443.899267,1471.53761 444.357062,1471.50742 L445.033356,1471.45979 C444.921204,1471.60719 444.809051,1471.93503 444.904791,1472.20442 C444.896585,1472.30353 444.778961,1472.4738 444.819993,1472.56783 C445.685484,1472.55597 446.257882,1472.13677 447.10431,1472.45492 L447.245871,1472.51474 L447.159017,1472.47696 C447.21217,1472.47281 447.259753,1472.47879 447.301865,1472.49624 C447.336207,1472.37877 447.384398,1472.27531 447.396771,1472.12817 C447.648391,1472.04339 447.902974,1472.02651 448.15838,1472.0403 L448.194221,1472.0306 L448.279333,1472.01127 C448.305731,1471.84862 448.388697,1471.63006 448.162426,1471.52587 C447.856961,1471.38863 447.378021,1471.71139 447.366707,1471.3988 C447.761065,1471.43147 448.14434,1471.37639 448.6424,1471.33278 L448.901578,1471.31239 L448.957757,1471.31214 C449.050118,1471.31138 449.197101,1471.30893 449.6445,1471.30477 C449.802889,1471.30477 449.961279,1471.30477 450.229033,1471.28698 C450.270516,1471.13958 450.044245,1470.9566 450.18755,1470.82699 C450.391193,1470.64147 450.564668,1470.77362 451.020981,1470.89306 C451.635683,1470.83969 450.900303,1471.14974 450.866362,1471.40134 C450.781638,1471.43729 450.675373,1471.44772 450.564677,1471.44564 C450.632837,1471.50516 450.683998,1471.58534 450.627317,1471.64531 C450.829739,1471.86895 450.649201,1472.11038 450.662878,1472.33911 C450.80512,1472.3569 450.944627,1472.37215 451.08687,1472.38485 C451.141579,1472.37469 451.193552,1472.35944 451.36862,1472.31624 C451.623015,1472.26287 451.882881,1472.22475 452.148218,1472.23237 C452.342434,1472.10784 452.522972,1472.19933 452.832076,1472.25016 C452.868451,1472.32173 452.966755,1472.33887 453.01832,1472.39646 C453.170663,1472.28724 452.883,1472.18525 452.870545,1472.05779 L452.880172,1472.00873 L452.684269,1472.06821 C452.520833,1472.11526 452.353823,1472.14379 452.159877,1472.0621 C452.159877,1471.87912 452.389919,1471.86895 452.868859,1471.71393 C453.291231,1471.76476 453.687205,1471.65294 454.034153,1471.78001 C453.78477,1472.05554 453.441735,1472.40471 453.025625,1472.64032 C453.222113,1472.64638 453.409919,1472.71054 453.595262,1472.78385 C453.575567,1472.81028 453.553355,1472.83214 453.529218,1472.85048 L453.501361,1472.86609 L453.721145,1472.86772 C453.430764,1473.25909 452.759494,1473.4319 452.04297,1473.36074 C452.040408,1473.38665 452.037845,1473.51815 452.032917,1473.61015 C452.064215,1473.61794 452.098588,1473.63122 452.134418,1473.64586 C452.240611,1473.59487 452.38648,1473.51602 452.417173,1473.48238 L452.419,1473.475 L452.567573,1473.52435 C452.622322,1473.53999 452.679502,1473.55444 452.738846,1473.56772 C453.122023,1473.49284 453.705341,1473.50066 453.879747,1473.51069 C454.15329,1473.52593 454.429569,1473.67842 454.694906,1473.55389 C454.807059,1473.50306 454.905535,1473.35058 455.042306,1473.26671 C455.316041,1473.44379 455.008105,1473.51614 454.99532,1473.62246 C455.732853,1473.53613 456.406684,1473.35663 456.768258,1473.10406 C456.096988,1473.30992 455.342752,1473.24638 454.803474,1472.95921 C456.643809,1472.48397 457.41313,1473.09644 456.904021,1473.6403 C456.859696,1473.68809 456.805271,1473.73538 456.740639,1473.78136 L457.036437,1473.78515 C457.165002,1473.67842 457.323658,1473.69112 457.610878,1473.76736 C457.816035,1473.76228 458.018458,1473.7572 458.338503,1473.55135 C458.215409,1473.25655 458.010251,1473.28958 458.354916,1473.04307 C458.229086,1472.77114 458.253705,1472.78639 458.513571,1472.82451 C458.66402,1472.84993 458.713258,1472.86009 458.869177,1472.86772 C459.008684,1472.87534 459.085276,1472.79402 459.465502,1472.75081 C459.48465,1472.61104 459.432676,1472.52463 459.591332,1472.48397 C459.791018,1472.43314 459.894965,1472.61104 459.911377,1473.17014 C460.072768,1473.47511 460.198598,1473.42936 460.507702,1473.39632 C460.726536,1473.37599 460.9399,1473.4192 461.128645,1472.86263 C460.901604,1472.70507 460.764832,1472.48905 460.65268,1472.26033 C460.480347,1472.23999 460.064562,1472.11293 460.442051,1472.01127 C460.461199,1471.84862 460.521379,1471.63006 460.357253,1471.52587 C460.135683,1471.38863 459.788283,1471.71139 459.780076,1471.3988 C460.058179,1471.43057 460.328683,1471.37938 460.675488,1471.33644 L460.893398,1471.31239 L460.944384,1471.31201 C461.012203,1471.31114 461.123782,1471.30872 461.432278,1471.30477 C461.547166,1471.30477 461.662054,1471.30477 461.85627,1471.28698 C461.864867,1471.24486 461.85761,1471.19984 461.845281,1471.154 L461.803858,1471.01604 C461.786321,1470.94788 461.781632,1470.88253 461.82618,1470.82699 C461.973894,1470.64147 462.099724,1470.77362 462.430711,1470.89306 C462.876587,1470.83969 462.343177,1471.14974 462.318558,1471.40134 C462.170845,1471.48775 461.932862,1471.42675 461.776943,1471.3988 C461.525283,1471.46233 461.276358,1471.54112 461.008286,1471.51824 C460.770303,1471.61227 460.71833,1471.80542 460.707388,1472.01635 C460.849631,1472.01127 460.980932,1472.04685 461.104026,1472.11547 C461.363892,1471.84354 461.66479,1472.31878 461.801562,1472.48905 C461.497929,1472.70253 461.290036,1472.4738 461.369363,1472.92617 C461.585462,1473.11423 462.091518,1472.80164 461.610081,1473.32771 C461.56905,1473.39632 461.517077,1473.45477 461.517077,1473.714 C461.6347,1473.71145 461.755059,1473.70383 461.853535,1473.70637 C461.864477,1473.64538 461.850799,1473.58184 462.10793,1473.43953 C462.469007,1473.48527 462.356855,1473.04561 462.660488,1473.11677 C462.693313,1472.85247 463.221251,1472.87534 463.43188,1472.83976 C463.420938,1472.6212 463.544033,1472.50176 463.864078,1472.41281 C464.007688,1472.2994 463.791076,1472.19572 463.773162,1472.06601 L463.77928,1472.00873 L463.637181,1472.06821 C463.518632,1472.11526 463.397491,1472.14379 463.256812,1472.0621 C463.256812,1471.87912 463.423673,1471.86895 463.771073,1471.71393 C464.077442,1471.76476 464.364662,1471.65294 464.616322,1471.78001 C464.381075,1472.13834 464.03094,1472.6212 463.598741,1472.81689 C463.823047,1472.80418 464.132151,1472.88042 464.389281,1472.86772 C464.178653,1473.25909 463.691746,1473.4319 463.172014,1473.36074 C463.169278,1473.39886 463.166543,1473.66571 463.158336,1473.69875 C463.124295,1473.7284 463.378184,1473.55819 463.436075,1473.49184 L463.444,1473.475 L463.576208,1473.53345 C464.372042,1473.83237 465.837342,1473.67064 466.48197,1473.20187 L466.599511,1473.10406 C466.112604,1473.30992 465.565518,1473.24638 465.174351,1472.95921 C466.509242,1472.48397 467.06727,1473.09644 466.697987,1473.6403 C466.506507,1473.92493 466.05516,1474.19177 465.327535,1474.27056 C465.026637,1474.30105 461.566314,1473.96813 461.60461,1474.40271 C461.593669,1474.29089 461.563579,1474.18415 461.514341,1474.0825 C460.978196,1474.052 460.452993,1474.11045 459.930525,1474.2299 C460.034472,1474.30105 460.146625,1474.36205 460.261513,1474.41287 C459.749987,1474.38492 459.290434,1474.55265 458.986801,1474.89828 C459.235725,1475.03043 459.369762,1475.23882 459.61595,1475.36589 C459.284963,1475.51583 458.984065,1475.48534 458.639401,1475.42689 C458.795321,1474.21465 458.010251,1473.96813 456.735539,1474.0215 C456.573791,1474.0286 456.400972,1474.03336 456.22095,1474.03795 C455.90918,1474.14759 455.507978,1474.23181 455.01466,1474.27056 C454.902177,1474.27883 454.469443,1474.26038 453.899456,1474.23775 L453.688131,1474.28979 L453.42293,1474.3773 C453.790162,1474.40017 454.186287,1474.38619 454.592969,1474.36765 L455.084881,1474.34527 C456.156585,1474.30098 457.250074,1474.31313 458.043076,1474.94911 C456.459261,1474.55519 454.724996,1474.54757 453.280687,1475.32523 C453.187075,1475.16371 453.071849,1475.04988 452.972713,1474.92997 L452.941,1474.889 L452.991784,1474.88689 C453.013992,1474.88764 453.038696,1474.89021 453.066648,1474.89472 L453.161,1474.91413 C453.092429,1474.84153 453.011612,1474.81862 452.932399,1474.85468 L452.92,1474.862 L452.901967,1474.83806 C452.835416,1474.74333 452.783217,1474.63762 452.761278,1474.49824 L452.749871,1474.34774 L452.700685,1474.45537 C452.428592,1474.95463 451.781412,1474.81351 451.059229,1474.6288 L450.767067,1474.55401 C450.472328,1474.47972 450.171989,1474.41119 449.885257,1474.38661 L449.882084,1474.40271 C449.881399,1474.39763 449.880658,1474.39255 449.879864,1474.38749 C449.465116,1474.35146 449.07966,1474.4092 448.7809,1474.67464 C449.073591,1474.74325 449.382695,1474.95673 449.66718,1475.0101 C449.136506,1475.13971 448.600361,1475.11684 448.102512,1474.9059 C448.206459,1474.74325 448.263903,1474.53486 448.389733,1474.3773 C448.190705,1474.33167 447.995476,1474.31781 447.822168,1474.33834 C447.890389,1474.36569 447.96004,1474.39028 448.030435,1474.41287 C447.848285,1474.40565 447.670916,1474.41149 447.500796,1474.43007 C447.301021,1474.5337 447.177366,1474.71629 447.188878,1474.98723 C447.017696,1475.06012 446.837826,1475.09427 446.651194,1475.10071 C446.80258,1475.1938 446.946185,1475.29317 447.140437,1475.36589 C446.684124,1475.51583 446.269294,1475.48534 445.794125,1475.42689 C445.823096,1475.26351 445.828503,1475.11767 445.811869,1474.98775 C445.144318,1474.82342 444.434098,1474.52798 443.749465,1474.49948 C444.193091,1474.59303 444.605791,1474.73607 444.972008,1474.94911 C444.397569,1474.84548 443.808775,1474.76858 443.216681,1474.72569 L443.204263,1474.78147 L443.184204,1474.90844 C443.090479,1474.84781 443.00856,1474.78088 442.938368,1474.70915 C441.371549,1474.62315 439.792158,1474.78401 438.406384,1475.32523 C438.274393,1475.16004 438.111235,1475.04473 437.972515,1474.92179 L437.938,1474.89 L437.991784,1474.88689 C438.013992,1474.88764 438.038696,1474.89021 438.066648,1474.89472 L438.161,1474.91413 C438.092429,1474.84153 438.011612,1474.81862 437.932399,1474.85468 L437.913,1474.866 L437.89266,1474.84665 C437.791283,1474.744 437.712663,1474.62911 437.68527,1474.47252 L437.674776,1474.3468 C437.640563,1474.41282 437.599466,1474.47025 437.552074,1474.51993 C437.585202,1474.57975 437.61134,1474.64108 437.617597,1474.69243 C437.231155,1474.78946 436.831284,1474.83546 436.423923,1474.86073 L436.096,1474.876 L436.155,1474.84424 L436.059,1474.878 L436.014284,1474.88022 C435.190892,1474.90987 434.345452,1474.89704 433.525463,1475.08423 L433.11781,1475.19562 C433.487093,1475.25153 433.842699,1475.42434 434.217454,1475.46755 C433.355792,1475.81826 430.163542,1474.14857 430.201838,1475.54633 C428.275251,1475.03962 426.574751,1475.10891 424.657128,1475.12857 L424.531,1475.129 L424.531,1475.14706 L424.505,1475.129 L424.172943,1475.13209 C423.385138,1475.13209 422.55312,1475.0686 421.759573,1475.15449 L421.366389,1475.21087 C421.235088,1475.23628 419.812663,1475.7776 419.919345,1475.80809 C419.881048,1475.79793 419.476204,1475.78014 419.424231,1475.79284 C419.457056,1475.69119 419.618447,1475.67086 419.659478,1475.55395 C418.882615,1475.27949 418.773198,1475.83351 418.138578,1475.90975 C417.722792,1475.96058 417.512163,1475.44468 416.9514,1475.57683 C416.9514,1475.7039 417.044404,1475.77251 417.041669,1475.88179 C417.027992,1475.87163 416.694269,1475.90975 416.680592,1475.925 C416.587587,1475.70644 416.475434,1475.65307 416.35234,1475.49042 C416.119828,1475.87925 415.649333,1476.21217 415.069422,1476.12831 C414.670048,1475.25407 413.909598,1476.0851 413.239417,1475.67848 C412.755245,1476.08002 412.320311,1475.99361 411.849817,1476.40278 C411.808785,1476.17151 411.641924,1476.04698 411.647395,1475.76235 C411.086631,1475.69627 410.605195,1475.73439 410.216763,1476.0851 C409.666941,1475.72677 409.185505,1475.98853 408.928374,1476.47393 C408.797073,1476.46885 408.802544,1476.28587 408.720481,1476.22488 C408.537207,1476.31637 408.356669,1476.45614 408.156982,1476.49935 C408.066713,1476.38753 408.159717,1476.24521 408.077654,1476.13593 C407.943618,1476.12322 407.634514,1476.1893 407.527832,1476.13847 C407.620837,1476.23759 407.771286,1476.28079 407.823259,1476.40786 C407.188919,1476.8932 400.875043,1477.24825 400.384668,1476.70193 L400.361,1476.662 L400.387345,1476.71563 C400.423387,1476.76064 400.477943,1476.77144 400.529741,1476.81005 L400.579832,1476.86022 C399.740054,1476.72553 399.378977,1476.42819 398.435253,1477 C398.582966,1476.8221 398.615791,1476.66962 398.714267,1476.4841 C397.614623,1476.36974 396.577893,1476.09019 395.500133,1475.90975 C394.738791,1475.78249 393.993644,1475.68318 393.257169,1475.51747 C392.774733,1475.65567 392.34104,1475.79316 392.413077,1475.80809 C392.393278,1475.80428 392.302416,1475.7994 392.192794,1475.79545 L391.964034,1475.7894 C391.852644,1475.7876 391.757363,1475.78808 391.730493,1475.79284 C391.775748,1475.69119 391.998247,1475.67086 392.054815,1475.55395 C390.9838,1475.27949 390.832953,1475.83351 389.958039,1475.90975 C389.38482,1475.96058 389.094439,1475.44468 388.321347,1475.57683 C388.321347,1475.7039 388.449567,1475.77251 388.445796,1475.88179 C388.42694,1475.87163 387.966856,1475.90975 387.948,1475.925 C387.81978,1475.70644 387.665162,1475.65307 387.495459,1475.49042 C387.174908,1475.87925 386.526265,1476.21217 385.726775,1476.12831 C385.176183,1475.25407 384.127795,1476.0851 383.203856,1475.67848 C382.536357,1476.08002 381.93674,1475.99361 381.288097,1476.40278 C381.231529,1476.17151 381.001487,1476.04698 381.00903,1475.76235 C380.235938,1475.69627 379.57221,1475.73439 379.036703,1476.0851 C378.278695,1475.72677 377.614968,1475.98853 377.260477,1476.47393 C377.07946,1476.46885 377.087003,1476.28587 376.973867,1476.22488 C376.721198,1476.31637 376.4723,1476.45614 376.197004,1476.49935 C376.155521,1476.46207 376.142113,1476.42141 376.138481,1476.37971 L376.138621,1476.25387 C376.136246,1476.21245 376.125352,1476.17236 376.08764,1476.13593 C375.902852,1476.12322 375.476709,1476.1893 375.329633,1476.13847 C375.457853,1476.23759 375.665268,1476.28079 375.73692,1476.40786 C374.858078,1476.89559 366.071735,1477.25175 365.472356,1476.69378 L365.459871,1476.67774 L365.485466,1476.71563 C365.535155,1476.76064 365.610368,1476.77144 365.681779,1476.81005 L365.750837,1476.86022 C364.593084,1476.72553 364.095289,1476.42819 362.794232,1477 C362.997875,1476.8221 363.04313,1476.66962 363.178892,1476.4841 C361.662878,1476.36974 360.233601,1476.09019 358.747756,1475.90975 C357.133691,1475.71406 355.572423,1475.58445 354.026239,1475.17783 C354.312849,1475.12446 354.674882,1474.96181 354.912466,1474.90844 C353.189037,1474.5374 351.243108,1474.56536 349.481967,1474.2426 C349.576247,1474.17907 349.719552,1474.04692 349.825145,1473.97322 C350.96027,1474.63398 354.026239,1474.01642 355.43666,1474.33409 C355.50077,1473.16252 353.07213,1473.93764 352.212301,1473.80294 C350.783024,1473.58439 350.145695,1472.44585 351.929463,1472.64916 C351.737133,1472.72032 351.420354,1472.90075 351.201625,1473.01512 C351.869124,1473.11931 352.642216,1472.99478 353.275774,1472.75335 C352.721411,1472.30607 351.654167,1472.36198 350.892389,1472.12563 C350.952727,1472.01127 351.043236,1471.90962 351.107346,1471.79525 C350.605779,1471.68343 350.058958,1471.38863 349.557391,1471.30477 C350.613321,1471.32002 354.018697,1471.81813 354.44484,1471.43184 C355.02183,1471.54874 354.927551,1471.45471 355.489457,1471.44454 C354.561746,1471.18532 353.588782,1470.94135 352.608275,1470.86765 C353.083444,1470.68467 353.400223,1470.36446 353.803739,1470.1459 C351.782387,1469.99596 349.493281,1469.98325 347.701971,1469.2615 C349.214214,1469.1141 350.157009,1469.31487 351.480693,1468.78626 C351.363786,1468.73289 351.250651,1468.67444 351.137515,1468.61853 C351.639082,1468.49146 351.978488,1468.47113 352.521538,1468.5677 C352.2387,1468.70748 352.050141,1469.04294 351.782387,1469.19796 C352.0162,1469.36061 352.242471,1469.46989 352.578106,1469.53597 C352.642216,1469.36569 352.600733,1469.20305 352.649758,1469.03023 C352.928826,1469.00482 353.279545,1468.99465 353.494503,1468.90062 C352.344293,1467.67822 348.097944,1467.78241 346.189728,1467.87645 C346.234982,1467.80529 346.408456,1467.71634 346.487651,1467.63247 C345.918203,1467.45203 345.262017,1467.36817 344.609603,1467.3885 C344.828332,1467.29447 345.194136,1467.19027 345.435492,1467.13436 C345.284644,1467.08862 344.930154,1467.00221 344.82456,1466.9158 C344.941467,1466.90246 345.057667,1466.88134 345.173454,1466.85632 L345.865583,1466.69065 L346.212355,1466.63117 C345.710788,1466.58797 345.220534,1466.40244 344.734052,1466.33891 C346.317948,1465.80014 347.815106,1465.58412 349.583789,1465.67307 C348.135656,1465.3554 346.597015,1465.51042 345.11117,1465.52059 C345.559941,1465.39606 345.993626,1465.12667 346.449939,1464.99706 C345.952143,1464.96148 345.49583,1464.82171 344.960323,1464.83187 C346.299092,1464.2194 347.098582,1465.49009 348.271419,1464.66922 C346.695066,1464.30581 344.881128,1464.66922 343.365114,1464.15841 C344.341098,1464.05171 347.371446,1464.24678 349.839947,1464.29935 L349.481967,1464.2426 C349.576247,1464.17907 349.719552,1464.04692 349.825145,1463.97322 C350.280483,1464.23827 351.046513,1464.29763 351.891745,1464.29417 C352.696212,1464.2604 353.245838,1464.17523 353.336113,1464.00338 C353.013645,1463.92161 352.685729,1463.86039 352.353633,1463.81486 C352.302052,1463.81412 352.255222,1463.80967 352.212301,1463.80294 L352.14087,1463.78785 C351.329875,1463.69291 350.495788,1463.68442 349.656749,1463.69251 L348.396743,1463.70834 C347.347421,1463.71734 346.304532,1463.69767 345.3035,1463.5129 C346.359431,1463.36804 347.230573,1463.11136 348.14697,1462.68441 C347.388963,1462.35403 342.358209,1461.7568 341.536092,1462.01094 C342.795666,1461.61957 346.419769,1462.31591 346.898709,1461.37814 C346.110533,1461.66277 344.417273,1461.51283 343.572529,1461.52554 C342.16965,1461.54078 340.472619,1461.6399 339.092367,1461.31206 C341.170287,1461.15449 343.86291,1460.83936 345.854093,1460.85969 C345.861635,1460.91306 345.624051,1460.99693 345.608966,1461.08334 C345.989855,1461.18753 346.257609,1461.09096 346.597015,1461.14179 C346.608328,1460.5344 346.857226,1460.41749 347.600149,1460.39208 C347.117438,1460.09474 343.934562,1460.06678 343.150157,1460.04645 C341.234397,1460.00071 339.567536,1460.61572 338.01381,1461.12654 C339.209274,1460.01087 341.226855,1460.41495 342.614649,1459.55597 C341.634142,1459.34757 340.170925,1459.32216 339.050884,1459.32216 C340.472619,1458.99178 342.226218,1459.13918 343.429224,1458.65632 C342.42609,1458.7046 341.385245,1458.852 340.408509,1458.82659 C340.698726,1458.64626 341.134714,1458.52629 341.646779,1458.44814 L341.748,1458.434 L341.655612,1458.43644 C341.120189,1458.43894 340.622879,1458.39266 340.200273,1458.24744 L339.955967,1458.14804 C341.094864,1457.93202 342.810751,1457.58894 343.877994,1457.57369 C343.425453,1457.52286 343.055877,1457.32972 342.671217,1457.23569 C343.187868,1456.98155 343.719605,1456.80111 344.221172,1456.70708 C343.676236,1456.50631 342.95217,1456.47391 342.196991,1456.46374 L341.545528,1456.45707 C341.002047,1456.45036 340.464269,1456.4337 339.986137,1456.35383 C340.763,1455.87859 341.954693,1456.05394 342.957827,1456.14035 C342.275243,1455.99295 341.56249,1455.91163 340.853508,1455.75914 C341.219313,1455.69053 341.671854,1455.52788 342.071599,1455.47197 C340.785627,1454.99419 338.681309,1455.51263 337.089871,1455.30932 C338.522919,1454.82392 340.374568,1454.84171 342.037659,1454.69685 C342.082913,1454.07929 342.825835,1453.84803 343.670579,1453.94714 C343.278377,1453.75654 342.686302,1453.66251 342.052743,1453.83024 C341.551177,1453.62693 340.808254,1453.62184 340.182238,1453.78957 C340.167154,1453.82261 340.419823,1453.99034 340.427365,1454.00559 C340.035162,1453.99034 339.891857,1453.97255 339.529824,1453.87852 C340.106815,1453.6803 340.774313,1453.32704 341.245711,1453.12119 C341.256063,1453.10425 341.296573,1453.05565 341.343361,1453.00175 L469.586214,1453.00263 C468.988345,1453.0717 468.288148,1452.85177 467.742922,1453.30704 Z M425.189,1474.61765 C425.127,1474.65365 425.063,1474.68753 424.993,1474.70447 C424.831624,1474.70553 424.67075,1474.70978 424.524477,1474.74788 C424.508818,1474.80087 424.496538,1474.85466 424.48696,1474.90844 C424.431911,1474.88261 424.379816,1474.85564 424.330667,1474.82764 C424.262257,1474.86674 424.199621,1474.9206 424.145,1474.99247 C424.286667,1474.94659 424.356111,1475.01835 424.46213,1475.0987 L424.504,1475.128 L424.505,1475.129 L424.531,1475.129 L424.533864,1475.09739 C424.556827,1475.03203 424.665593,1475.04902 424.783,1475.07647 L424.923099,1475.10983 L424.923099,1475.10983 L424.987,1475.12165 C425.037,1475.04753 425.107,1475.03694 425.295,1474.98612 C425.387,1474.84424 425.491,1474.85482 425.607,1474.95435 C425.689,1474.93741 425.771,1474.93318 425.855,1474.88235 C425.827,1474.85059 425.799,1474.81671 425.611,1474.63671 C425.501,1474.62824 425.393,1474.61976 425.189,1474.61765 Z M442.623367,1474.0345 L442.449002,1474.03815 C441.188363,1474.06139 439.674129,1474.0808 438.602486,1474.3773 C439.853082,1474.43379 441.346728,1474.26544 442.702418,1474.35883 C442.656685,1474.25373 442.630765,1474.14464 442.623367,1474.0345 Z M431.069091,1473.4649 C430.992727,1473.53902 430.938182,1473.61738 431.069091,1473.7889 C431.24,1473.82067 431.461818,1473.7529 431.614545,1473.89902 C431.429091,1474.01549 431.105455,1473.96043 430.501818,1473.88208 C430.494545,1473.77196 430.48,1473.66185 430.101818,1473.47549 C429.850909,1473.68514 429.392727,1473.58985 429.043636,1473.71267 C428.985455,1473.79738 429.032727,1473.89479 429,1474.0642 C429.556364,1474.12561 430.12,1474.1722 430.687273,1474.14043 C430.963636,1474.1129 431.24,1474.1129 431.516364,1474.14679 L431.414503,1474.13652 C431.492825,1474.13208 431.551739,1474.13048 431.585967,1474.13332 C431.576791,1474.13894 431.567633,1474.14462 431.558496,1474.15036 C431.685937,1474.16898 431.815279,1474.17907 431.949479,1474.18155 C432.297294,1474.0828 432.644234,1473.98066 432.995599,1473.90721 C432.988831,1473.81709 432.959074,1473.72405 432.832727,1473.68726 C432.734545,1473.71902 432.541818,1473.84396 432.436364,1473.82279 C432.229091,1473.77408 432.276364,1473.67667 432.385455,1473.58349 C431.978182,1473.43738 431.88,1473.46067 431.785455,1473.49032 C431.629091,1473.53055 431.483636,1473.5369 431.069091,1473.4649 Z M426.972293,1473.67264 C426.806293,1473.65358 426.646293,1473.68323 426.488293,1473.72982 C426.51225,1473.75781 426.518463,1473.78833 426.514967,1473.82003 C426.577025,1473.89603 426.576535,1473.93517 426.530054,1473.96709 C426.737652,1473.99221 426.850152,1474.00108 426.964293,1474.00299 C427.086293,1473.96911 427.466293,1473.97546 427.516293,1473.86111 C427.610293,1473.64299 427.352293,1473.60911 426.972293,1473.67264 Z M441.07956,1473.44703 L440.984,1473.43 L440.966092,1473.45631 C440.950901,1473.47279 440.930101,1473.48834 440.907696,1473.50342 L440.839676,1473.54773 C440.753245,1473.60617 440.705225,1473.6645 440.951931,1473.75212 C441.178202,1473.62759 441.362989,1473.80294 441.574175,1473.79278 C441.728794,1473.79532 441.834387,1473.75974 441.951293,1473.75466 C442.158708,1473.74957 442.158708,1473.59201 442.369894,1473.77499 C442.524513,1473.77499 442.679131,1473.77753 442.833749,1473.77753 L442.639738,1473.77662 C442.692337,1473.50616 442.856383,1473.24387 443.129495,1473.03545 C442.364713,1472.91431 441.802202,1473.51282 441.07956,1473.44703 Z M438.262512,1473.01798 C438.241712,1473.12735 438.258462,1473.20017 438.063207,1473.25146 C437.90727,1473.29541 437.755596,1473.2546 437.614596,1473.12905 C437.384729,1473.16162 437.159664,1473.18329 436.941945,1473.18285 C436.680251,1473.18227 436.430737,1473.17942 436.187565,1473.1794 L435.963,1473.181 L436.054583,1473.33279 C436.085223,1473.38362 436.115393,1473.43444 436.143677,1473.48527 C436.225243,1473.50191 436.30742,1473.51813 436.393684,1473.53664 C436.462695,1473.54057 436.503475,1473.54294 436.545,1473.54294 L436.527179,1473.56658 C436.710737,1473.60979 436.917902,1473.66771 437.17698,1473.76228 C437.195836,1473.48527 438.866468,1473.49544 439.232273,1473.51069 C439.609391,1473.52593 439.99028,1473.67842 440.356084,1473.55389 C440.510703,1473.50306 440.646465,1473.35058 440.835024,1473.26671 C440.857515,1473.27727 440.877157,1473.28745 440.894208,1473.29729 L440.893633,1473.18529 L440.889175,1473.07103 C440.074656,1472.67416 439.152342,1472.85258 438.262512,1473.01798 Z M435.459,1473.193 C435.198315,1473.20559 434.937879,1473.22747 434.670078,1473.26596 L434.62012,1473.38107 C434.881746,1473.38346 435.574258,1473.49752 435.485788,1473.24583 L435.459,1473.193 Z M451.297498,1472.86263 C451.081399,1472.9033 450.870771,1472.94396 450.660142,1472.98462 C450.616375,1473.11677 450.575344,1473.24892 450.534312,1473.38107 C450.577689,1473.38162 450.637394,1473.388 450.70293,1473.39451 L450.826545,1473.40525 C451.033104,1473.31181 451.014295,1473.06178 451.33776,1473.11677 C451.348319,1473.0551 451.396041,1473.00906 451.466697,1472.97427 C451.406565,1472.96566 451.348389,1472.93406 451.297498,1472.86263 Z M357.507489,1471.09812 C357.370044,1471.20612 357.162115,1471.15529 357,1471.23365 C357.218502,1471.24635 357.440529,1471.25906 358.092511,1471.60212 C357.771806,1471.59576 357.736564,1471.85835 357.380617,1471.84776 C357.588546,1471.89859 357.919824,1472.09765 358.888987,1472.10612 C359.054626,1472.06376 359.230837,1472.04259 359.410573,1472.03412 C359.537445,1472.02776 359.671366,1472.02141 359.801762,1472.01506 C359.770044,1471.95788 359.738326,1471.89859 359.932159,1471.76094 C360.136564,1471.81388 360.372687,1471.84988 359.343612,1472.24165 C359.632599,1472.28824 360.002643,1472.10188 360.242291,1472.31365 C360.587665,1472.25435 360.936564,1472.26071 360.961233,1472.20141 C360.907195,1472.19294 360.85629,1472.18259 360.885789,1472.03169 L360.897,1471.98 L360.968914,1471.97743 C361.017692,1471.97704 361.065636,1471.97926 361.112303,1471.98669 L361.248025,1472.02724 C361.418025,1472.03147 361.580025,1471.95524 361.794025,1471.8303 C361.672025,1471.84088 361.550025,1471.86206 361.460025,1471.73288 C361.522025,1471.61853 361.628025,1471.67994 361.576025,1471.55288 C361.440025,1471.53594 361.304025,1471.52747 361.166025,1471.50206 C361.090025,1471.50841 360.994025,1471.52959 360.936025,1471.44277 C360.844025,1471.37712 360.746025,1471.3623 360.474025,1471.42159 C360.414025,1471.43218 360.358025,1471.44277 360.206025,1471.58465 C360.202025,1471.58465 360.440025,1471.53806 360.468025,1471.57406 C360.491168,1471.6031 360.499984,1471.63331 360.492585,1471.67602 L360.479,1471.722 L360.467841,1471.72494 C360.238767,1471.74965 360.009692,1471.74347 359.705156,1471.70764 L359.512775,1471.68259 C359.347137,1471.72071 359.24141,1471.61906 358.804405,1471.51953 C358.695154,1471.49624 358.585903,1471.47082 357.926872,1471.19765 C357.757709,1471.23788 357.627313,1471.19129 357.507489,1471.09812 Z M450.119669,1471.3988 C449.77272,1471.46233 449.429543,1471.54112 449.059967,1471.51824 C448.731874,1471.61227 448.660222,1471.80542 448.645137,1472.01635 C448.841239,1472.01127 449.022255,1472.04685 449.191958,1472.11547 C449.395022,1471.96134 449.616259,1472.04725 449.804166,1472.18161 C450.032083,1472.15911 450.256891,1472.09237 450.476868,1471.95536 C450.415995,1471.77964 450.436332,1471.56539 450.43351,1471.43509 C450.319746,1471.42804 450.209769,1471.41052 450.119669,1471.3988 Z M431.909922,1472.01318 L431.818,1472.073 L431.860569,1472.07811 C431.874927,1472.07953 431.889284,1472.08097 431.903641,1472.08243 L432.441792,1472.14088 C432.566498,1472.15416 432.690961,1472.16644 432.815049,1472.17604 L432.977148,1472.08084 L433.156106,1471.99856 C432.740046,1471.78585 432.290751,1471.79134 431.909922,1472.01318 Z M375.757087,1471.35518 L375.522435,1471.35809 C374.486354,1471.36233 373.450273,1471.36656 372.313111,1471.35597 C372.311908,1471.42303 372.270994,1471.45974 372.219116,1471.48821 L372.10926,1471.54072 C372.037634,1471.57715 371.980587,1471.62515 372.006258,1471.73715 C372.349212,1471.7435 372.518883,1471.88538 372.890717,1472.05691 C373.071533,1471.96632 373.076774,1471.8793 373.060329,1471.80158 L373.046334,1471.74512 C373.017621,1471.62695 373.033235,1471.53708 373.753516,1471.49997 C373.865428,1471.51268 374.05676,1471.41103 374.045929,1471.6588 C374.417763,1471.69268 375.121721,1471.63127 375.388864,1471.97221 C375.486335,1471.83668 375.356373,1471.61856 375.941199,1471.56562 C375.96647,1471.52115 376.02062,1471.50633 375.99174,1471.36021 L375.757087,1471.35518 Z M361,1471.68259 C360.951542,1471.80488 360.919824,1471.89766 360.900771,1471.96824 L360.897,1471.98 L360.820525,1471.98382 C360.670525,1471.99282 360.517025,1472.00182 360.372025,1471.94041 C360.426025,1471.84421 360.46129,1471.77563 360.47971,1471.72332 L360.479,1471.722 L360.601339,1471.6998 C360.766555,1471.67446 360.884405,1471.6792 361,1471.68259 Z M387.989483,1471.07604 C388.249695,1471.12941 388.509906,1471.19803 388.773889,1471.24377 C387.510543,1471.84862 385.477878,1471.58178 384.173049,1471.13449 C385.244064,1471.16499 386.469698,1471.30223 387.344611,1470.81682 C385.966874,1470.52541 384.290794,1470.47006 382.718631,1470.60033 L382.521,1470.619 L382.515389,1470.62094 L382.505,1470.62 L382.313,1470.638 L382.28337,1470.64901 C382.223222,1470.67944 382.167222,1470.72179 382.105889,1470.74721 C381.891889,1470.83191 381.655889,1470.80015 381.433889,1470.80438 L381.433,1470.802 L381.432,1470.793 L381.431,1470.791 L381.431,1470.785 L381.43,1470.781 L381.43,1470.78 L381.429,1470.771 L381.428,1470.766 L381.428,1470.762 L381.427,1470.755 L381.427,1470.754 L381.342603,1470.76633 C381.195242,1470.79004 381.050127,1470.81545 380.90766,1470.84252 L380.488607,1470.92864 C380.968624,1471.58377 380.702121,1471.46801 380.364372,1471.30379 L380.250077,1471.24824 C380.096635,1471.17443 379.943941,1471.1069 379.851277,1471.10908 C379.545498,1471.11501 378.953553,1471.10105 378.368881,1471.07477 L378.19,1471.065 L378.394188,1471.08811 C378.679501,1471.12481 378.954473,1471.17686 379.203791,1471.25314 L379.44399,1471.3378 C378.523822,1471.43184 377.445265,1471.35559 376.468529,1471.50554 C377.098316,1471.98077 382.419451,1471.98077 381.963138,1471.22344 C382.44962,1471.15483 382.724916,1471.08113 383.226483,1471.21074 C382.766399,1471.30731 382.464705,1471.60719 382.310087,1471.69106 C384.792539,1471.84458 387.370111,1471.84716 389.945328,1471.82299 L389.958145,1471.79525 C389.594333,1471.68343 389.197695,1471.38863 388.833882,1471.30477 C389.599803,1471.32002 392.0699,1471.81813 392.379004,1471.43184 C392.797525,1471.54874 392.729139,1471.45471 393.136719,1471.44454 C392.463802,1471.18532 391.75806,1470.94135 391.046848,1470.86765 C391.253646,1470.75786 391.419085,1470.59867 391.58157,1470.44167 L391.613958,1470.41111 C390.270936,1470.33388 388.765225,1470.39663 387.989483,1471.07604 Z M441.062725,1471.41365 C441.140725,1471.48353 441.240725,1471.48776 441.342725,1471.49412 L441.368322,1471.60489 L441.375,1471.641 L441.192,1471.645 L441.188481,1471.66166 C441.157556,1471.74935 441.088667,1471.74612 441.042,1471.81494 C440.968,1471.75141 440.886,1471.73871 440.798,1471.74506 C440.838,1471.69212 440.926,1471.69 441.014,1471.68153 L441.083185,1471.66475 L441.125,1471.646 L440.746956,1471.65345 L440.675,1471.653 L440.638725,1471.636 C440.788725,1471.56612 440.940725,1471.51953 441.062725,1471.41365 Z M397.474025,1471.42159 C397.414025,1471.43218 397.358025,1471.44277 397.206025,1471.58465 C397.202025,1471.58465 397.440025,1471.53806 397.468025,1471.57406 C397.506922,1471.62287 397.505348,1471.67498 397.454333,1471.78421 C397.800721,1471.7886 398.148394,1471.78412 398.496242,1471.77613 L398.460025,1471.73288 C398.522025,1471.61853 398.628025,1471.67994 398.576025,1471.55288 C398.440025,1471.53594 398.304025,1471.52747 398.166025,1471.50206 C398.090025,1471.50841 397.994025,1471.52959 397.936025,1471.44277 C397.844025,1471.37712 397.746025,1471.3623 397.474025,1471.42159 Z M394.380617,1471.09812 C394.277533,1471.20612 394.121586,1471.15529 394,1471.23365 C394.163877,1471.24635 394.330396,1471.25906 394.819383,1471.60212 C394.664237,1471.59802 394.598167,1471.70582 394.499167,1471.78002 L395.529516,1471.77559 L396.18,1471.78 L396.199119,1471.76094 L396.255696,1471.78068 L396.97,1471.785 L397,1471.68259 C396.913304,1471.6792 396.824916,1471.67446 396.701004,1471.6998 L396.600881,1471.72494 C396.394714,1471.75459 396.188546,1471.73976 395.884581,1471.68259 C395.760352,1471.72071 395.681057,1471.61906 395.353304,1471.51953 C395.271366,1471.49624 395.189427,1471.47082 394.695154,1471.19765 C394.568282,1471.23788 394.470485,1471.19129 394.380617,1471.09812 Z M409.604,1471.066 L409.750714,1471.08811 C410.026651,1471.13704 410.289252,1471.21328 410.51219,1471.3378 C409.844744,1471.43184 409.06241,1471.35559 408.353933,1471.50554 C408.391406,1471.54452 408.451778,1471.58031 408.530857,1471.61274 C409.252979,1471.62969 409.949513,1471.61013 410.582621,1471.50299 C410.56299,1471.40472 410.605923,1471.24321 410.616819,1471.10833 C410.374671,1471.10765 410.031781,1471.09387 409.696024,1471.07248 L409.604,1471.066 Z M407.817816,1471.35518 L407.641826,1471.35809 C406.864766,1471.36233 406.087705,1471.36656 405.234833,1471.35597 C405.233907,1471.42483 405.20158,1471.46168 405.161194,1471.49048 C405.496352,1471.48612 405.842948,1471.49547 406.194333,1471.50989 L406.315137,1471.49997 C406.375445,1471.5091 406.466505,1471.45919 406.509976,1471.52228 C406.946168,1471.54485 407.389242,1471.5708 407.828725,1471.5903 L407.849037,1471.58397 L407.9559,1471.56562 C407.974852,1471.52115 408.015465,1471.50633 407.993805,1471.36021 L407.817816,1471.35518 Z M412.214614,1470.70037 L412.18,1470.707 L412.105889,1470.74721 C412.020289,1470.78109 411.931169,1470.79634 411.840833,1470.80271 L411.725,1470.805 L411.573866,1470.84252 L411.269905,1470.92864 C411.274466,1470.93722 411.278934,1470.94567 411.28331,1470.95399 C411.475042,1470.96476 411.66757,1470.9958 411.838424,1471.043 C411.838424,1471.13958 411.785627,1471.29968 411.800712,1471.39626 C411.938721,1471.45242 412.08248,1471.49194 412.229256,1471.51593 C412.344465,1471.4336 412.389107,1471.33704 412.339459,1471.22344 C412.69233,1471.15483 412.892017,1471.08113 413.255829,1471.21074 C413.040999,1471.2729 412.873778,1471.41932 412.751978,1471.53813 C413.059187,1471.51601 413.363913,1471.43506 413.644819,1471.30477 C413.667446,1471.19549 413.573166,1470.97947 413.550539,1470.89815 C413.478887,1470.86765 414.202953,1470.90323 414.108674,1470.93373 C414.097889,1471.00848 414.088363,1471.0756 414.084211,1471.14184 C414.826404,1471.17937 415.64687,1471.27273 416.242922,1470.81682 C415.043709,1470.46713 413.532874,1470.45737 412.214614,1470.70037 Z M414.006871,1471.16274 L414.082081,1471.19706 C414.081092,1471.27458 414.089019,1471.35347 414.112445,1471.44454 C414.444759,1471.47145 414.782301,1471.49551 415.124161,1471.51689 C414.781624,1471.45089 414.449882,1471.34928 414.155648,1471.22846 L414.006871,1471.16274 Z M411.549889,1470.57991 C411.465889,1470.57356 411.395889,1470.59262 411.433889,1470.80438 C411.522689,1470.80269 411.613729,1470.80675 411.704705,1470.80682 L411.725,1470.805 L411.889353,1470.76633 L412.18,1470.707 L412.195074,1470.69999 C412.224259,1470.68242 412.253296,1470.66423 412.28337,1470.64901 L412.377889,1470.61591 C412.387139,1470.61432 412.397639,1470.61409 412.408865,1470.61458 L412.480756,1470.62094 C412.540951,1470.62485 412.593139,1470.61459 412.571889,1470.51003 C412.225889,1470.44438 411.889889,1470.53756 411.549889,1470.57991 Z M367.35537,1470.51816 L367.325,1470.51974 C367.027,1470.6108 366.725,1470.66797 366.415,1470.70821 C366.737,1470.80138 367.065,1470.71033 367.385,1470.77597 C367.437,1470.75268 367.485,1470.73785 367.585,1470.65527 C367.491667,1470.55785 367.433889,1470.52821 367.387963,1470.52052 L367.35537,1470.51816 Z M401.35537,1470.51816 L401.325,1470.51974 C401.027,1470.6108 400.725,1470.66797 400.415,1470.70821 C400.737,1470.80138 401.065,1470.71033 401.385,1470.77597 C401.437,1470.75268 401.485,1470.73785 401.585,1470.65527 C401.491667,1470.55785 401.433889,1470.52821 401.387963,1470.52052 L401.35537,1470.51816 Z M381.549889,1470.57991 C381.476389,1470.57435 381.413607,1470.58825 381.424518,1470.73368 L381.427,1470.754 L381.791021,1470.70037 C381.942472,1470.68012 382.095766,1470.66162 382.250502,1470.64493 L382.313,1470.638 L382.377889,1470.61591 C382.387139,1470.61432 382.397639,1470.61409 382.408865,1470.61458 L382.480756,1470.62094 L382.505,1470.62 L382.521,1470.619 L382.544959,1470.6137 C382.562287,1470.6056 382.574147,1470.59011 382.57635,1470.56209 L382.571889,1470.51003 C382.225889,1470.44438 381.889889,1470.53756 381.549889,1470.57991 Z M389.839295,1469.94609 L389.602152,1469.99705 C389.407765,1470.04334 389.220145,1470.09643 389.041642,1470.15606 C389.883967,1470.19661 391.000288,1470.03906 391.897204,1470.15926 L391.91398,1470.1459 C391.245258,1470.07751 390.536135,1470.03767 389.839295,1469.94609 Z M472.016,1464.91671 C471.998,1465.19835 472.002,1465.43765 471.546,1465.78918 C471.638,1465.75953 471.736,1465.76376 471.914,1465.68753 C471.96,1465.66424 472.004,1465.64518 472.12,1465.61765 C472.122,1465.34659 472.442,1465.49482 472.454,1465.06706 C472.306,1465.04376 472.16,1465.02259 472.016,1464.91671 Z M467.914,1464.97618 C467.8,1465.01642 467.74,1465.17312 467.594,1465.13712 C467.514,1465.33195 467.536,1465.50983 467.434,1465.6623 C467.538,1465.6623 467.692,1465.70253 467.792,1465.71312 C467.89925,1465.72394 467.99056,1465.66878 468.012894,1465.78011 C468.098353,1465.78005 468.184678,1465.77759 468.271093,1465.7748 L468.34,1465.75971 C468.392,1465.68559 468.49,1465.67924 468.566,1465.58606 C468.522,1465.30018 468.438,1465.52889 468.304,1465.41877 C468.256,1465.37642 468.274,1465.26842 468.088,1465.07359 C468.122,1465.01642 468.094,1464.94018 468.16,1464.87453 C468.076,1464.80042 468.016,1464.91901 467.914,1464.97618 Z M464.000858,1465.10949 C463.986913,1465.21948 463.958007,1465.3284 463.88164,1465.44669 L463.97332,1465.47919 C463.950825,1465.53547 463.976073,1465.57422 464.102504,1465.62213 L464.12,1465.61765 C464.121783,1465.37598 464.376341,1465.46761 464.44003,1465.18716 L464.403668,1465.16578 C464.501934,1465.08017 464.25642,1465.07136 464.000858,1465.10949 Z M352.608275,1460.86765 C352.465509,1460.86274 352.288638,1460.91828 352,1461.10929 C352.0704,1461.21094 353.473698,1461.30835 353.755296,1461.29776 C353.989961,1461.28929 354.248093,1461.19612 354.463985,1461.20459 C354.689264,1461.21306 354.81129,1461.338 355.064728,1461.36976 L355.204,1461.366 L355.089206,1461.33483 C354.538325,1461.18731 353.973748,1461.05263 353.403069,1460.96201 C353.200279,1460.95036 353.002113,1460.92351 352.807248,1460.89965 C352.78012,1460.89168 352.75333,1460.88459 352.726253,1460.87896 C352.687158,1460.87386 352.647723,1460.87061 352.608275,1460.86765 Z M343.684548,1458.30339 L343.517,1458.317 L343.638983,1458.31591 C344.531058,1458.30718 345.411358,1458.34386 346.044664,1458.36336 L346.246295,1458.36914 C345.507144,1458.18108 344.603268,1458.22764 343.684548,1458.30339 Z M472.016,1454.91671 C472.0064,1455.06692 472.003058,1455.20508 471.932852,1455.35465 C472.023171,1455.38252 472.12203,1455.40941 472.224426,1455.43525 C472.321462,1455.37581 472.446582,1455.3315 472.454,1455.06706 C472.306,1455.04376 472.16,1455.02259 472.016,1454.91671 Z" id="Combined-Shape-Copy-22"></path>
        </g>
    </g>
</svg>
