<svg id="Layer_1" data-name="Layer 1" xmlns="http://www.w3.org/2000/svg" viewBox="0 0 15 15"><defs><style>.cls-1{fill:none;}.cls-2{fill:#005def;}</style></defs><title>arrows-icon</title><rect class="cls-1" x="-712.5" y="-504.5" width="1440" height="1024"/><rect class="cls-1" x="-712.5" y="-504.5" width="1440" height="1024"/><rect class="cls-1" x="-712" y="-503" width="1440" height="1024"/><path class="cls-2" d="M3,5.44l-.1-.06a.66.66,0,0,0-.12-.08.67.67,0,0,0-.51,0,.66.66,0,0,0-.13.08l-.09.06L.38,7.11a.67.67,0,1,0,.94,1l.58-.56v6.72a.67.67,0,1,0,1.35,0V7.52l.57.56a.68.68,0,0,0,.94-1Z"/><path class="cls-2" d="M14.62,7.11,12.9,5.44a.64.64,0,0,0-.11-.07l-.1-.07a.67.67,0,0,0-.51,0A.66.66,0,0,0,12,5.4l-.05,0h0L10.24,7.11a.67.67,0,0,0,.94,1l.57-.56v6.72a.67.67,0,1,0,1.35,0V7.52l.58.56a.67.67,0,0,0,.94-1Z"/><path class="cls-2" d="M8,.29H8L7.9.24a.66.66,0,0,0-.15-.1.67.67,0,0,0-.51,0,.66.66,0,0,0-.15.1L7,.28H7L5.31,2a.67.67,0,0,0,.94,1l.58-.56V14.24a.67.67,0,1,0,1.35,0V2.36l.58.56a.67.67,0,0,0,.94-1Z"/></svg>