<?xml version="1.0" encoding="utf-8"?>
<!-- Generator: Adobe Illustrator 21.1.0, SVG Export Plug-In . SVG Version: 6.00 Build 0)  -->
<svg version="1.1" id="Layer_1" xmlns="http://www.w3.org/2000/svg" xmlns:xlink="http://www.w3.org/1999/xlink" x="0px" y="0px"
	 viewBox="0 0 38.6 23.3" style="enable-background:new 0 0 38.6 23.3;" xml:space="preserve">
<style type="text/css">
	.st0{clip-path:url(#SVGID_2_);}
	.st1{clip-path:url(#SVGID_4_);enable-background:new    ;}
	.st2{clip-path:url(#SVGID_6_);}
	.st3{clip-path:url(#SVGID_8_);}
</style>
<g>
	<path d="M36.8,23.1h-35c-0.8,0-1.5-0.7-1.5-1.5V1.7c0-0.8,0.7-1.5,1.5-1.5h35c0.8,0,1.5,0.7,1.5,1.5v19.9
		C38.3,22.4,37.6,23.1,36.8,23.1z M1.8,1.2c-0.3,0-0.5,0.2-0.5,0.5v19.9c0,0.3,0.2,0.5,0.5,0.5h35c0.3,0,0.5-0.2,0.5-0.5V1.7
		c0-0.3-0.2-0.5-0.5-0.5H1.8z"/>
	<g>
		<defs>
			<rect id="SVGID_1_" x="0.3" y="0.2" width="38" height="22.9"/>
		</defs>
		<clipPath id="SVGID_2_">
			<use xlink:href="#SVGID_1_"  style="overflow:visible;"/>
		</clipPath>
		<g class="st0">
			<defs>
				<rect id="SVGID_3_" x="-72.7" y="-478.9" width="320" height="817"/>
			</defs>
			<clipPath id="SVGID_4_">
				<use xlink:href="#SVGID_3_"  style="overflow:visible;"/>
			</clipPath>
			<g class="st1">
				<g>
					<defs>
						<rect id="SVGID_5_" x="-4.7" y="-1.9" width="48" height="25"/>
					</defs>
					<clipPath id="SVGID_6_">
						<use xlink:href="#SVGID_5_"  style="overflow:visible;"/>
					</clipPath>
					<g class="st2">
						<defs>
							<rect id="SVGID_7_" x="0.3" y="0.1" width="39" height="23"/>
						</defs>
						<clipPath id="SVGID_8_">
							<use xlink:href="#SVGID_7_"  style="overflow:visible;"/>
						</clipPath>
						<path class="st3" d="M38.3,18.6H18.8v-13h19.5V18.6z M19.8,17.6h17.5v-11H19.8V17.6z"/>
						<rect x="0.8" y="8.1" class="st3" width="18.5" height="1"/>
						<rect x="0.8" y="2.8" class="st3" width="37" height="1"/>
						<g class="st3">
							<path d="M23.8,14.6v-3.8l-1,0.5l-0.5-1.1L24,9.3h1.2v5.3H23.8z"/>
							<path d="M26.3,14.6v-0.8c0-0.4,0.1-0.7,0.3-1c0.2-0.3,0.6-0.6,1.1-1c0.4-0.3,0.6-0.5,0.8-0.6s0.2-0.3,0.2-0.5
								c0-0.1,0-0.2-0.1-0.3c-0.1-0.1-0.2-0.1-0.4-0.1c-0.2,0-0.4,0.1-0.6,0.2c-0.2,0.1-0.3,0.3-0.5,0.5l-1-0.7
								c0.3-0.4,0.6-0.7,0.9-0.9c0.3-0.2,0.7-0.3,1.2-0.3c0.4,0,0.7,0.1,0.9,0.2s0.5,0.3,0.7,0.5s0.2,0.5,0.2,0.8
								c0,0.3-0.1,0.6-0.3,0.9c-0.2,0.3-0.5,0.6-0.9,0.9c-0.3,0.2-0.5,0.4-0.6,0.5c-0.1,0.1-0.2,0.2-0.3,0.3s-0.1,0.1-0.1,0.2h2.2
								v1.2H26.3z"/>
							<path d="M33.2,11.4c0.4,0.1,0.7,0.3,0.9,0.6s0.3,0.6,0.3,1c0,0.3-0.1,0.6-0.3,0.9c-0.2,0.3-0.4,0.5-0.7,0.6s-0.7,0.2-1.1,0.2
								c-0.8,0-1.4-0.2-2-0.7l0.7-1c0.2,0.2,0.4,0.3,0.5,0.4s0.4,0.1,0.6,0.1c0.3,0,0.5-0.1,0.6-0.2c0.2-0.1,0.2-0.3,0.2-0.5
								c0-0.2-0.1-0.4-0.2-0.5c-0.1-0.1-0.3-0.2-0.6-0.2c-0.2,0-0.4,0-0.6,0.1l-0.3-0.5l1.3-1.3h-2V9.3h3.4v1L33.2,11.4z"/>
						</g>
					</g>
				</g>
			</g>
		</g>
	</g>
</g>
</svg>
