<svg id="Layer_1" data-name="Layer 1" xmlns="http://www.w3.org/2000/svg" viewBox="0 0 15 15"><defs><style>.cls-1{fill:none;stroke:#1963aa;stroke-linecap:round;stroke-linejoin:round;stroke-width:0.75px;}</style></defs><title>delete-icon</title><line class="cls-1" x1="1.96" y1="3.83" x2="13.04" y2="3.83"/><path class="cls-1" d="M10,3.83C10,1.66,8.94,1.66,7.5,1.66S5,1.66,5,3.83"/><path class="cls-1" d="M3.48,3.83h8.26a0,0,0,0,1,0,0v8.8a.71.71,0,0,1-.71.71H4.18a.71.71,0,0,1-.71-.71V3.83A0,0,0,0,1,3.48,3.83Z"/><line class="cls-1" x1="5.59" y1="6.45" x2="5.59" y2="10.87"/><line class="cls-1" x1="7.65" y1="6.45" x2="7.65" y2="10.87"/><line class="cls-1" x1="9.7" y1="6.45" x2="9.7" y2="10.87"/></svg>