<?xml version="1.0" encoding="UTF-8"?>
<svg width="12px" height="12px" viewBox="0 0 12 12" version="1.1" xmlns="http://www.w3.org/2000/svg" xmlns:xlink="http://www.w3.org/1999/xlink">
    <!-- Generator: Sketch 62 (91390) - https://sketch.com -->
    <title>Icons / Info</title>
    <desc>Created with Sketch.</desc>
    <defs>
        <path d="M6,12 C9.3137085,12 12,9.31370864 12,6 C12,2.68629154 9.3137085,0 6,0 C2.6862915,0 0,2.68629154 0,6 C0,9.31370864 2.6862915,12 6,12 Z M6,11.2000002 C3.1281193,11.2000002 0.8,8.87188083 0.8,6.00000009 C0.8,3.12811935 3.1281193,0.800000012 6,0.800000012 C8.8718807,0.800000012 11.2,3.12811935 11.2,6.00000009 C11.2,8.87188083 8.8718807,11.2000002 6,11.2000002 Z M6.02390909,2.40000004 C7.30594545,2.40000004 8.56812727,2.99327504 8.56812727,4.41233757 C8.56812727,5.72096259 7.07572727,6.22422509 6.75521818,6.6970876 C6.5146,7.04882511 6.59496364,7.54306261 5.93385455,7.54306261 C5.5032,7.54306261 5.29283636,7.19108761 5.29283636,6.8690376 C5.29283636,5.67061258 7.04523636,5.39938758 7.04523636,4.41257507 C7.04523636,3.86941256 6.68549091,3.54736255 6.08418182,3.54736255 C4.80214545,3.54736255 5.30276364,4.87546257 4.33178182,4.87546257 C3.98125455,4.87546257 3.6803636,4.66408757 3.6803636,4.26176256 C3.68012727,3.27471255 4.80167273,2.40000004 6.02390909,2.40000004 Z M5.97403636,8.19642512 C6.42407273,8.19642512 6.7954,8.56835013 6.7954,9.02197513 C6.7954,9.47560014 6.42478182,9.84752515 5.97403636,9.84752515 C5.52329091,9.84752515 5.15243636,9.47607514 5.15243636,9.02197513 C5.15243636,8.56858763 5.52329091,8.19642512 5.97403636,8.19642512 Z" id="path-1"></path>
    </defs>
    <g id="Symbols" stroke="none" stroke-width="1" fill="none" fill-rule="evenodd">
        <g id="Icons-/-Info">
            <mask id="mask-2" fill="white">
                <use xlink:href="#path-1"></use>
            </mask>
            <use id="Mask" fill="#000080" fill-rule="nonzero" xlink:href="#path-1"></use>
        </g>
    </g>
</svg>