<?xml version="1.0" encoding="UTF-8"?>
<svg width="38px" height="32px" viewBox="0 0 38 32" version="1.1" xmlns="http://www.w3.org/2000/svg" xmlns:xlink="http://www.w3.org/1999/xlink">
    <title>B6916FF2-0FCE-4AFB-BC9E-1BA5012495A5</title>
    <g id="Page-1" stroke="none" stroke-width="1" fill="none" fill-rule="evenodd">
        <g id="Winners-banner-/-Desktop" transform="translate(-122.000000, -395.000000)">
            <g id="Group-12-Copy-4" transform="translate(96.000000, 383.000000)">
                <g id="Group-13" transform="translate(27.000000, 13.000000)">
                    <path d="M32.00964,5.86092 L33.5470044,6.5411845 C35.0803112,7.21694394 36.0672,8.73515014 36.0672,10.4065285 L36.0672,11.9022094 L36.0672,28.4402953 C36.0672,28.9763978 35.8327632,29.4539345 35.458566,29.773794 C35.1519948,30.0440977 34.7462388,30.20628 34.3044156,30.20628 L1.7672928,30.20628 C1.3254696,30.20628 0.9197136,30.0440977 0.6131424,29.7692889 C0.23488764,29.4539345 -2.48689958e-14,28.9763978 -2.48689958e-14,28.4402953 L-2.48689958e-14,11.9022094 L-2.48689958e-14,10.4065285 C-2.48689958e-14,8.73515014 0.9873396,7.21694394 2.5201956,6.5411845 L4.05756,5.86092" id="Stroke-3" stroke="#000080" stroke-width="1.326" stroke-linecap="round" stroke-linejoin="round"></path>
                    <path d="M11.271,2.70504 L16.34074,0.412396279 C17.560218,-0.137465426 18.957822,-0.137465426 20.1773,0.412396279 L25.24704,2.70504" id="Stroke-5" stroke="#000080" stroke-width="1.326" stroke-linecap="round" stroke-linejoin="round"></path>
                    <line x1="35.16552" y1="29.75544" x2="20.73864" y2="19.38612" id="Stroke-9" stroke="#000080" stroke-width="1.326" stroke-linecap="round" stroke-linejoin="round"></line>
                    <line x1="15.32856" y1="19.38612" x2="0.90168" y2="29.75544" id="Stroke-11" stroke="#000080" stroke-width="1.326" stroke-linecap="round" stroke-linejoin="round"></line>
                    <path d="M4.05756,13.5341158 L4.05756,5.86819161 L4.05756,5.43189484 C4.05756,3.92757992 5.2703196,2.70504 6.7626,2.70504 L11.135748,2.70504 L24.931452,2.70504 L29.3046,2.70504 C30.7973312,2.70504 32.00964,3.92757992 32.00964,5.43189484 L32.00964,5.86819161 L32.00964,13.5341158" id="Stroke-1" stroke="#000080" stroke-width="1.326" stroke-linecap="round" stroke-linejoin="round"></path>
                    <path d="M-2.48689958e-14,11.72184 L15.6721001,19.2971324 C17.1607738,20.0169025 18.9064262,20.0169025 20.3955508,19.2971324 L36.0672,11.72184" id="Stroke-7" stroke="#000080" stroke-width="1.326" stroke-linecap="round" stroke-linejoin="round"></path>
                    <circle id="Oval" fill="#CB0000" cx="9.282" cy="8.619" r="2.652"></circle>
                    <g id="Group-3" transform="translate(14.586000, 6.630000)" stroke="#000080" stroke-linecap="round" stroke-width="1.326">
                        <line x1="0.2900625" y1="0.3315" x2="13.6329375" y2="0.3315" id="Line"></line>
                        <line x1="0.2900625" y1="3.6465" x2="13.6329375" y2="3.6465" id="Line-Copy"></line>
                    </g>
                </g>
            </g>
        </g>
    </g>
</svg>