<?xml version="1.0" encoding="UTF-8"?>
<svg width="19px" height="18px" viewBox="0 0 19 18" version="1.1" xmlns="http://www.w3.org/2000/svg" xmlns:xlink="http://www.w3.org/1999/xlink">
    <!-- Generator: sketchtool 62 (101010) - https://sketch.com -->
    <title>E30C3AA1-3EDD-4448-8AB4-AD7FD3193870</title>
    <desc>Created with sketchtool.</desc>
    <g id="Desktop" stroke="none" stroke-width="1" fill="none" fill-rule="evenodd">
        <g id="Play-EuroMillions-/-Step-5" transform="translate(-915.000000, -366.000000)" fill="#000080" fill-rule="nonzero" stroke="#FFFFFF">
            <g id="3.-Organisms-/-Play-/-Section-/-Desktop-/-EuroMillions" transform="translate(0.000000, 80.000000)">
                <g id="3.-Organisms-/-Play-/-Play-Slip-/-EuroMillions-3.-Organisms-/-Play-/-Play-Slip-/-Desktop-/-EuroMillions" transform="translate(509.000000, 177.000000)">
                    <g id="Group-2" transform="translate(0.000000, -5.000000)">
                        <g id="1.-Atoms-/-Play-/-Number-Fields-/-Desktop-/-Lucky-Stars-/-Lucky-Dip" transform="translate(383.000000, 115.000000)">
                            <path d="M31.8018578,0.361702128 C31.9114535,0.140340426 32.1371556,1.77635684e-15 32.3838365,1.77635684e-15 C32.6305173,1.77635684e-15 32.8565812,0.140340426 32.9658152,0.361702128 L35.0531982,4.59180851 C35.1476024,4.78314894 35.3306237,4.91589362 35.5422195,4.9466383 L40.2103471,5.62482979 C40.4552195,5.6602766 40.6577727,5.8317234 40.7340918,6.06646809 C40.810411,6.30121277 40.7467514,6.55946809 40.569879,6.7316383 L37.1923046,10.0245745 C37.0393046,10.1735957 36.9694961,10.3884468 37.0053046,10.5989574 L37.8024961,15.2486383 C37.8437301,15.4924255 37.744262,15.738383 37.543879,15.8837872 C37.3438578,16.0284681 37.0794535,16.0476383 36.860262,15.9333404 L32.6847727,13.7378085 C32.4959641,13.6383404 32.2699003,13.6383404 32.0807301,13.7378085 L27.9052407,15.9329787 C27.6867727,16.0476383 27.421645,16.0288298 27.2216237,15.8837872 C27.0216024,15.7387447 26.9217727,15.4924255 26.9633684,15.2486383 L27.7605599,10.5989574 C27.7967301,10.3884468 27.7265599,10.1735957 27.5735599,10.0245745 L24.1959854,6.7316383 C24.0191131,6.55910638 23.9554535,6.30121277 24.0317727,6.06646809 C24.1080918,5.8317234 24.3110067,5.6602766 24.555879,5.62482979 L29.2247301,4.9466383 C29.4359641,4.91589362 29.6189854,4.78314894 29.7133897,4.59144681 L31.8018578,0.361702128 Z" id="Path"></path>
                        </g>
                    </g>
                </g>
            </g>
        </g>
    </g>
</svg>