<svg id="Layer_1" data-name="Layer 1" xmlns="http://www.w3.org/2000/svg" viewBox="0 0 15 15"><defs><style>.cls-1{fill:none;}.cls-2{fill:#005def;}</style></defs><title>rocket-icon</title><rect class="cls-1" x="-712.5" y="-504.5" width="1440" height="1024"/><rect class="cls-1" x="-712.5" y="-504.5" width="1440" height="1024"/><path class="cls-2" d="M.39,11.41a.28.28,0,0,1-.2-.49L2.27,8.85a.28.28,0,0,1,.4.4L.59,11.33A.29.29,0,0,1,.39,11.41Z"/><path class="cls-2" d="M2.08,11.44a.28.28,0,0,1-.2-.49l.7-.7a.28.28,0,1,1,.4.4l-.7.7A.29.29,0,0,1,2.08,11.44Z"/><path class="cls-2" d="M3.31,12a.28.28,0,0,1-.2-.48l.35-.35a.28.28,0,1,1,.4.4l-.35.35A.28.28,0,0,1,3.31,12Z"/><path class="cls-2" d="M3.87,14.89a.28.28,0,0,1-.2-.49l2.07-2.07a.28.28,0,0,1,.4.4L4.07,14.81A.29.29,0,0,1,3.87,14.89Z"/><path class="cls-2" d="M3.84,13.21a.28.28,0,0,1-.2-.49l.7-.7a.28.28,0,0,1,.4.4l-.7.7A.29.29,0,0,1,3.84,13.21Z"/><path class="cls-2" d="M14.68.44a.28.28,0,0,0-.12-.12c-.71-.37-2.17-.25-3.82.31a10,10,0,0,0-5.8,4.59L3.21,5A.28.28,0,0,0,3,5.07L.75,7.29a.28.28,0,0,0,.16.48l2.54.39L3.15,9.62a.28.28,0,0,0,.08.26l1.9,1.9a.28.28,0,0,0,.26.08l1.45-.31.39,2.54a.28.28,0,0,0,.19.23h.09a.29.29,0,0,0,.2-.08L9.93,12a.29.29,0,0,0,.08-.24l-.24-1.73a10,10,0,0,0,4.59-5.8C14.93,2.61,15.05,1.15,14.68.44ZM12.07,4.05a1.12,1.12,0,0,1-1.91.79h0a1.12,1.12,0,1,1,1.91-.79Z"/></svg>