<?xml version="1.0" encoding="utf-8"?>
<!-- Generator: Adobe Illustrator 21.1.0, SVG Export Plug-In . SVG Version: 6.00 Build 0)  -->
<svg version="1.1" id="Layer_1" xmlns="http://www.w3.org/2000/svg" xmlns:xlink="http://www.w3.org/1999/xlink" x="0px" y="0px"
	 viewBox="0 0 15 15" style="enable-background:new 0 0 15 15;" xml:space="preserve">
<style type="text/css">
	.st0{fill:none;}
	.st1{fill:#FFFFFF;}
</style>
<rect x="-712.5" y="-504.5" class="st0" width="1440" height="1024"/>
<rect x="-712.5" y="-504.5" class="st0" width="1440" height="1024"/>
<path class="st1" d="M0.4,11.4c-0.2,0-0.3-0.1-0.3-0.3c0-0.1,0-0.2,0.1-0.2l2.1-2.1c0.1-0.1,0.3-0.1,0.4,0c0.1,0.1,0.1,0.3,0,0.4
	l0,0l-2.1,2.1C0.5,11.4,0.5,11.4,0.4,11.4z"/>
<path class="st1" d="M2.1,11.4c-0.2,0-0.3-0.1-0.3-0.3c0-0.1,0-0.2,0.1-0.2l0.7-0.7c0.1-0.1,0.3-0.1,0.4,0c0.1,0.1,0.1,0.3,0,0.4
	l0,0l-0.7,0.7C2.2,11.4,2.2,11.4,2.1,11.4z"/>
<path class="st1" d="M3.3,12C3.2,12,3,11.9,3,11.7c0-0.1,0-0.2,0.1-0.2l0.3-0.4c0.1-0.1,0.3-0.1,0.4,0c0.1,0.1,0.1,0.3,0,0.4l0,0
	l-0.3,0.4C3.5,12,3.4,12,3.3,12z"/>
<path class="st1" d="M3.9,14.9c-0.2,0-0.3-0.1-0.3-0.3c0-0.1,0-0.2,0.1-0.2l2.1-2.1c0.1-0.1,0.3-0.1,0.4,0c0.1,0.1,0.1,0.3,0,0.4
	l0,0l-2.1,2.1C4,14.9,3.9,14.9,3.9,14.9z"/>
<path class="st1" d="M3.8,13.2c-0.2,0-0.3-0.1-0.3-0.3c0-0.1,0-0.2,0.1-0.2L4.3,12c0.1-0.1,0.3-0.1,0.4,0c0.1,0.1,0.1,0.3,0,0.4l0,0
	L4,13.1C4,13.2,3.9,13.2,3.8,13.2z"/>
<path class="st1" d="M14.7,0.4c0-0.1-0.1-0.1-0.1-0.1c-0.7-0.4-2.2-0.2-3.8,0.3C8.3,1.4,6.2,3,4.9,5.2L3.2,5C3.1,5,3.1,5,3,5.1
	L0.8,7.3c-0.1,0.1-0.1,0.3,0,0.4c0,0,0.1,0.1,0.2,0.1l2.5,0.4L3.2,9.6c0,0.1,0,0.2,0.1,0.3l1.9,1.9c0.1,0.1,0.2,0.1,0.3,0.1l1.4-0.3
	l0.4,2.5c0,0.1,0.1,0.2,0.2,0.2h0.1c0.1,0,0.1,0,0.2-0.1L9.9,12c0.1-0.1,0.1-0.2,0.1-0.2L9.8,10c2.2-1.3,3.9-3.4,4.6-5.8
	C14.9,2.6,15.1,1.1,14.7,0.4z M12.1,4.1c0,0.6-0.5,1.1-1.1,1.1c-0.3,0-0.6-0.1-0.8-0.3l0,0c-0.4-0.4-0.4-1.1,0-1.6
	c0.4-0.4,1.1-0.4,1.6,0C12,3.5,12.1,3.8,12.1,4.1z"/>
</svg>
