<?xml version="1.0" encoding="utf-8"?>
<!-- Generator: Adobe Illustrator 21.1.0, SVG Export Plug-In . SVG Version: 6.00 Build 0)  -->
<svg version="1.1" id="Layer_1" xmlns="http://www.w3.org/2000/svg" xmlns:xlink="http://www.w3.org/1999/xlink" x="0px" y="0px"
	 viewBox="0 0 1360.6 311.8" style="enable-background:new 0 0 1360.6 311.8;" xml:space="preserve">
<style type="text/css">
	.st0{opacity:0.2;}
	.st1{clip-path:url(#SVGID_2_);}
	.st2{clip-path:url(#SVGID_4_);fill:#58E0FD;}
	.st3{clip-path:url(#SVGID_6_);}
	.st4{clip-path:url(#SVGID_8_);fill:#6AC5FB;}
	.st5{clip-path:url(#SVGID_10_);}
	.st6{clip-path:url(#SVGID_12_);fill:#1A70CE;}
	.st7{clip-path:url(#SVGID_14_);}
	.st8{clip-path:url(#SVGID_16_);fill:#58E0FD;}
	.st9{clip-path:url(#SVGID_18_);}
	.st10{clip-path:url(#SVGID_20_);fill:#1A70CE;}
	.st11{clip-path:url(#SVGID_22_);}
	.st12{clip-path:url(#SVGID_24_);fill:#1A70CE;}
	.st13{clip-path:url(#SVGID_26_);}
	.st14{clip-path:url(#SVGID_28_);fill:#1A70CE;}
	.st15{clip-path:url(#SVGID_30_);}
	.st16{clip-path:url(#SVGID_32_);fill:#1A70CE;}
	.st17{clip-path:url(#SVGID_34_);}
	.st18{clip-path:url(#SVGID_36_);fill:#1A70CE;}
	.st19{clip-path:url(#SVGID_38_);}
	.st20{clip-path:url(#SVGID_40_);fill:#58E0FD;}
	.st21{clip-path:url(#SVGID_42_);}
	.st22{clip-path:url(#SVGID_44_);fill:#1A70CE;}
</style>
<g class="st0">
	<defs>
		<polygon id="SVGID_1_" class="st0" points="1343.3,59 1345.7,63.4 1350,65.7 1345.7,68.1 1343.3,72.4 1341,68.1 1336.6,65.7 
			1341,63.4 		"/>
	</defs>
	<clipPath id="SVGID_2_">
		<use xlink:href="#SVGID_1_"  style="overflow:visible;"/>
	</clipPath>
	<g class="st1">
		<defs>
			<rect id="SVGID_3_" x="12.3" y="9.4" width="1338" height="289"/>
		</defs>
		<clipPath id="SVGID_4_">
			<use xlink:href="#SVGID_3_"  style="overflow:visible;"/>
		</clipPath>
		<rect x="1331.6" y="54" class="st2" width="23.4" height="23.4"/>
	</g>
</g>
<g class="st0">
	<defs>
		<path id="SVGID_5_" class="st0" d="M369.5,24.4l5.9,3.2c0.5,0.3,0.5,1,0,1.3l-5.9,3.2c-0.1,0.1-0.2,0.2-0.3,0.3l-3.2,5.9
			c-0.3,0.5-1,0.5-1.3,0l-3.2-5.9c-0.1-0.1-0.2-0.2-0.3-0.3l-5.9-3.2c-0.5-0.3-0.5-1,0-1.3l5.9-3.2c0.1-0.1,0.2-0.2,0.3-0.3l3.2-5.9
			c0.3-0.5,1-0.5,1.3,0l3.2,5.9C369.2,24.2,369.3,24.4,369.5,24.4"/>
	</defs>
	<clipPath id="SVGID_6_">
		<use xlink:href="#SVGID_5_"  style="overflow:visible;"/>
	</clipPath>
	<g class="st3">
		<defs>
			<rect id="SVGID_7_" x="12.3" y="9.4" width="1338" height="289"/>
		</defs>
		<clipPath id="SVGID_8_">
			<use xlink:href="#SVGID_7_"  style="overflow:visible;"/>
		</clipPath>
		<rect x="349.7" y="12.8" class="st4" width="31.1" height="31.1"/>
	</g>
</g>
<g class="st0">
	<defs>
		<path id="SVGID_9_" class="st0" d="M215.4,219.4l16.5,9c0.7,0.4,0.7,1.5,0,1.9l-16.5,9c-0.2,0.1-0.3,0.2-0.4,0.4l-9,16.5
			c-0.4,0.7-1.5,0.7-1.9,0l-9-16.5c-0.1-0.2-0.2-0.3-0.4-0.4l-16.5-9c-0.7-0.4-0.7-1.5,0-1.9l16.5-9c0.2-0.1,0.3-0.2,0.4-0.4l9-16.5
			c0.4-0.7,1.5-0.7,1.9,0l9,16.5C215.1,219.1,215.2,219.3,215.4,219.4"/>
	</defs>
	<clipPath id="SVGID_10_">
		<use xlink:href="#SVGID_9_"  style="overflow:visible;"/>
	</clipPath>
	<g class="st5">
		<defs>
			<rect id="SVGID_11_" x="12.3" y="9.4" width="1338" height="289"/>
		</defs>
		<clipPath id="SVGID_12_">
			<use xlink:href="#SVGID_11_"  style="overflow:visible;"/>
		</clipPath>
		<rect x="172.6" y="196.9" class="st6" width="64.8" height="64.8"/>
	</g>
</g>
<g class="st0">
	<defs>
		<path id="SVGID_13_" class="st0" d="M1181.3,184.8l19.6,10.7c0.6,0.3,0.6,1.2,0,1.5l-19.6,10.7c-0.1,0.1-0.3,0.2-0.3,0.3
			l-10.7,19.6c-0.3,0.6-1.2,0.6-1.5,0l-10.7-19.6c-0.1-0.1-0.2-0.3-0.3-0.3l-19.6-10.7c-0.6-0.3-0.6-1.2,0-1.5l19.6-10.7
			c0.1-0.1,0.3-0.2,0.3-0.3l10.7-19.6c0.3-0.6,1.2-0.6,1.5,0l10.7,19.6C1181.1,184.6,1181.2,184.7,1181.3,184.8"/>
	</defs>
	<clipPath id="SVGID_14_">
		<use xlink:href="#SVGID_13_"  style="overflow:visible;"/>
	</clipPath>
	<g class="st7">
		<defs>
			<rect id="SVGID_15_" x="12.3" y="9.4" width="1338" height="289"/>
		</defs>
		<clipPath id="SVGID_16_">
			<use xlink:href="#SVGID_15_"  style="overflow:visible;"/>
		</clipPath>
		<rect x="1132.7" y="159.4" class="st8" width="73.7" height="73.7"/>
	</g>
</g>
<g class="st0">
	<defs>
		<path id="SVGID_17_" class="st0" d="M1083.2,68l12.8,7c0.3,0.1,0.3,0.5,0,0.6l-12.8,7c-0.1,0-0.1,0.1-0.1,0.1l-7,12.9
			c-0.1,0.3-0.5,0.3-0.6,0l-7-12.9c0-0.1-0.1-0.1-0.1-0.1l-12.9-7c-0.3-0.1-0.3-0.5,0-0.6l12.9-7c0.1,0,0.1-0.1,0.1-0.1l7-12.9
			c0.1-0.3,0.5-0.3,0.6,0l7,12.9C1083,67.9,1083.1,68,1083.2,68"/>
	</defs>
	<clipPath id="SVGID_18_">
		<use xlink:href="#SVGID_17_"  style="overflow:visible;"/>
	</clipPath>
	<g class="st9">
		<defs>
			<rect id="SVGID_19_" x="12.3" y="9.4" width="1338" height="289"/>
		</defs>
		<clipPath id="SVGID_20_">
			<use xlink:href="#SVGID_19_"  style="overflow:visible;"/>
		</clipPath>
		<rect x="1050.1" y="49.8" class="st10" width="51.1" height="51.1"/>
	</g>
</g>
<g class="st0">
	<defs>
		<polygon id="SVGID_21_" class="st0" points="115.5,35.4 122.4,48 134.9,54.8 122.4,61.7 115.5,74.2 108.7,61.7 96.1,54.8 
			108.7,48 		"/>
	</defs>
	<clipPath id="SVGID_22_">
		<use xlink:href="#SVGID_21_"  style="overflow:visible;"/>
	</clipPath>
	<g class="st11">
		<defs>
			<rect id="SVGID_23_" x="12.3" y="9.4" width="1338" height="289"/>
		</defs>
		<clipPath id="SVGID_24_">
			<use xlink:href="#SVGID_23_"  style="overflow:visible;"/>
		</clipPath>
		<rect x="91.1" y="30.4" class="st12" width="48.8" height="48.8"/>
	</g>
</g>
<g class="st0">
	<defs>
		<polygon id="SVGID_25_" class="st0" points="1004.4,284.4 1006.8,288.9 1011.4,291.4 1006.8,293.9 1004.4,298.4 1001.9,293.9 
			997.3,291.4 1001.9,288.9 		"/>
	</defs>
	<clipPath id="SVGID_26_">
		<use xlink:href="#SVGID_25_"  style="overflow:visible;"/>
	</clipPath>
	<g class="st13">
		<defs>
			<rect id="SVGID_27_" x="12.3" y="9.4" width="1338" height="289"/>
		</defs>
		<clipPath id="SVGID_28_">
			<use xlink:href="#SVGID_27_"  style="overflow:visible;"/>
		</clipPath>
		<rect x="992.3" y="279.4" class="st14" width="24" height="24"/>
	</g>
</g>
<g class="st0">
	<defs>
		<polygon id="SVGID_29_" class="st0" points="1250.6,10.1 1253.3,15.1 1258.3,17.8 1253.3,20.5 1250.6,25.4 1247.9,20.5 1243,17.8 
			1247.9,15.1 		"/>
	</defs>
	<clipPath id="SVGID_30_">
		<use xlink:href="#SVGID_29_"  style="overflow:visible;"/>
	</clipPath>
	<g class="st15">
		<defs>
			<rect id="SVGID_31_" x="12.3" y="9.4" width="1338" height="289"/>
		</defs>
		<clipPath id="SVGID_32_">
			<use xlink:href="#SVGID_31_"  style="overflow:visible;"/>
		</clipPath>
		<rect x="1238" y="5.1" class="st16" width="25.3" height="25.3"/>
	</g>
</g>
<g class="st0">
	<defs>
		<polygon id="SVGID_33_" class="st0" points="1274.3,221.8 1275.7,224.3 1278.1,225.6 1275.7,226.9 1274.3,229.3 1273,226.9 
			1270.6,225.6 1273,224.3 		"/>
	</defs>
	<clipPath id="SVGID_34_">
		<use xlink:href="#SVGID_33_"  style="overflow:visible;"/>
	</clipPath>
	<g class="st17">
		<defs>
			<rect id="SVGID_35_" x="12.3" y="9.4" width="1338" height="289"/>
		</defs>
		<clipPath id="SVGID_36_">
			<use xlink:href="#SVGID_35_"  style="overflow:visible;"/>
		</clipPath>
		<rect x="1265.6" y="216.8" class="st18" width="17.5" height="17.5"/>
	</g>
</g>
<g class="st0">
	<defs>
		<polygon id="SVGID_37_" class="st0" points="24.6,183.9 29,191.9 36.9,196.2 29,200.6 24.6,208.5 20.3,200.6 12.3,196.2 
			20.3,191.9 		"/>
	</defs>
	<clipPath id="SVGID_38_">
		<use xlink:href="#SVGID_37_"  style="overflow:visible;"/>
	</clipPath>
	<g class="st19">
		<defs>
			<rect id="SVGID_39_" x="12.3" y="9.4" width="1338" height="289"/>
		</defs>
		<clipPath id="SVGID_40_">
			<use xlink:href="#SVGID_39_"  style="overflow:visible;"/>
		</clipPath>
		<rect x="7.3" y="178.9" class="st20" width="34.6" height="34.6"/>
	</g>
</g>
<g class="st0">
	<defs>
		<polygon id="SVGID_41_" class="st0" points="278.4,124.6 281,129.5 285.9,132.1 281,134.8 278.4,139.6 275.7,134.8 270.9,132.1 
			275.7,129.5 		"/>
	</defs>
	<clipPath id="SVGID_42_">
		<use xlink:href="#SVGID_41_"  style="overflow:visible;"/>
	</clipPath>
	<g class="st21">
		<defs>
			<rect id="SVGID_43_" x="12.3" y="9.4" width="1338" height="289"/>
		</defs>
		<clipPath id="SVGID_44_">
			<use xlink:href="#SVGID_43_"  style="overflow:visible;"/>
		</clipPath>
		<rect x="265.9" y="119.6" class="st22" width="25" height="25"/>
	</g>
</g>
</svg>
