<?xml version="1.0" encoding="UTF-8"?>
<svg width="13px" height="22px" viewBox="0 0 13 22" version="1.1" xmlns="http://www.w3.org/2000/svg" xmlns:xlink="http://www.w3.org/1999/xlink">
    <!-- Generator: Sketch 61 (89581) - https://sketch.com -->
    <title>Path</title>
    <desc>Created with Sketch.</desc>
    <g id="Symbols" stroke="none" stroke-width="1" fill="none" fill-rule="evenodd">
        <g id="1.-Atoms-/-Play-/-Number-Fields-/-Desktop-/-Thunderball-/-Selected" transform="translate(-27.000000, 0.000000)" fill="#FFFFFF" fill-rule="nonzero" stroke="#BC13AD">
            <path d="M38.9697056,7.85934933 C38.9166646,7.74200536 38.8024311,7.66669271 38.6765961,7.66669271 L34.8427793,7.66669271 L38.6264364,1.51168069 C38.6895246,1.40902424 38.6933917,1.27902398 38.6364835,1.17269565 C38.5795374,1.06601575 38.4708014,1 38.3530419,1 L33.1765932,1 C33.0539808,1 32.9420221,1.07132826 32.8870475,1.1843363 L28.0341149,11.1843558 C27.9839553,11.2873638 27.9894528,11.4100203 28.0483325,11.5083408 C28.1075535,11.6066613 28.2113986,11.6666615 28.3236606,11.6666615 L31.6504975,11.6666615 L28.0253569,20.5373428 C27.9635578,20.6890228 28.0185704,20.8649997 28.1547558,20.9510155 C28.2071523,20.9840234 28.2653875,21 28.3233194,21 C28.4161696,21 28.5077308,20.9589843 28.5711602,20.8816795 L38.9240956,8.21497503 C39.0052685,8.11567796 39.0227466,7.97700581 38.9697056,7.85934933 Z" id="Path"></path>
        </g>
    </g>
</svg>