<?xml version="1.0" encoding="UTF-8"?>
<svg width="313px" height="103px" viewBox="0 0 313 103" version="1.1" xmlns="http://www.w3.org/2000/svg" xmlns:xlink="http://www.w3.org/1999/xlink">
    <title>7922D9D5-7B50-4E69-BC32-5FEC618A0004</title>
    <defs>
        <rect id="path-1" x="1.25055521e-13" y="7.81597009e-15" width="312.962265" height="102.971"></rect>
    </defs>
    <g id="Toolkit" stroke="none" stroke-width="1" fill="none" fill-rule="evenodd">
        <g id="Toolkit-1" transform="translate(-2407.000000, -3282.000000)">
            <g id="Group-21" transform="translate(2407.000000, 3282.000000)">
                <g id="Group-20">
                    <mask id="mask-2" fill="white">
                        <use xlink:href="#path-1"></use>
                    </mask>
                    <g id="Mask"></g>
                    <g mask="url(#mask-2)">
                        <g transform="translate(55.787950, 52.142717)">
                            <g id="Group-19" transform="translate(190.184360, 47.287770) rotate(-16.000000) translate(-190.184360, -47.287770) translate(130.684360, 15.287770)">
                                <path d="M6.09969554,5.14318356 L6.09969554,55.0997604 C6.09969554,55.964926 6.80105078,56.6662812 7.66621632,56.6662812 L116.784124,56.6662812 L116.784124,56.6662812 L116.784124,62.5041792 L3.13304157,62.5041792 C1.40271049,62.5041792 7.3173318e-15,61.1014687 0,59.3711377 L0,1.5454571 L0,1.5454571 L6.09969554,5.14318356 Z" id="Path-16" fill="#F0F0F0"></path>
                                <line x1="1.64484682" y1="60.8593324" x2="47.3715885" y2="27.4689419" id="Stroke-3" stroke="#3460F2" stroke-width="3.28969364" stroke-linecap="round" stroke-linejoin="round" transform="translate(25.824095, 45.562257) rotate(-360.000000) translate(-25.824095, -45.562257) "></line>
                                <path d="M1.8093315,2.95030894 L52.2972687,28.8902157 C56.3654182,30.9811767 62.999317,30.9362098 67.0412109,28.7912886 L116.948609,2.30278555" id="Stroke-12" stroke="#3460F2" stroke-width="3.28969364" stroke-linecap="round" stroke-linejoin="round" transform="translate(59.378970, 16.366226) rotate(-360.000000) translate(-59.378970, -16.366226) "></path>
                                <line x1="116.784124" y1="60.8593324" x2="69.0835665" y2="27.962396" id="Stroke-5" stroke="#3460F2" stroke-width="3.28969364" stroke-linecap="round" stroke-linejoin="round" transform="translate(92.604876, 43.752925) rotate(-360.000000) translate(-92.604876, -43.752925) "></line>
                                <path d="M118.428971,3.28969364 L118.428971,59.2144856 C118.428971,61.0313332 116.956125,62.5041792 115.139278,62.5041792 L3.28969364,62.5041792 C1.47284601,62.5041792 -6.47859413e-14,61.0313332 -6.67847978e-14,59.2144856 L-6.67847978e-14,3.28969364 C-6.70072974e-14,1.47284601 1.47284601,7.09075902e-14 3.28969364,7.23501976e-14 L115.139278,7.23501976e-14 C116.956125,7.20164481e-14 118.428971,1.47284601 118.428971,3.28969364 Z" id="Path-6" stroke="#000080" stroke-width="3.28969364" stroke-linecap="round" stroke-linejoin="round" transform="translate(59.214486, 31.252090) rotate(-360.000000) translate(-59.214486, -31.252090) "></path>
                            </g>
                            <g id="Group-19-Copy-2" transform="translate(38.131846, 43.415422) rotate(-37.000000) translate(-38.131846, -43.415422) translate(4.631846, 25.415422)">
                                <path d="M3.4158295,2.88018279 L3.4158295,30.8558658 C3.4158295,31.3403585 3.80858844,31.7331175 4.29308114,31.7331175 L63.2636425,31.7331175 L63.2636425,31.7331175 L65.3991096,35.0023404 L1.75450328,35.0023404 C0.785517873,35.0023404 -2.10177956e-15,34.2168225 0,33.2478371 L0,0.865455978 L0,0.865455978 L3.4158295,2.88018279 Z" id="Path-16" fill="#F0F0F0"></path>
                                <line x1="0.92111422" y1="34.0812261" x2="26.5280895" y2="15.3826075" id="Stroke-3" stroke="#3460F2" stroke-width="1.84222844" stroke-linecap="round" stroke-linejoin="round" transform="translate(14.461493, 25.514864) rotate(-360.000000) translate(-14.461493, -25.514864) "></line>
                                <path d="M1.01322564,1.65217301 L29.2864705,16.1785208 C31.5646342,17.3494589 35.2796175,17.3242775 37.5430781,16.1231216 L65.4912211,1.28955991" id="Stroke-12" stroke="#3460F2" stroke-width="1.84222844" stroke-linecap="round" stroke-linejoin="round" transform="translate(33.252223, 9.165086) rotate(-360.000000) translate(-33.252223, -9.165086) "></path>
                                <line x1="65.3991096" y1="34.0812261" x2="38.6867973" y2="15.6589417" id="Stroke-5" stroke="#3460F2" stroke-width="1.84222844" stroke-linecap="round" stroke-linejoin="round" transform="translate(51.858731, 24.501638) rotate(-360.000000) translate(-51.858731, -24.501638) "></line>
                                <path d="M66.3202239,1.84222844 L66.3202239,33.1601119 C66.3202239,34.1775466 65.4954301,35.0023404 64.4779954,35.0023404 L1.84222844,35.0023404 C0.824793767,35.0023404 -3.81630654e-14,34.1775466 -3.73994867e-14,33.1601119 L-3.73994867e-14,1.84222844 C-3.75240866e-14,0.824793767 0.824793767,4.13691442e-14 1.84222844,4.05161106e-14 L64.4779954,4.05161106e-14 C65.4954301,3.98851217e-14 66.3202239,0.824793767 66.3202239,1.84222844 Z" id="Path-6" stroke="#000080" stroke-width="1.84222844" stroke-linecap="round" stroke-linejoin="round" transform="translate(33.160112, 17.501170) rotate(-360.000000) translate(-33.160112, -17.501170) "></path>
                            </g>
                        </g>
                    </g>
                </g>
                <path d="M228.857713,37.4149848 L230.48668,40.7156325 L234.129161,41.244916 L231.493437,43.814112 L232.115647,47.4418749 L228.857713,45.7290776 L225.599779,47.4418749 L226.221989,43.814112 L223.586265,41.244916 L227.228746,40.7156325 L228.857713,37.4149848 Z" id="Star" stroke="#3460F2" stroke-width="0.986908093" transform="translate(228.857713, 42.957713) rotate(-20.000000) translate(-228.857713, -42.957713) "></path>
                <path d="M57.2577133,53.9149848 L58.8866804,57.2156325 L62.5291614,57.744916 L59.8934374,60.314112 L60.5156474,63.9418749 L57.2577133,62.2290776 L53.9997792,63.9418749 L54.6219893,60.314112 L51.9862653,57.744916 L55.6287463,57.2156325 L57.2577133,53.9149848 Z" id="Star-Copy-3" stroke="#3460F2" stroke-width="0.986908093" transform="translate(57.257713, 59.457713) rotate(23.000000) translate(-57.257713, -59.457713) "></path>
                <circle id="Oval-Copy-6" stroke="#1432C8" stroke-width="1.61194989" cx="159.724672" cy="65.1246718" r="2.71869682"></circle>
            </g>
        </g>
    </g>
</svg>