<?xml version="1.0" encoding="UTF-8"?>
<svg width="131px" height="101px" viewBox="0 0 131 101" version="1.1" xmlns="http://www.w3.org/2000/svg" xmlns:xlink="http://www.w3.org/1999/xlink">
    <title>F9968E71-6D94-407A-A126-B3EEB9249CCC</title>
    <g id="Toolkit" stroke="none" stroke-width="1" fill="none" fill-rule="evenodd">
        <g id="Toolkit-1" transform="translate(-1799.000000, -3300.000000)">
            <g id="Group-28" transform="translate(1733.000000, 3242.000000)">
                <g transform="translate(66.000000, 58.000000)" id="Group-27">
                    <g id="Group-25" transform="translate(73.000000, 0.000000)">
                        <circle id="Oval-Copy-4" stroke="#1432C8" stroke-width="3.02" cx="6" cy="6" r="3.49"></circle>
                        <rect id="Rectangle" fill="#1432C8" x="5" y="0" width="2" height="3" rx="0.5"></rect>
                        <rect id="Rectangle-Copy-38" fill="#1432C8" transform="translate(6.021807, 10.500000) rotate(-180.000000) translate(-6.021807, -10.500000) " x="5.02180742" y="9" width="2" height="3" rx="0.5"></rect>
                        <rect id="Rectangle-Copy-39" fill="#1432C8" x="8" y="5" width="4" height="2" rx="0.5"></rect>
                        <rect id="Rectangle-Copy-42" fill="#1432C8" transform="translate(2.500000, 3.000000) rotate(-315.000000) translate(-2.500000, -3.000000) " x="1" y="2" width="3" height="2" rx="0.5"></rect>
                        <rect id="Rectangle-Copy-44" fill="#1432C8" transform="translate(9.500000, 9.000000) rotate(-135.000000) translate(-9.500000, -9.000000) " x="8" y="8" width="3" height="2" rx="0.5"></rect>
                        <rect id="Rectangle-Copy-43" fill="#1432C8" transform="translate(9.500000, 3.000000) rotate(-225.000000) translate(-9.500000, -3.000000) " x="8" y="2" width="3" height="2" rx="0.5"></rect>
                        <rect id="Rectangle-Copy-45" fill="#1432C8" transform="translate(2.500000, 9.000000) rotate(-45.000000) translate(-2.500000, -9.000000) " x="1" y="8" width="3" height="2" rx="0.5"></rect>
                        <rect id="Rectangle-Copy-41" fill="#1432C8" x="0" y="5" width="4" height="2" rx="0.5"></rect>
                    </g>
                    <g id="Group-25-Copy" transform="translate(119.000000, 61.000000)">
                        <circle id="Oval-Copy-4" stroke="#1432C8" stroke-width="3.02" cx="6" cy="6" r="3.49"></circle>
                        <rect id="Rectangle" fill="#1432C8" x="5" y="0" width="2" height="3" rx="0.5"></rect>
                        <rect id="Rectangle-Copy-38" fill="#1432C8" transform="translate(6.021807, 10.500000) rotate(-180.000000) translate(-6.021807, -10.500000) " x="5.02180742" y="9" width="2" height="3" rx="0.5"></rect>
                        <rect id="Rectangle-Copy-39" fill="#1432C8" x="8" y="5" width="4" height="2" rx="0.5"></rect>
                        <rect id="Rectangle-Copy-42" fill="#1432C8" transform="translate(2.500000, 3.000000) rotate(-315.000000) translate(-2.500000, -3.000000) " x="1" y="2" width="3" height="2" rx="0.5"></rect>
                        <rect id="Rectangle-Copy-44" fill="#1432C8" transform="translate(9.500000, 9.000000) rotate(-135.000000) translate(-9.500000, -9.000000) " x="8" y="8" width="3" height="2" rx="0.5"></rect>
                        <rect id="Rectangle-Copy-43" fill="#1432C8" transform="translate(9.500000, 3.000000) rotate(-225.000000) translate(-9.500000, -3.000000) " x="8" y="2" width="3" height="2" rx="0.5"></rect>
                        <rect id="Rectangle-Copy-45" fill="#1432C8" transform="translate(2.500000, 9.000000) rotate(-45.000000) translate(-2.500000, -9.000000) " x="1" y="8" width="3" height="2" rx="0.5"></rect>
                        <rect id="Rectangle-Copy-41" fill="#1432C8" x="0" y="5" width="4" height="2" rx="0.5"></rect>
                    </g>
                    <g id="Group-25-Copy-2" transform="translate(0.000000, 53.000000)">
                        <circle id="Oval-Copy-4" stroke="#1432C8" stroke-width="3.02" cx="6" cy="6" r="3.49"></circle>
                        <rect id="Rectangle" fill="#1432C8" x="5" y="0" width="2" height="3" rx="0.5"></rect>
                        <rect id="Rectangle-Copy-38" fill="#1432C8" transform="translate(6.021807, 10.500000) rotate(-180.000000) translate(-6.021807, -10.500000) " x="5.02180742" y="9" width="2" height="3" rx="0.5"></rect>
                        <rect id="Rectangle-Copy-39" fill="#1432C8" x="8" y="5" width="4" height="2" rx="0.5"></rect>
                        <rect id="Rectangle-Copy-42" fill="#1432C8" transform="translate(2.500000, 3.000000) rotate(-315.000000) translate(-2.500000, -3.000000) " x="1" y="2" width="3" height="2" rx="0.5"></rect>
                        <rect id="Rectangle-Copy-44" fill="#1432C8" transform="translate(9.500000, 9.000000) rotate(-135.000000) translate(-9.500000, -9.000000) " x="8" y="8" width="3" height="2" rx="0.5"></rect>
                        <rect id="Rectangle-Copy-43" fill="#1432C8" transform="translate(9.500000, 3.000000) rotate(-225.000000) translate(-9.500000, -3.000000) " x="8" y="2" width="3" height="2" rx="0.5"></rect>
                        <rect id="Rectangle-Copy-45" fill="#1432C8" transform="translate(2.500000, 9.000000) rotate(-45.000000) translate(-2.500000, -9.000000) " x="1" y="8" width="3" height="2" rx="0.5"></rect>
                        <rect id="Rectangle-Copy-41" fill="#1432C8" x="0" y="5" width="4" height="2" rx="0.5"></rect>
                    </g>
                    <path d="M16,18.8 C19.9060131,18.5306896 20.6183258,16.4271425 18.1369378,12.4893589 C15.6555499,8.55157524 16.2765707,6.38845561 20,6" id="Path-11" stroke="#4F7BF7" stroke-width="3.02" stroke-linecap="round" stroke-linejoin="round" transform="translate(18.000000, 12.400000) rotate(-57.000000) translate(-18.000000, -12.400000) "></path>
                    <path d="M116,38.8 C119.906013,38.5306896 120.618326,36.4271425 118.136938,32.4893589 C115.65555,28.5515752 116.276571,26.3884556 120,26" id="Path-11-Copy-4" stroke="#4F7BF7" stroke-width="3.02" stroke-linecap="round" stroke-linejoin="round" transform="translate(118.000000, 32.400000) rotate(65.000000) translate(-118.000000, -32.400000) "></path>
                    <g id="Group-26" transform="translate(64.500000, 63.845972) rotate(-9.000000) translate(-64.500000, -63.845972) translate(32.000000, 32.845972)" stroke-width="3.02">
                        <path d="M10.1444806,31.1540284 C12.3158401,11.2378474 18.2676799,1.27975694 28,1.27975694" id="Path-4-Copy-4" stroke="#F0F0F0" stroke-linecap="round" transform="translate(19.072240, 16.216893) scale(1, -1) translate(-19.072240, -16.216893) "></path>
                        <path d="M10.4457912,61.300272 C12.4162769,41.2027763 18.2676799,31.1540284 28,31.1540284" id="Path-4-Copy-5" stroke="#F0F0F0" stroke-linecap="round"></path>
                        <polygon id="Path-3" stroke="#3460F2" stroke-linejoin="round" points="16 55.1540284 33 38.1540284 50 55.1540284"></polygon>
                        <line x1="0" y1="0.154028436" x2="65" y2="0.154028436" id="Path" stroke="#000080" stroke-linecap="round"></line>
                        <line x1="-2.27373675e-13" y1="61.1540284" x2="65" y2="61.1540284" id="Path-Copy" stroke="#000080" stroke-linecap="round"></line>
                        <polygon id="Path-3-Copy" stroke="#3460F2" stroke-linejoin="round" transform="translate(32.500000, 19.154028) rotate(-180.000000) translate(-32.500000, -19.154028) " points="22 24.1540284 32.5 14.1540284 43 24.1540284"></polygon>
                        <path d="M7,61.1540284 C10.9165929,41.1540284 17.9165929,31.1540284 28,31.1540284" id="Path-4" stroke="#000080" stroke-linecap="round"></path>
                        <path d="M7,31.1540284 C10.9165929,11.1540284 17.9165929,1.15402844 28,1.15402844" id="Path-4-Copy-2" stroke="#000080" stroke-linecap="round" transform="translate(17.500000, 16.154028) scale(1, -1) translate(-17.500000, -16.154028) "></path>
                        <path d="M37.1424674,61.1540284 C41.0590603,41.1540284 48.0590603,31.1540284 58.1424674,31.1540284" id="Path-4-Copy" stroke="#000080" stroke-linecap="round" transform="translate(47.642467, 46.154028) scale(-1, 1) translate(-47.642467, -46.154028) "></path>
                        <path d="M37.1424674,31.1540284 C41.0590603,11.1540284 48.0590603,1.15402844 58.1424674,1.15402844" id="Path-4-Copy-3" stroke="#000080" stroke-linecap="round" transform="translate(47.642467, 16.154028) scale(-1, -1) translate(-47.642467, -16.154028) "></path>
                    </g>
                </g>
            </g>
        </g>
    </g>
</svg>